<svg class="fa d-icon d-icon-unity svg-icon svg-string js-evernote-checked" xmlns="http://www.w3.org/2000/svg" data-evernote-id="421"><symbol xmlns="http://www.w3.org/2000/svg" id="unity" viewBox="0 0 221.09 249.71" data-evernote-id="3058" class="js-evernote-checked">
    <defs data-evernote-id="3059" class="js-evernote-checked"></defs>
    <path d="M120.18,44.68l39.52,22.83c1.41.78,1.46,3.02,0,3.85l-46.97,27.11c-1.41.83-3.12.78-4.43,0l-46.97-27.11c-1.46-.78-1.46-3.07,0-3.85l39.52-22.83V0L0,58.22v116.53l38.7-22.29v-45.61c0-1.61,1.9-2.77,3.31-1.9l46.97,27.11c1.41.83,2.24,2.29,2.24,3.85v54.22c0,1.61-1.9,2.77-3.31,1.9l-39.52-22.83-38.7,22.29,100.86,58.22,100.9-58.22-38.7-22.29-39.57,22.78c-1.41.88-3.36-.24-3.31-1.9v-54.22c0-1.61.92-3.07,2.24-3.85l46.97-27.11c1.41-.88,3.36.24,3.31,1.9v45.61l38.7,22.29V58.22L120.18,0v44.68Z" data-evernote-id="3060" class="js-evernote-checked"></path>
  </symbol></svg>