<svg class="Logo_logo__eLECy js-evernote-checked" data-big="false" viewBox="-50 -50 100 100" data-evernote-id="256" xmlns="http://www.w3.org/2000/svg"><g class="Logo_dilate_outer__3z8q6 js-evernote-checked" data-evernote-id="257"><path fill="#74C0E3" d="M 0 0 L 0 -50 A 50 50 0 1 1 -50 0 z" data-evernote-id="258" class="js-evernote-checked"></path><path fill="#8C6239" d="M 0 0 L 0 -50 A 50 50 0 0 0 -50 0 z" data-evernote-id="259" class="js-evernote-checked"></path></g><g class="Logo_dilate_inner__1H-Bx js-evernote-checked" data-evernote-id="260"><polygon fill="#528EA3" points="-43.47,4.90 7.49,10.64 4.93,-12.04" data-evernote-id="261" class="js-evernote-checked"></polygon><polygon fill="#528EA3" points="-41.29,14.45 9.67,8.71 2.13,-12.84" data-evernote-id="262" class="js-evernote-checked"></polygon><polygon fill="#528EA3" points="-37.04,23.28 11.36,6.34 -0.78,-12.99" data-evernote-id="263" class="js-evernote-checked"></polygon><polygon fill="#528EA3" points="-30.94,30.94 12.49,3.65 -3.65,-12.49" data-evernote-id="264" class="js-evernote-checked"></polygon><polygon fill="#528EA3" points="-23.28,37.04 12.99,0.78 -6.34,-11.36" data-evernote-id="265" class="js-evernote-checked"></polygon><polygon fill="#528EA3" points="-14.45,41.29 12.84,-2.13 -8.71,-9.67" data-evernote-id="266" class="js-evernote-checked"></polygon><polygon fill="#528EA3" points="-4.90,43.47 12.04,-4.93 -10.64,-7.49" data-evernote-id="267" class="js-evernote-checked"></polygon><polygon fill="#528EA3" points="4.90,43.47 10.64,-7.49 -12.04,-4.93" data-evernote-id="268" class="js-evernote-checked"></polygon><polygon fill="#528EA3" points="14.45,41.29 8.71,-9.67 -12.84,-2.13" data-evernote-id="269" class="js-evernote-checked"></polygon><polygon fill="#528EA3" points="23.28,37.04 6.34,-11.36 -12.99,0.78" data-evernote-id="270" class="js-evernote-checked"></polygon><polygon fill="#528EA3" points="30.94,30.94 3.65,-12.49 -12.49,3.65" data-evernote-id="271" class="js-evernote-checked"></polygon><polygon fill="#528EA3" points="37.04,23.28 0.78,-12.99 -11.36,6.34" data-evernote-id="272" class="js-evernote-checked"></polygon><polygon fill="#528EA3" points="41.29,14.45 -2.13,-12.84 -9.67,8.71" data-evernote-id="273" class="js-evernote-checked"></polygon><polygon fill="#528EA3" points="43.47,4.90 -4.93,-12.04 -7.49,10.64" data-evernote-id="274" class="js-evernote-checked"></polygon><polygon fill="#528EA3" points="43.47,-4.90 -7.49,-10.64 -4.93,12.04" data-evernote-id="275" class="js-evernote-checked"></polygon><polygon fill="#528EA3" points="41.29,-14.45 -9.67,-8.71 -2.13,12.84" data-evernote-id="276" class="js-evernote-checked"></polygon><polygon fill="#528EA3" points="37.04,-23.28 -11.36,-6.34 0.78,12.99" data-evernote-id="277" class="js-evernote-checked"></polygon><polygon fill="#528EA3" points="30.94,-30.94 -12.49,-3.65 3.65,12.49" data-evernote-id="278" class="js-evernote-checked"></polygon><polygon fill="#528EA3" points="23.28,-37.04 -12.99,-0.78 6.34,11.36" data-evernote-id="279" class="js-evernote-checked"></polygon><polygon fill="#528EA3" points="14.45,-41.29 -12.84,2.13 8.71,9.67" data-evernote-id="280" class="js-evernote-checked"></polygon><polygon fill="#528EA3" points="4.90,-43.47 -12.04,4.93 10.64,7.49" data-evernote-id="281" class="js-evernote-checked"></polygon><polygon fill="#754C24" points="-4.90,-43.47 -10.64,7.49 12.04,4.93" data-evernote-id="282" class="js-evernote-checked"></polygon><polygon fill="#754C24" points="-14.45,-41.29 -8.71,9.67 12.84,2.13" data-evernote-id="283" class="js-evernote-checked"></polygon><polygon fill="#754C24" points="-23.28,-37.04 -6.34,11.36 12.99,-0.78" data-evernote-id="284" class="js-evernote-checked"></polygon><polygon fill="#754C24" points="-30.94,-30.94 -3.65,12.49 12.49,-3.65" data-evernote-id="285" class="js-evernote-checked"></polygon><polygon fill="#754C24" points="-37.04,-23.28 -0.78,12.99 11.36,-6.34" data-evernote-id="286" class="js-evernote-checked"></polygon><polygon fill="#754C24" points="-41.29,-14.45 2.13,12.84 9.67,-8.71" data-evernote-id="287" class="js-evernote-checked"></polygon><polygon fill="#754C24" points="-43.47,-4.90 4.93,12.04 7.49,-10.64" data-evernote-id="288" class="js-evernote-checked"></polygon></g><g class="Logo_dilate_inner__1H-Bx js-evernote-checked" data-evernote-id="289"><polygon fill="#3E6576" points="-50.00,0.00 0.00,11.41 0.00,0.00" data-evernote-id="290" class="js-evernote-checked"></polygon><polygon fill="#3E6576" points="-48.75,11.13 2.54,11.13 -2.54,-11.13" data-evernote-id="291" class="js-evernote-checked"></polygon><polygon fill="#3E6576" points="-45.05,21.69 4.95,10.28 -4.95,-10.28" data-evernote-id="292" class="js-evernote-checked"></polygon><polygon fill="#3E6576" points="-39.09,31.17 7.12,8.92 -7.12,-8.92" data-evernote-id="293" class="js-evernote-checked"></polygon><polygon fill="#3E6576" points="-31.17,39.09 8.92,7.12 -8.92,-7.12" data-evernote-id="294" class="js-evernote-checked"></polygon><polygon fill="#3E6576" points="-21.69,45.05 10.28,4.95 -10.28,-4.95" data-evernote-id="295" class="js-evernote-checked"></polygon><polygon fill="#3E6576" points="-11.13,48.75 11.13,2.54 -11.13,-2.54" data-evernote-id="296" class="js-evernote-checked"></polygon><polygon fill="#3E6576" points="0.00,50.00 11.41,0.00 -11.41,0.00" data-evernote-id="297" class="js-evernote-checked"></polygon><polygon fill="#3E6576" points="11.13,48.75 11.13,-2.54 -11.13,2.54" data-evernote-id="298" class="js-evernote-checked"></polygon><polygon fill="#3E6576" points="21.69,45.05 10.28,-4.95 -10.28,4.95" data-evernote-id="299" class="js-evernote-checked"></polygon><polygon fill="#3E6576" points="31.17,39.09 8.92,-7.12 -8.92,7.12" data-evernote-id="300" class="js-evernote-checked"></polygon><polygon fill="#3E6576" points="39.09,31.17 7.12,-8.92 -7.12,8.92" data-evernote-id="301" class="js-evernote-checked"></polygon><polygon fill="#3E6576" points="45.05,21.69 4.95,-10.28 -4.95,10.28" data-evernote-id="302" class="js-evernote-checked"></polygon><polygon fill="#3E6576" points="48.75,11.13 2.54,-11.13 -2.54,11.13" data-evernote-id="303" class="js-evernote-checked"></polygon><polygon fill="#3E6576" points="50.00,0.00 0.00,-11.41 0.00,11.41" data-evernote-id="304" class="js-evernote-checked"></polygon><polygon fill="#3E6576" points="48.75,-11.13 -2.54,-11.13 2.54,11.13" data-evernote-id="305" class="js-evernote-checked"></polygon><polygon fill="#3E6576" points="45.05,-21.69 -4.95,-10.28 4.95,10.28" data-evernote-id="306" class="js-evernote-checked"></polygon><polygon fill="#3E6576" points="39.09,-31.17 -7.12,-8.92 7.12,8.92" data-evernote-id="307" class="js-evernote-checked"></polygon><polygon fill="#3E6576" points="31.17,-39.09 -8.92,-7.12 8.92,7.12" data-evernote-id="308" class="js-evernote-checked"></polygon><polygon fill="#3E6576" points="21.69,-45.05 -10.28,-4.95 10.28,4.95" data-evernote-id="309" class="js-evernote-checked"></polygon><polygon fill="#3E6576" points="11.13,-48.75 -11.13,-2.54 11.13,2.54" data-evernote-id="310" class="js-evernote-checked"></polygon><polygon fill="#3E6576" points="0.00,-50.00 0.00,0.00 11.41,0.00" data-evernote-id="311" class="js-evernote-checked"></polygon><polygon fill="#603813" points="0.00,-50.00 -11.41,-0.00 0.00,0.00" data-evernote-id="312" class="js-evernote-checked"></polygon><polygon fill="#603813" points="-11.13,-48.75 -11.13,2.54 11.13,-2.54" data-evernote-id="313" class="js-evernote-checked"></polygon><polygon fill="#603813" points="-21.69,-45.05 -10.28,4.95 10.28,-4.95" data-evernote-id="314" class="js-evernote-checked"></polygon><polygon fill="#603813" points="-31.17,-39.09 -8.92,7.12 8.92,-7.12" data-evernote-id="315" class="js-evernote-checked"></polygon><polygon fill="#603813" points="-39.09,-31.17 -7.12,8.92 7.12,-8.92" data-evernote-id="316" class="js-evernote-checked"></polygon><polygon fill="#603813" points="-45.05,-21.69 -4.95,10.28 4.95,-10.28" data-evernote-id="317" class="js-evernote-checked"></polygon><polygon fill="#603813" points="-48.75,-11.13 -2.54,11.13 2.54,-11.13" data-evernote-id="318" class="js-evernote-checked"></polygon><polygon fill="#603813" points="-50.00,-0.00 0.00,0.00 0.00,-11.41" data-evernote-id="319" class="js-evernote-checked"></polygon></g><g class="Logo_dilate_inner__1H-Bx js-evernote-checked" data-evernote-id="320"><polygon fill="#224C5B" points="-37.50,0.00 12.50,11.41 12.50,-0.00" data-evernote-id="321" class="js-evernote-checked"></polygon><polygon fill="#224C5B" points="-36.56,8.34 14.73,8.34 9.65,-13.91" data-evernote-id="322" class="js-evernote-checked"></polygon><polygon fill="#224C5B" points="-33.79,16.27 16.21,4.86 6.31,-15.71" data-evernote-id="323" class="js-evernote-checked"></polygon><polygon fill="#224C5B" points="-29.32,23.38 16.89,1.13 2.66,-16.72" data-evernote-id="324" class="js-evernote-checked"></polygon><polygon fill="#224C5B" points="-23.38,29.32 16.72,-2.66 -1.13,-16.89" data-evernote-id="325" class="js-evernote-checked"></polygon><polygon fill="#224C5B" points="-16.27,33.79 15.71,-6.31 -4.86,-16.21" data-evernote-id="326" class="js-evernote-checked"></polygon><polygon fill="#224C5B" points="-8.34,36.56 13.91,-9.65 -8.34,-14.73" data-evernote-id="327" class="js-evernote-checked"></polygon><polygon fill="#224C5B" points="0.00,37.50 11.41,-12.50 -11.41,-12.50" data-evernote-id="328" class="js-evernote-checked"></polygon><polygon fill="#224C5B" points="8.34,36.56 8.34,-14.73 -13.91,-9.65" data-evernote-id="329" class="js-evernote-checked"></polygon><polygon fill="#224C5B" points="16.27,33.79 4.86,-16.21 -15.71,-6.31" data-evernote-id="330" class="js-evernote-checked"></polygon><polygon fill="#224C5B" points="23.38,29.32 1.13,-16.89 -16.72,-2.66" data-evernote-id="331" class="js-evernote-checked"></polygon><polygon fill="#224C5B" points="29.32,23.38 -2.66,-16.72 -16.89,1.13" data-evernote-id="332" class="js-evernote-checked"></polygon><polygon fill="#224C5B" points="33.79,16.27 -6.31,-15.71 -16.21,4.86" data-evernote-id="333" class="js-evernote-checked"></polygon><polygon fill="#224C5B" points="36.56,8.34 -9.65,-13.91 -14.73,8.34" data-evernote-id="334" class="js-evernote-checked"></polygon><polygon fill="#224C5B" points="37.50,0.00 -12.50,-11.41 -12.50,11.41" data-evernote-id="335" class="js-evernote-checked"></polygon><polygon fill="#224C5B" points="36.56,-8.34 -14.73,-8.34 -9.65,13.91" data-evernote-id="336" class="js-evernote-checked"></polygon><polygon fill="#224C5B" points="33.79,-16.27 -16.21,-4.86 -6.31,15.71" data-evernote-id="337" class="js-evernote-checked"></polygon><polygon fill="#224C5B" points="29.32,-23.38 -16.89,-1.13 -2.66,16.72" data-evernote-id="338" class="js-evernote-checked"></polygon><polygon fill="#224C5B" points="23.38,-29.32 -16.72,2.66 1.13,16.89" data-evernote-id="339" class="js-evernote-checked"></polygon><polygon fill="#224C5B" points="16.27,-33.79 -15.71,6.31 4.86,16.21" data-evernote-id="340" class="js-evernote-checked"></polygon><polygon fill="#224C5B" points="8.34,-36.56 -13.91,9.65 8.34,14.73" data-evernote-id="341" class="js-evernote-checked"></polygon><polygon fill="#224C5B" points="0.00,-37.50 -0.00,12.50 11.41,12.50" data-evernote-id="342" class="js-evernote-checked"></polygon><polygon fill="#42210b" points="0.00,-37.50 -11.41,12.50 -0.00,12.50" data-evernote-id="343" class="js-evernote-checked"></polygon><polygon fill="#42210b" points="-8.34,-36.56 -8.34,14.73 13.91,9.65" data-evernote-id="344" class="js-evernote-checked"></polygon><polygon fill="#42210b" points="-16.27,-33.79 -4.86,16.21 15.71,6.31" data-evernote-id="345" class="js-evernote-checked"></polygon><polygon fill="#42210b" points="-23.38,-29.32 -1.13,16.89 16.72,2.66" data-evernote-id="346" class="js-evernote-checked"></polygon><polygon fill="#42210b" points="-29.32,-23.38 2.66,16.72 16.89,-1.13" data-evernote-id="347" class="js-evernote-checked"></polygon><polygon fill="#42210b" points="-33.79,-16.27 6.31,15.71 16.21,-4.86" data-evernote-id="348" class="js-evernote-checked"></polygon><polygon fill="#42210b" points="-36.56,-8.34 9.65,13.91 14.73,-8.34" data-evernote-id="349" class="js-evernote-checked"></polygon><polygon fill="#42210b" points="-37.50,-0.00 12.50,0.00 12.50,-11.41" data-evernote-id="350" class="js-evernote-checked"></polygon></g><g class="Logo_dilate_inner__1H-Bx js-evernote-checked" data-evernote-id="351"><polygon fill="#000000" points="-30.00,0.00 20.00,11.41 20.00,-0.00" data-evernote-id="352" class="js-evernote-checked"></polygon><polygon fill="#000000" points="-29.25,6.68 22.04,6.68 16.96,-15.58" data-evernote-id="353" class="js-evernote-checked"></polygon><polygon fill="#000000" points="-27.03,13.02 22.97,1.60 13.07,-18.96" data-evernote-id="354" class="js-evernote-checked"></polygon><polygon fill="#000000" points="-23.45,18.70 22.75,-3.55 8.52,-21.39" data-evernote-id="355" class="js-evernote-checked"></polygon><polygon fill="#000000" points="-18.70,23.45 21.39,-8.52 3.55,-22.75" data-evernote-id="356" class="js-evernote-checked"></polygon><polygon fill="#000000" points="-13.02,27.03 18.96,-13.07 -1.60,-22.97" data-evernote-id="357" class="js-evernote-checked"></polygon><polygon fill="#000000" points="-6.68,29.25 15.58,-16.96 -6.68,-22.04" data-evernote-id="358" class="js-evernote-checked"></polygon><polygon fill="#000000" points="0.00,30.00 11.41,-20.00 -11.41,-20.00" data-evernote-id="359" class="js-evernote-checked"></polygon><polygon fill="#000000" points="6.68,29.25 6.68,-22.04 -15.58,-16.96" data-evernote-id="360" class="js-evernote-checked"></polygon><polygon fill="#000000" points="13.02,27.03 1.60,-22.97 -18.96,-13.07" data-evernote-id="361" class="js-evernote-checked"></polygon><polygon fill="#000000" points="18.70,23.45 -3.55,-22.75 -21.39,-8.52" data-evernote-id="362" class="js-evernote-checked"></polygon><polygon fill="#000000" points="23.45,18.70 -8.52,-21.39 -22.75,-3.55" data-evernote-id="363" class="js-evernote-checked"></polygon><polygon fill="#000000" points="27.03,13.02 -13.07,-18.96 -22.97,1.60" data-evernote-id="364" class="js-evernote-checked"></polygon><polygon fill="#000000" points="29.25,6.68 -16.96,-15.58 -22.04,6.68" data-evernote-id="365" class="js-evernote-checked"></polygon><polygon fill="#000000" points="30.00,0.00 -20.00,-11.41 -20.00,11.41" data-evernote-id="366" class="js-evernote-checked"></polygon><polygon fill="#000000" points="29.25,-6.68 -22.04,-6.68 -16.96,15.58" data-evernote-id="367" class="js-evernote-checked"></polygon><polygon fill="#000000" points="27.03,-13.02 -22.97,-1.60 -13.07,18.96" data-evernote-id="368" class="js-evernote-checked"></polygon><polygon fill="#000000" points="23.45,-18.70 -22.75,3.55 -8.52,21.39" data-evernote-id="369" class="js-evernote-checked"></polygon><polygon fill="#000000" points="18.70,-23.45 -21.39,8.52 -3.55,22.75" data-evernote-id="370" class="js-evernote-checked"></polygon><polygon fill="#000000" points="13.02,-27.03 -18.96,13.07 1.60,22.97" data-evernote-id="371" class="js-evernote-checked"></polygon><polygon fill="#000000" points="6.68,-29.25 -15.58,16.96 6.68,22.04" data-evernote-id="372" class="js-evernote-checked"></polygon><polygon fill="#000000" points="0.00,-30.00 -0.00,20.00 11.41,20.00" data-evernote-id="373" class="js-evernote-checked"></polygon><polygon fill="#000000" points="0.00,-30.00 -11.41,20.00 -0.00,20.00" data-evernote-id="374" class="js-evernote-checked"></polygon><polygon fill="#000000" points="-6.68,-29.25 -6.68,22.04 15.58,16.96" data-evernote-id="375" class="js-evernote-checked"></polygon><polygon fill="#000000" points="-13.02,-27.03 -1.60,22.97 18.96,13.07" data-evernote-id="376" class="js-evernote-checked"></polygon><polygon fill="#000000" points="-18.70,-23.45 3.55,22.75 21.39,8.52" data-evernote-id="377" class="js-evernote-checked"></polygon><polygon fill="#000000" points="-23.45,-18.70 8.52,21.39 22.75,3.55" data-evernote-id="378" class="js-evernote-checked"></polygon><polygon fill="#000000" points="-27.03,-13.02 13.07,18.96 22.97,-1.60" data-evernote-id="379" class="js-evernote-checked"></polygon><polygon fill="#000000" points="-29.25,-6.68 16.96,15.58 22.04,-6.68" data-evernote-id="380" class="js-evernote-checked"></polygon><polygon fill="#000000" points="-30.00,-0.00 20.00,0.00 20.00,-11.41" data-evernote-id="381" class="js-evernote-checked"></polygon></g><g data-evernote-id="382" class="js-evernote-checked"><circle cx="0" cy="0" r="25" fill="#000000" data-evernote-id="383" class="js-evernote-checked"></circle></g></svg>