<svg class="background_svg__nXX42 js-evernote-checked" xmlns="http://www.w3.org/2000/svg" viewBox="-1000 -1000 2000 2000" data-evernote-id="144"><g fill="none" stroke="#808080" stroke-width="2" data-evernote-id="145" class="js-evernote-checked"><g data-evernote-id="146" class="js-evernote-checked"><line class="background_line__17izT js-evernote-checked" x1="-1000" x2="-1000" y1="-1000" y2="1000" data-evernote-id="147"></line><line class="background_line__17izT js-evernote-checked" x1="-950" x2="-950" y1="-1000" y2="1000" data-evernote-id="148"></line><line class="background_line__17izT js-evernote-checked" x1="-900" x2="-900" y1="-1000" y2="1000" data-evernote-id="149"></line><line class="background_line__17izT js-evernote-checked" x1="-850" x2="-850" y1="-1000" y2="1000" data-evernote-id="150"></line><line class="background_line__17izT js-evernote-checked" x1="-800" x2="-800" y1="-1000" y2="1000" data-evernote-id="151"></line><line class="background_line__17izT js-evernote-checked" x1="-750" x2="-750" y1="-1000" y2="1000" data-evernote-id="152"></line><line class="background_line__17izT js-evernote-checked" x1="-700" x2="-700" y1="-1000" y2="1000" data-evernote-id="153"></line><line class="background_line__17izT js-evernote-checked" x1="-650" x2="-650" y1="-1000" y2="1000" data-evernote-id="154"></line><line class="background_line__17izT js-evernote-checked" x1="-600" x2="-600" y1="-1000" y2="1000" data-evernote-id="155"></line><line class="background_line__17izT js-evernote-checked" x1="-550" x2="-550" y1="-1000" y2="1000" data-evernote-id="156"></line><line class="background_line__17izT js-evernote-checked" x1="-500" x2="-500" y1="-1000" y2="1000" data-evernote-id="157"></line><line class="background_line__17izT js-evernote-checked" x1="-450" x2="-450" y1="-1000" y2="1000" data-evernote-id="158"></line><line class="background_line__17izT js-evernote-checked" x1="-400" x2="-400" y1="-1000" y2="1000" data-evernote-id="159"></line><line class="background_line__17izT js-evernote-checked" x1="-350" x2="-350" y1="-1000" y2="1000" data-evernote-id="160"></line><line class="background_line__17izT js-evernote-checked" x1="-300" x2="-300" y1="-1000" y2="1000" data-evernote-id="161"></line><line class="background_line__17izT js-evernote-checked" x1="-250" x2="-250" y1="-1000" y2="1000" data-evernote-id="162"></line><line class="background_line__17izT js-evernote-checked" x1="-200" x2="-200" y1="-1000" y2="1000" data-evernote-id="163"></line><line class="background_line__17izT js-evernote-checked" x1="-150" x2="-150" y1="-1000" y2="1000" data-evernote-id="164"></line><line class="background_line__17izT js-evernote-checked" x1="-100" x2="-100" y1="-1000" y2="1000" data-evernote-id="165"></line><line class="background_line__17izT js-evernote-checked" x1="-50" x2="-50" y1="-1000" y2="1000" data-evernote-id="166"></line><line class="background_line__17izT js-evernote-checked" x1="0" x2="0" y1="-1000" y2="1000" data-evernote-id="167"></line><line class="background_line__17izT js-evernote-checked" x1="50" x2="50" y1="-1000" y2="1000" data-evernote-id="168"></line><line class="background_line__17izT js-evernote-checked" x1="100" x2="100" y1="-1000" y2="1000" data-evernote-id="169"></line><line class="background_line__17izT js-evernote-checked" x1="150" x2="150" y1="-1000" y2="1000" data-evernote-id="170"></line><line class="background_line__17izT js-evernote-checked" x1="200" x2="200" y1="-1000" y2="1000" data-evernote-id="171"></line><line class="background_line__17izT js-evernote-checked" x1="250" x2="250" y1="-1000" y2="1000" data-evernote-id="172"></line><line class="background_line__17izT js-evernote-checked" x1="300" x2="300" y1="-1000" y2="1000" data-evernote-id="173"></line><line class="background_line__17izT js-evernote-checked" x1="350" x2="350" y1="-1000" y2="1000" data-evernote-id="174"></line><line class="background_line__17izT js-evernote-checked" x1="400" x2="400" y1="-1000" y2="1000" data-evernote-id="175"></line><line class="background_line__17izT js-evernote-checked" x1="450" x2="450" y1="-1000" y2="1000" data-evernote-id="176"></line><line class="background_line__17izT js-evernote-checked" x1="500" x2="500" y1="-1000" y2="1000" data-evernote-id="177"></line><line class="background_line__17izT js-evernote-checked" x1="550" x2="550" y1="-1000" y2="1000" data-evernote-id="178"></line><line class="background_line__17izT js-evernote-checked" x1="600" x2="600" y1="-1000" y2="1000" data-evernote-id="179"></line><line class="background_line__17izT js-evernote-checked" x1="650" x2="650" y1="-1000" y2="1000" data-evernote-id="180"></line><line class="background_line__17izT js-evernote-checked" x1="700" x2="700" y1="-1000" y2="1000" data-evernote-id="181"></line><line class="background_line__17izT js-evernote-checked" x1="750" x2="750" y1="-1000" y2="1000" data-evernote-id="182"></line><line class="background_line__17izT js-evernote-checked" x1="800" x2="800" y1="-1000" y2="1000" data-evernote-id="183"></line><line class="background_line__17izT js-evernote-checked" x1="850" x2="850" y1="-1000" y2="1000" data-evernote-id="184"></line><line class="background_line__17izT js-evernote-checked" x1="900" x2="900" y1="-1000" y2="1000" data-evernote-id="185"></line><line class="background_line__17izT js-evernote-checked" x1="950" x2="950" y1="-1000" y2="1000" data-evernote-id="186"></line><line class="background_line__17izT js-evernote-checked" x1="1000" x2="1000" y1="-1000" y2="1000" data-evernote-id="187"></line></g><g data-evernote-id="188" class="js-evernote-checked"><line class="background_line__17izT js-evernote-checked" x1="-1000" x2="1000" y1="-1000" y2="-1000" data-evernote-id="189"></line><line class="background_line__17izT js-evernote-checked" x1="-1000" x2="1000" y1="-950" y2="-950" data-evernote-id="190"></line><line class="background_line__17izT js-evernote-checked" x1="-1000" x2="1000" y1="-900" y2="-900" data-evernote-id="191"></line><line class="background_line__17izT js-evernote-checked" x1="-1000" x2="1000" y1="-850" y2="-850" data-evernote-id="192"></line><line class="background_line__17izT js-evernote-checked" x1="-1000" x2="1000" y1="-800" y2="-800" data-evernote-id="193"></line><line class="background_line__17izT js-evernote-checked" x1="-1000" x2="1000" y1="-750" y2="-750" data-evernote-id="194"></line><line class="background_line__17izT js-evernote-checked" x1="-1000" x2="1000" y1="-700" y2="-700" data-evernote-id="195"></line><line class="background_line__17izT js-evernote-checked" x1="-1000" x2="1000" y1="-650" y2="-650" data-evernote-id="196"></line><line class="background_line__17izT js-evernote-checked" x1="-1000" x2="1000" y1="-600" y2="-600" data-evernote-id="197"></line><line class="background_line__17izT js-evernote-checked" x1="-1000" x2="1000" y1="-550" y2="-550" data-evernote-id="198"></line><line class="background_line__17izT js-evernote-checked" x1="-1000" x2="1000" y1="-500" y2="-500" data-evernote-id="199"></line><line class="background_line__17izT js-evernote-checked" x1="-1000" x2="1000" y1="-450" y2="-450" data-evernote-id="200"></line><line class="background_line__17izT js-evernote-checked" x1="-1000" x2="1000" y1="-400" y2="-400" data-evernote-id="201"></line><line class="background_line__17izT js-evernote-checked" x1="-1000" x2="1000" y1="-350" y2="-350" data-evernote-id="202"></line><line class="background_line__17izT js-evernote-checked" x1="-1000" x2="1000" y1="-300" y2="-300" data-evernote-id="203"></line><line class="background_line__17izT js-evernote-checked" x1="-1000" x2="1000" y1="-250" y2="-250" data-evernote-id="204"></line><line class="background_line__17izT js-evernote-checked" x1="-1000" x2="1000" y1="-200" y2="-200" data-evernote-id="205"></line><line class="background_line__17izT js-evernote-checked" x1="-1000" x2="1000" y1="-150" y2="-150" data-evernote-id="206"></line><line class="background_line__17izT js-evernote-checked" x1="-1000" x2="1000" y1="-100" y2="-100" data-evernote-id="207"></line><line class="background_line__17izT js-evernote-checked" x1="-1000" x2="1000" y1="-50" y2="-50" data-evernote-id="208"></line><line class="background_line__17izT js-evernote-checked" x1="-1000" x2="1000" y1="0" y2="0" data-evernote-id="209"></line><line class="background_line__17izT js-evernote-checked" x1="-1000" x2="1000" y1="50" y2="50" data-evernote-id="210"></line><line class="background_line__17izT js-evernote-checked" x1="-1000" x2="1000" y1="100" y2="100" data-evernote-id="211"></line><line class="background_line__17izT js-evernote-checked" x1="-1000" x2="1000" y1="150" y2="150" data-evernote-id="212"></line><line class="background_line__17izT js-evernote-checked" x1="-1000" x2="1000" y1="200" y2="200" data-evernote-id="213"></line><line class="background_line__17izT js-evernote-checked" x1="-1000" x2="1000" y1="250" y2="250" data-evernote-id="214"></line><line class="background_line__17izT js-evernote-checked" x1="-1000" x2="1000" y1="300" y2="300" data-evernote-id="215"></line><line class="background_line__17izT js-evernote-checked" x1="-1000" x2="1000" y1="350" y2="350" data-evernote-id="216"></line><line class="background_line__17izT js-evernote-checked" x1="-1000" x2="1000" y1="400" y2="400" data-evernote-id="217"></line><line class="background_line__17izT js-evernote-checked" x1="-1000" x2="1000" y1="450" y2="450" data-evernote-id="218"></line><line class="background_line__17izT js-evernote-checked" x1="-1000" x2="1000" y1="500" y2="500" data-evernote-id="219"></line><line class="background_line__17izT js-evernote-checked" x1="-1000" x2="1000" y1="550" y2="550" data-evernote-id="220"></line><line class="background_line__17izT js-evernote-checked" x1="-1000" x2="1000" y1="600" y2="600" data-evernote-id="221"></line><line class="background_line__17izT js-evernote-checked" x1="-1000" x2="1000" y1="650" y2="650" data-evernote-id="222"></line><line class="background_line__17izT js-evernote-checked" x1="-1000" x2="1000" y1="700" y2="700" data-evernote-id="223"></line><line class="background_line__17izT js-evernote-checked" x1="-1000" x2="1000" y1="750" y2="750" data-evernote-id="224"></line><line class="background_line__17izT js-evernote-checked" x1="-1000" x2="1000" y1="800" y2="800" data-evernote-id="225"></line><line class="background_line__17izT js-evernote-checked" x1="-1000" x2="1000" y1="850" y2="850" data-evernote-id="226"></line><line class="background_line__17izT js-evernote-checked" x1="-1000" x2="1000" y1="900" y2="900" data-evernote-id="227"></line><line class="background_line__17izT js-evernote-checked" x1="-1000" x2="1000" y1="950" y2="950" data-evernote-id="228"></line><line class="background_line__17izT js-evernote-checked" x1="-1000" x2="1000" y1="1000" y2="1000" data-evernote-id="229"></line></g></g><g fill="none" stroke="#03a9f4" stroke-width="5" data-evernote-id="230" class="js-evernote-checked"><g data-evernote-id="231" class="js-evernote-checked"><line class="background_line__17izT js-evernote-checked" x1="-1000" x2="-1000" y1="-1000" y2="1000" data-evernote-id="232"></line><line class="background_line__17izT js-evernote-checked" x1="-800" x2="-800" y1="-1000" y2="1000" data-evernote-id="233"></line><line class="background_line__17izT js-evernote-checked" x1="-600" x2="-600" y1="-1000" y2="1000" data-evernote-id="234"></line><line class="background_line__17izT js-evernote-checked" x1="-400" x2="-400" y1="-1000" y2="1000" data-evernote-id="235"></line><line class="background_line__17izT js-evernote-checked" x1="-200" x2="-200" y1="-1000" y2="1000" data-evernote-id="236"></line><line class="background_line__17izT js-evernote-checked" x1="0" x2="0" y1="-1000" y2="1000" data-evernote-id="237"></line><line class="background_line__17izT js-evernote-checked" x1="200" x2="200" y1="-1000" y2="1000" data-evernote-id="238"></line><line class="background_line__17izT js-evernote-checked" x1="400" x2="400" y1="-1000" y2="1000" data-evernote-id="239"></line><line class="background_line__17izT js-evernote-checked" x1="600" x2="600" y1="-1000" y2="1000" data-evernote-id="240"></line><line class="background_line__17izT js-evernote-checked" x1="800" x2="800" y1="-1000" y2="1000" data-evernote-id="241"></line><line class="background_line__17izT js-evernote-checked" x1="1000" x2="1000" y1="-1000" y2="1000" data-evernote-id="242"></line></g><g data-evernote-id="243" class="js-evernote-checked"><line class="background_line__17izT js-evernote-checked" x1="-1000" x2="1000" y1="-1000" y2="-1000" data-evernote-id="244"></line><line class="background_line__17izT js-evernote-checked" x1="-1000" x2="1000" y1="-800" y2="-800" data-evernote-id="245"></line><line class="background_line__17izT js-evernote-checked" x1="-1000" x2="1000" y1="-600" y2="-600" data-evernote-id="246"></line><line class="background_line__17izT js-evernote-checked" x1="-1000" x2="1000" y1="-400" y2="-400" data-evernote-id="247"></line><line class="background_line__17izT js-evernote-checked" x1="-1000" x2="1000" y1="-200" y2="-200" data-evernote-id="248"></line><line class="background_line__17izT js-evernote-checked" x1="-1000" x2="1000" y1="0" y2="0" data-evernote-id="249"></line><line class="background_line__17izT js-evernote-checked" x1="-1000" x2="1000" y1="200" y2="200" data-evernote-id="250"></line><line class="background_line__17izT js-evernote-checked" x1="-1000" x2="1000" y1="400" y2="400" data-evernote-id="251"></line><line class="background_line__17izT js-evernote-checked" x1="-1000" x2="1000" y1="600" y2="600" data-evernote-id="252"></line><line class="background_line__17izT js-evernote-checked" x1="-1000" x2="1000" y1="800" y2="800" data-evernote-id="253"></line><line class="background_line__17izT js-evernote-checked" x1="-1000" x2="1000" y1="1000" y2="1000" data-evernote-id="254"></line></g></g></svg>