<svg viewBox="0 0 24 24" class="ZDI ZDI--Catalog24" fill="currentColor" xmlns="http://www.w3.org/2000/svg"><path fill-rule="evenodd" d="M10 5a1 1 0 0 1 1-1h10a1 1 0 1 1 0 2H11a1 1 0 0 1-1-1Zm4 6a1 1 0 1 0 0 2h7a1 1 0 1 0 0-2h-7Zm0 7a1 1 0 1 0 0 2h7a1 1 0 1 0 0-2h-7Zm-8.335.25a.915.915 0 0 1-.915-.915V12.75H10a.75.75 0 0 0 0-1.5H4.75V6.665c0-.505.41-.915.915-.915H7a.75.75 0 0 0 0-1.5H5.665A2.415 2.415 0 0 0 3.25 6.665v10.67a2.415 2.415 0 0 0 2.415 2.415H10a.75.75 0 0 0 0-1.5H5.665Z" clip-rule="evenodd"></path></svg>