<svg viewBox="0 0 24 24" xmlns="http://www.w3.org/2000/svg" data-evernote-id="5" class="js-evernote-checked"><path fill-rule="evenodd" clip-rule="evenodd" d="M17.23 11.846a.758.758 0 0 1 1.068 0c.293.29.295.764.004 1.057l-.004.004-6.815 6.776a4.548 4.548 0 0 1-6.405 0 4.485 4.485 0 0 1 0-6.368l9.376-9.322a3.41 3.41 0 0 1 4.804 0 3.364 3.364 0 0 1 .019 4.757l-.02.02-7.495 7.448c-.887.88-2.316.88-3.203 0a2.243 2.243 0 0 1-.013-3.171l.013-.013 4.983-4.95a.758.758 0 0 1 1.067 0 .748.748 0 0 1 0 1.062l-4.982 4.95a.747.747 0 0 0-.005 1.056l.005.005a.758.758 0 0 0 1.067 0l7.496-7.45a1.869 1.869 0 0 0 0-2.653 1.895 1.895 0 0 0-2.669 0l-9.375 9.322a2.99 2.99 0 0 0-.017 4.229l.017.017a3.032 3.032 0 0 0 4.27 0l6.815-6.776z"></path></svg>