<svg class="style-c2uxn6 js-evernote-checked" viewBox="0 0 30 30" fill="none" aria-hidden="true" data-evernote-id="197" xmlns="http://www.w3.org/2000/svg"><path d="M1.72271 23.209L1.72273 23.2089L11.7016 11.9457C11.7016 11.9457 11.7016 11.9457 11.7016 11.9457C12.0963 11.5004 12.792 11.5004 13.1867 11.9457C13.1867 11.9457 13.1867 11.9457 13.1867 11.9457L23.1659 23.2089L23.1659 23.209C23.589 23.6864 23.2499 24.4398 22.612 24.4398H2.27663C1.63872 24.4398 1.29967 23.6864 1.72271 23.209Z" fill="var(--color-greenContainer)" stroke="var(--color-greenBorder)" data-evernote-id="198" class="js-evernote-checked"></path><path d="M14.579 22.8737H10.4212C9.96753 22.8737 9.59973 23.2415 9.59973 23.6952V28.7609C9.59973 29.2146 9.96753 29.5824 10.4212 29.5824H14.579C15.0327 29.5824 15.4005 29.2146 15.4005 28.7609V23.6952C15.4005 23.2415 15.0327 22.8737 14.579 22.8737Z" fill="var(--color-greenContainer)" data-evernote-id="199" class="js-evernote-checked"></path><path d="M20.8857 15.2169L20.8857 15.217C20.994 15.3578 20.9946 15.5138 20.9223 15.6467C20.8483 15.7827 20.6941 15.8952 20.4752 15.8952H4.41374C4.19464 15.8952 4.04041 15.7827 3.96637 15.6467C3.89407 15.5139 3.89458 15.3579 4.00294 15.2169C4.00294 15.2169 4.00294 15.2169 4.00295 15.2169L10.3263 6.98949L10.4013 6.89188L10.4225 6.7706L10.4392 6.6745L10.4858 6.40696L10.2868 6.22222L8.75164 4.79746L8.75153 4.79736C8.72894 4.7764 8.72314 4.7603 8.72106 4.75148C8.71851 4.74069 8.71848 4.72658 8.72412 4.71024C8.73436 4.68057 8.76427 4.64114 8.83772 4.63052L10.9704 4.32239L11.2208 4.28622L11.34 4.06313L12.3078 2.25149L12.3079 2.25123C12.3273 2.21491 12.3705 2.1823 12.442 2.18225C12.5135 2.1822 12.557 2.21483 12.5765 2.25127L13.5475 4.06167L13.667 4.28453L13.9173 4.32032L16.0504 4.62536L16.0505 4.62538C16.1241 4.63588 16.154 4.67528 16.1643 4.70489C16.17 4.72121 16.17 4.73531 16.1674 4.74611C16.1654 4.75494 16.1596 4.77106 16.137 4.79205L16.137 4.7921L14.6044 6.21903L14.4059 6.40379L14.4525 6.67089L14.4711 6.77753L14.4922 6.89876L14.5672 6.99632L20.8857 15.2169Z" fill="var(--color-greenContainer)" stroke="var(--color-greenBorder)" data-evernote-id="200" class="js-evernote-checked"></path><path d="M14.1996 14.6496C15.1934 14.6496 15.9991 13.844 15.9991 12.8501C15.9991 11.8562 15.1934 11.0505 14.1996 11.0505C13.2057 11.0505 12.4 11.8562 12.4 12.8501C12.4 13.844 13.2057 14.6496 14.1996 14.6496Z" fill="var(--color-gray0)" data-evernote-id="201" class="js-evernote-checked"></path><path d="M10.3422 21.6882C11.336 21.6882 12.1417 20.8825 12.1417 19.8887C12.1417 18.8948 11.336 18.0891 10.3422 18.0891C9.34829 18.0891 8.5426 18.8948 8.5426 19.8887C8.5426 20.8825 9.34829 21.6882 10.3422 21.6882Z" fill="var(--color-gray0)" data-evernote-id="202" class="js-evernote-checked"></path><path d="M28.292 19.9321H17.3233C17.0344 19.9321 16.8003 20.1663 16.8003 20.4551V29.0598C16.8003 29.3486 17.0344 29.5827 17.3233 29.5827H28.292C28.5808 29.5827 28.815 29.3486 28.815 29.0598V20.4551C28.815 20.1663 28.5808 19.9321 28.292 19.9321Z" fill="#BD0505" data-evernote-id="203" class="js-evernote-checked"></path><path d="M21.433 19.9036C21.0396 19.9036 20.6837 19.7442 20.4258 19.4866C20.1679 19.229 20.0085 18.8731 20.0085 18.48C20.0085 18.087 20.1679 17.7311 20.4258 17.4735C20.6837 17.2159 21.0396 17.0565 21.433 17.0565C21.8264 17.0565 22.1823 17.2159 22.4402 17.4735C22.6978 17.7311 22.8574 18.087 22.8574 18.48V19.9318L21.4333 19.9032L21.433 19.9036Z" fill="var(--color-gray0)" stroke="#BD0505" stroke-width="1.5" stroke-linecap="round" stroke-linejoin="round" data-evernote-id="204" class="js-evernote-checked"></path><path d="M24.2816 19.9036C24.675 19.9036 25.0309 19.7442 25.2888 19.4866C25.5464 19.229 25.7061 18.8731 25.7061 18.48C25.7061 18.087 25.5467 17.7311 25.2888 17.4735C25.0312 17.2159 24.675 17.0565 24.2816 17.0565C23.8882 17.0565 23.5324 17.2159 23.2744 17.4735C23.0165 17.7311 22.8572 18.087 22.8572 18.48V19.9318L24.2813 19.9032L24.2816 19.9036Z" fill="var(--color-gray0)" stroke="#BD0505" stroke-width="1.5" stroke-linecap="round" stroke-linejoin="round" data-evernote-id="205" class="js-evernote-checked"></path><path d="M18.0491 24.7572H27.5666" stroke="var(--color-gray0)" stroke-width="1.35" stroke-linecap="round" stroke-linejoin="round" data-evernote-id="206" class="js-evernote-checked"></path><path d="M22.8076 21.2563V28.2584" stroke="var(--color-gray0)" stroke-width="1.35" stroke-linecap="round" stroke-linejoin="round" data-evernote-id="207" class="js-evernote-checked"></path></svg>