<svg data-evernote-id="96" class="js-evernote-checked" xmlns="http://www.w3.org/2000/svg"><symbol id="video-player__icon-forward" viewBox="0 0 72 72">
    <path d="M23.2519 58H31.1519V56.04H28.5919V43.64H26.4919C26.3919 44.48 26.0519 45 25.4519 45.34C24.8919 45.64 24.1319 45.84 23.0519 45.86V47.72H26.1519V56.04H23.2519V58ZM38.14 43.42C34.08 43.42 33.1 47 33.1 50.88C33.1 55.12 34.18 58.3 38.16 58.3C42.12 58.3 43.22 55.12 43.22 50.88C43.22 47 42.24 43.42 38.14 43.42ZM38.16 45.62C40.18 45.62 40.6 48 40.6 50.88C40.6 53.98 40.1 56.2 38.16 56.2C36.22 56.2 35.72 53.98 35.72 50.9C35.72 48 36.12 45.62 38.16 45.62Z" fill="white"></path>
    <path d="M13 37V10L35 23.502L13 37Z" fill="white"></path>
    <path d="M35 37V10L57 23.502L35 37Z" fill="white"></path>
  </symbol></svg>