<svg xmlns="http://www.w3.org/2000/svg" xmlns:xlink="http://www.w3.org/1999/xlink" data-evernote-id="97" class="js-evernote-checked">
    
  

    
  <symbol id="video-player__icon-enter-fullscreen" viewBox="0 0 24 24">
    <path fill="currentColor" d="m4,4l6,0l0,2l-4,0l0,4l-2,0l0,-6z"></path>
    <path fill="currentColor" d="m20,4l-6,0l0,2l4,0l0,4l2,0l0,-6z"></path>
    <path fill="currentColor" d="m10,20l-6,0l0,-6l2,0l0,4l4,0l0,2z"></path>
    <path fill="currentColor" d="m20,20l-6,0l0,-2l4,0l0,-4l2,0l0,6z"></path>
    <path stroke-opacity="0.15" stroke="black" d="m4,4l6,0l0,2l-4,0l0,4l-2,0l0,-6z"></path>
    <path stroke-opacity="0.15" stroke="black" d="m20,4l-6,0l0,2l4,0l0,4l2,0l0,-6z"></path>
    <path stroke-opacity="0.15" stroke="black" d="m10,20l-6,0l0,-6l2,0l0,4l4,0l0,2z"></path>
    <path stroke-opacity="0.15" stroke="black" d="m20,20l-6,0l0,-2l4,0l0,-4l2,0l0,6z"></path>
  </symbol>

    
  <symbol id="video-player__icon-exit-fullscreen" viewBox="0 0 24 24">
    <path fill="currentColor" d="m10,10l-6,0l0,-2l4,0l0,-4l2,0l0,6z"></path>
    <path fill="currentColor" d="m14,10l6,0l0,-2l-4,0l0,-4l-2,0l0,6z"></path>
    <path fill="currentColor" d="m4,14l6,0l0,6l-2,0l0,-4l-4,0l0,-2z"></path>
    <path fill="currentColor" d="m14,14l6,0l0,2l-4,0l0,4l-2,0l0,-6z"></path>
    <path stroke-opacity="0.15" stroke="black" d="m10,10l-6,0l0,-2l4,0l0,-4l2,0l0,6z"></path>
    <path stroke-opacity="0.15" stroke="black" d="m14,10l6,0l0,-2l-4,0l0,-4l-2,0l0,6z"></path>
    <path stroke-opacity="0.15" stroke="black" d="m4,14l6,0l0,6l-2,0l0,-4l-4,0l0,-2z"></path>
    <path stroke-opacity="0.15" stroke="black" d="m14,14l6,0l0,2l-4,0l0,4l-2,0l0,-6z"></path>
  </symbol>

    
  

    
  <symbol id="video-player__icon-muted" viewBox="0 0 24 24">
    <path fill-rule="evenodd" clip-rule="evenodd" d="M15 21L16 23H18.2417L7.25 1H5L7.90476 6.80952L6 8H1V16H6L14 21H15ZM8.73495 8.46989L13 17V18.1957L7 14.4457V9.55423L8.73495 8.46989ZM3 10V14H5V10H3Z" fill="currentColor"></path>
    <path d="M11.3386 4.66339L12.1683 6.32406L13 5.80423V7.98874L15 11.9917V3H14L11.3386 4.66339Z" fill="currentColor"></path>
    <path d="M17.9634 17.9231L17.0026 16C19.2106 15.9986 21 14.2083 21 12C21 9.79086 19.2091 8 17 8V6C20.3137 6 23 8.68629 23 12C23 14.9858 20.8191 17.4621 17.9634 17.9231Z" fill="currentColor"></path>
    <path d="M19 12C19 10.8954 18.1046 10 17 10V14C18.1046 14 19 13.1046 19 12Z" fill="currentColor"></path>
    <path fill-rule="evenodd" clip-rule="evenodd" d="M15 21L16 23H18.2417L7.25 1H5L7.90476 6.80952L6 8H1V16H6L14 21H15ZM8.73495 8.46989L13 17V18.1957L7 14.4457V9.55423L8.73495 8.46989ZM3 10V14H5V10H3Z" stroke="black" stroke-opacity="0.15"></path>
    <path d="M11.3386 4.66339L12.1683 6.32406L13 5.80423V7.98874L15 11.9917V3H14L11.3386 4.66339Z" stroke="black" stroke-opacity="0.15"></path>
    <path d="M17.9634 17.9231L17.0026 16C19.2106 15.9986 21 14.2083 21 12C21 9.79086 19.2091 8 17 8V6C20.3137 6 23 8.68629 23 12C23 14.9858 20.8191 17.4621 17.9634 17.9231Z" stroke="black" stroke-opacity="0.15"></path>
    <path d="M19 12C19 10.8954 18.1046 10 17 10V14C18.1046 14 19 13.1046 19 12Z" stroke="black" stroke-opacity="0.15"></path>
  </symbol>

    
  <symbol id="video-player__icon-pause" viewBox="0 0 72 72">
    <path d="M42.0469 16.042H54V57.9482H42.0469V16.042ZM18 57.9482V16.042H29.9531V57.9482H18Z"></path>
  </symbol>

    
  <symbol id="video-player__icon-replay" viewBox="0 0 72 72">
    <path d="M19.9587 31.6466C22.5091 25.0906 29.0569 19.8821 36.4712 19.8822C45.9757 19.8823 54.1177 27.9446 54.1178 37.5288C54.1179 47.1225 46.0033 55.1756 36.4712 55.1754C31.8366 55.1754 27.2731 53.2868 23.9932 50.0069L19.8338 54.1662C24.2174 58.5498 30.2773 61.0576 36.4712 61.0576C49.238 61.0578 60.0001 50.3851 60 37.5288C59.9999 24.6779 49.2063 14.0001 36.4712 14C27.6621 13.9999 19.9161 19.3001 15.8864 26.5302V14L9.99999 19.8822L9.99999 37.533L27.6508 37.5288L33.533 31.6466H19.9587Z"></path>
  </symbol>

    
  <symbol id="video-player__icon-play" viewBox="0 0 72 72">
    <path d="M24.2842 54.7435V17.2559L55.5238 36.0025L24.2842 54.7435Z"></path>
  </symbol>

    
  <symbol id="video-player__icon-settings" viewBox="0 0 24 24">
    <path stroke-opacity="0.15" stroke="black" fill="currentColor" d="m16.1918,6.39334c-0.9162,-0.68607 -2.0061,-1.15284 -3.1918,-1.32245l0,-2.07089l-2,0l0,2.07089c-1.18575,0.16961 -2.27564,0.63638 -3.19181,1.32245l-1.46429,-1.46429l-1.41421,1.41421l1.4642,1.4642c-0.68637,0.91632 -1.15335,2.00648 -1.323,3.19254l-2.07089,0l0,2l2.07089,0c0.16965,1.1861 0.63661,2.2762 1.32297,3.1925l-1.46432,1.4643l1.41421,1.4142l1.46441,-1.4644c0.91618,0.6861 2.00608,1.1529 3.19184,1.3225l0,2.0709l2,0l0,-2.0709c1.1858,-0.1696 2.2758,-0.6364 3.192,-1.3226l1.4645,1.4645l1.4142,-1.4142l-1.4645,-1.4644c0.6863,-0.9163 1.1533,-2.0064 1.3229,-3.1924l2.0709,0l0,-2l-2.0709,0c-0.1696,-1.18606 -0.6366,-2.27622 -1.323,-3.19254l1.4644,-1.46443l-1.4142,-1.41421l-1.4645,1.46452zm-4.1918,10.60666c2.7614,0 5,-2.2386 5,-5c0,-2.76142 -2.2386,-5 -5,-5c-2.76142,0 -5,2.23858 -5,5c0,2.7614 2.23858,5 5,5z" clip-rule="evenodd" fill-rule="evenodd"></path>
  </symbol>

    
  <symbol id="video-player__icon-volume" viewBox="0 0 24 24">
    <path fill="currentColor" d="m15,21l0,-18l-1,0l-8,5l-5,0l0,8l5,0l8,5l1,0zm-8,-6.5543l0,-4.89147l6,-3.75l0,12.39147l-6,-3.75zm-4,-4.4457l0,4l2,0l0,-4l-2,0z" clip-rule="evenodd" fill-rule="evenodd"></path>
    <path fill="currentColor" d="m17,8c2.2091,0 4,1.79086 4,4c0,2.2091 -1.7909,4 -4,4l0,2c3.3137,0 6,-2.6863 6,-6c0,-3.31371 -2.6863,-6 -6,-6l0,2z"></path>
    <path fill="currentColor" d="m19,12c0,-1.10457 -0.8954,-2 -2,-2l0,4c1.1046,0 2,-0.8954 2,-2z"></path>
    <path stroke-opacity="0.15" stroke="black" d="m15,21l0,-18l-1,0l-8,5l-5,0l0,8l5,0l8,5l1,0zm-8,-6.5543l0,-4.89147l6,-3.75l0,12.39147l-6,-3.75zm-4,-4.4457l0,4l2,0l0,-4l-2,0z" clip-rule="evenodd" fill-rule="evenodd"></path>
    <path stroke-opacity="0.15" stroke="black" d="m17,8c2.2091,0 4,1.79086 4,4c0,2.2091 -1.7909,4 -4,4l0,2c3.3137,0 6,-2.6863 6,-6c0,-3.31371 -2.6863,-6 -6,-6l0,2z"></path>
    <path stroke-opacity="0.15" stroke="black" d="m19,12c0,-1.10457 -0.8954,-2 -2,-2l0,4c1.1046,0 2,-0.8954 2,-2z"></path>
  </symbol>

    
  <symbol id="video-player__icon-lock" viewBox="0 0 21 26">
    <path d="M9.1875 15.6V20.8H11.8125V15.6H9.1875Z" fill="white"></path>
    <path fill-rule="evenodd" clip-rule="evenodd" d="M3.9375 6.5V10.4H0V26H21V10.4H17.0625V6.5C17.0625 2.91015 14.1244 0 10.5 0C6.87563 0 3.9375 2.91015 3.9375 6.5ZM10.5 2.6C8.32538 2.6 6.5625 4.34609 6.5625 6.5V10.4H14.4375V6.5C14.4375 4.34609 12.6746 2.6 10.5 2.6ZM2.625 13V23.4H18.375V13H2.625Z" fill="white"></path>
  </symbol>

  </svg>