<svg viewBox="0 0 32 24.89" xmlns="http://www.w3.org/2000/svg" xmlns:xlink="http://www.w3.org/1999/xlink"><linearGradient id="a" gradientTransform="matrix(32 0 0 -24.89 11377 9509.89)" gradientUnits="userSpaceOnUse" x1="-355.03" x2="-355.03" y1="382.09" y2="381.09"><stop offset="0" stop-color="#fbd249"/><stop offset="1" stop-color="#f5a623"/></linearGradient><path d="m26.13 18.77h-2.37a.52.52 0 0 1 -.41-.26l-2.35-4.15-.65.86v3a.52.52 0 0 1 -.51.51h-2.11a.55.55 0 0 1 -.55-.46v-11.6a.5.5 0 0 1 .5-.5h2.08a.5.5 0 0 1 .5.5v3.49l2.79-3.79a.45.45 0 0 1 .4-.2h2.55a.48.48 0 0 1 .41.76l-3.54 4.8 3.64 6.33a.47.47 0 0 1 -.41.71zm-11.38-.51a.51.51 0 0 1 -.5.51h-2.08a.52.52 0 0 1 -.51-.51v-4.26h-5.66a.55.55 0 0 1 -.56-.51v-6.87a.5.5 0 0 1 .51-.5h2.05a.5.5 0 0 1 .51.5v4.3h3.18v-4.3a.51.51 0 0 1 .51-.5h2.08a.5.5 0 0 1 .5.5zm-12.75-18.26h28a2 2 0 0 1 2 2v20.89a2 2 0 0 1 -2 2h-28a2 2 0 0 1 -2-2v-20.89a2 2 0 0 1 2-2z" fill="url(#a)" fill-rule="evenodd"/></svg>