<svg aria-hidden="true" focusable="false" class="Octicon-sc-9kayk9-0 js-evernote-checked" viewBox="0 0 16 16" fill="currentColor" style="display: inline-block; user-select: none; vertical-align: text-bottom; overflow: visible;" data-evernote-id="311" xmlns="http://www.w3.org/2000/svg"><path d="M.75 3h14.5a.75.75 0 0 1 0 1.5H.75a.75.75 0 0 1 0-1.5ZM3 7.75A.75.75 0 0 1 3.75 7h8.5a.75.75 0 0 1 0 1.5h-8.5A.75.75 0 0 1 3 7.75Zm3 4a.75.75 0 0 1 .75-.75h2.5a.75.75 0 0 1 0 1.5h-2.5a.75.75 0 0 1-.75-.75Z" data-evernote-id="3835" class="js-evernote-checked"></path></svg>