<svg viewBox="0 0 24 24" fill="currentColor" aria-hidden="true" class="x1lliihq x1heor9g xlup9mm x1kky2od js-evernote-checked" role="img" data-evernote-id="3457" xmlns="http://www.w3.org/2000/svg"><path d="M12.924 5.14c1.42-1.52 3.565-1.52 4.986 0 1.438 1.54 1.438 3.997 0 5.536l-2.007 2.138c-1.42 1.521-3.565 1.521-4.986 0a1 1 0 1 0-1.461 1.366c2.211 2.367 5.697 2.367 7.908 0l2.006-2.137c2.149-2.297 2.148-5.97.001-8.268-2.208-2.364-5.688-2.367-7.9-.01L8.582 6.71a1 1 0 0 0 1.426 1.401c.972-.989 1.97-1.957 2.917-2.97z"></path><path d="M8.23 11.91c1.427-1.4 3.618-1.399 5.045.001a1 1 0 0 0 1.4-1.427 5.556 5.556 0 0 0-7.847 0L4.66 12.623c-2.215 2.174-2.215 5.579 0 7.752a5.556 5.556 0 0 0 7.84.01l2.157-2.014a1 1 0 1 0-1.365-1.462l-2.172 2.027c-1.418 1.368-3.639 1.405-5.059.012-1.416-1.39-1.416-3.509 0-4.899L8.23 11.91z"></path></svg>