<svg viewBox="0 0 24 24" fill="currentColor" aria-hidden="true" class="x1lliihq x174y0p0 xxk0z11 xvy4d1p js-evernote-checked" role="img" data-evernote-id="3452" xmlns="http://www.w3.org/2000/svg"><path d="M17 18a1 1 0 1 0 0-2 1 1 0 0 0 0 2z"></path><path fill-rule="evenodd" clip-rule="evenodd" d="M3 14.02a.995.995 0 0 1 .023-.236l1.675-8.372A3 3 0 0 1 7.64 3h8.72a3 3 0 0 1 2.942 2.412l1.675 8.372a.987.987 0 0 1 .023.237V18a3 3 0 0 1-3 3H6a3 3 0 0 1-3-3v-3.98zM7.64 5a1 1 0 0 0-.981.804L5.219 13H18.78l-1.439-7.196a1 1 0 0 0-.98-.804H7.64zM5 15v3a1 1 0 0 0 1 1h12a1 1 0 0 0 1-1v-3H5z"></path></svg>