<svg viewBox="0 0 24 24" fill="currentColor" aria-hidden="true" class="x1lliihq x174y0p0 xxk0z11 xvy4d1p js-evernote-checked" role="img" data-evernote-id="3453" xmlns="http://www.w3.org/2000/svg"><path fill-rule="evenodd" clip-rule="evenodd" d="M5 3h10a1 1 0 0 1 1 1v12a1 1 0 0 1-1 1H5a1 1 0 0 1-1-1V4a1 1 0 0 1 1-1zM2 4a3 3 0 0 1 3-3h10a3 3 0 0 1 3 3v12a3 3 0 0 1-3 3H5a3 3 0 0 1-3-3V4zm5 2a1 1 0 0 0 0 2h6a1 1 0 1 0 0-2H7zm15 2a1 1 0 1 0-2 0v9a4 4 0 0 1-4 4H9a1 1 0 1 0 0 2h7a6 6 0 0 0 6-6V8zM6 11a1 1 0 0 1 1-1h4a1 1 0 1 1 0 2H7a1 1 0 0 1-1-1z"></path></svg>