<svg rpl="" class="ml-[0.375rem] col-start-2 text-neutral-content-weak js-evernote-checked" xmlns="http://www.w3.org/2000/svg" viewBox="0 0 20 20" icon-name="topic-reading-outline" fill="currentColor" data-evernote-id="729"><path d="M19.375 2h-7.292A2.688 2.688 0 0010 3a2.688 2.688 0 00-2.083-1H.625A.625.625 0 000 2.625v14.75A.625.625 0 00.625 18h7.917v-1.25H1.25V3.25h6.667a1.465 1.465 0 011.458 1.469v11.093h1.25V4.719a1.465 1.465 0 011.458-1.469h6.667v13.5h-6.667a2.64 2.64 0 00-2.708 2.625V20h1.25v-.625A1.388 1.388 0 0112.083 18h7.292a.624.624 0 00.625-.625V2.625A.625.625 0 0019.375 2z"></path></svg>