<svg rpl="" xmlns="http://www.w3.org/2000/svg" viewBox="0 0 20 20" icon-name="topic-sports-outline" fill="currentColor"><g clip-path="url(#clip0_1581_854)"><path d="M10 0a10 10 0 1010 10A10.011 10.011 0 0010 0zM4.124 16.465l1.259-3.007a9.906 9.906 0 00.261-6.964l-1.186.4a8.656 8.656 0 01-.228 6.087l-1.046 2.5a8.75 8.75 0 1113.632 0l-1.046-2.5a8.653 8.653 0 01-.228-6.086l-1.186-.4a9.906 9.906 0 00.261 6.964l1.259 3.007a8.7 8.7 0 01-11.752-.001z"></path></g><defs><clipPath id="clip0_1581_854"><path d="M0 0h20v20H0z"></path></clipPath></defs></svg>