<svg rpl="" class="ml-[0.375rem] col-start-2 text-neutral-content-weak js-evernote-checked" xmlns="http://www.w3.org/2000/svg" viewBox="0 0 20 20" icon-name="topic-careers-outline" fill="currentColor" data-evernote-id="730"><path d="M9.784 12.331a7 7 0 001.165.6l-6.174 6.178a2.747 2.747 0 01-3.883-3.884l6.18-6.181c.162.409.362.8.6 1.171l-5.897 5.894a1.5 1.5 0 000 2.116 1.533 1.533 0 002.118 0l5.891-5.894zm4.481-.309a5.7 5.7 0 004.671-3.953 5.372 5.372 0 00-.1-3.538 1.116 1.116 0 00-.813-.7 1.127 1.127 0 00-1.039.305L14.118 7A.807.807 0 0113 7a.79.79 0 010-1.116l2.864-2.863a1.127 1.127 0 00.3-1.04 1.112 1.112 0 00-.7-.812 5.363 5.363 0 00-3.539-.1 5.7 5.7 0 00-3.946 4.666 5.627 5.627 0 006.287 6.287zm.58-9.75L12.117 5a2.043 2.043 0 000 2.884 2.088 2.088 0 002.883 0l2.727-2.726c.271.825.276 1.714.013 2.542a4.432 4.432 0 01-3.628 3.079A4.377 4.377 0 019.22 5.887a4.429 4.429 0 014.342-3.822c.437 0 .87.07 1.284.207z"></path></svg>