<svg rpl="" class="ml-[0.375rem] col-start-2 text-neutral-content-weak js-evernote-checked" xmlns="http://www.w3.org/2000/svg" viewBox="0 0 20 20" icon-name="help-outline" fill="currentColor" data-evernote-id="725"><g clip-path="url(#clip0_474_80)"><path d="M10 20a10 10 0 1110-10 10.011 10.011 0 01-10 10zm0-18.75A8.75 8.75 0 1018.75 10 8.76 8.76 0 0010 1.25zm1.611 4.058a2.4 2.4 0 01.994.861c.241.375.366.812.359 1.258a2.04 2.04 0 01-.167.854c-.1.229-.238.439-.407.622-.2.208-.413.404-.636.588-.223.188-.4.348-.533.483a1.754 1.754 0 00-.328.464 1.326 1.326 0 00-.13.591v.78H9.328v-.759a2.216 2.216 0 01.601-1.572c.204-.21.421-.406.65-.588.209-.173.373-.316.492-.431a1.52 1.52 0 00.3-.4 1.154 1.154 0 00-.058-1.128 1.192 1.192 0 00-.485-.421 1.525 1.525 0 00-.677-.151 1.545 1.545 0 00-.721.168 1.3 1.3 0 00-.713 1.131H7.256a2.628 2.628 0 011.381-2.293A3.132 3.132 0 0110.175 5c.496-.008.987.097 1.436.308zm-2.164 9.843a1.088 1.088 0 01-.386-.385 1.034 1.034 0 01-.144-.537c-.002-.186.048-.37.144-.53.094-.16.227-.293.386-.387a1.03 1.03 0 01.53-.143 1.062 1.062 0 01.926 1.597c-.096.159-.23.291-.389.385a1.034 1.034 0 01-.537.144 1.021 1.021 0 01-.53-.144z"></path></g><defs><clipPath id="clip0_474_80"><path d="M0 0h20v20H0z"></path></clipPath></defs></svg>