<svg xmlns="http://www.w3.org/2000/svg" width="24" height="24" viewBox="0 0 24 24">
    <path fill="#A1A490" fill-rule="evenodd" d="M20 2a2 2 0 0 1 2 2v16a2 2 0 0 1-2 2H4a2 2 0 0 1-2-2V4a2 2 0 0 1 2-2h16zM7.47 13.47l-3 3a.75.75 0 0 0 1.06 1.06l3-3a.75.75 0 0 0-1.06-1.06zm8 0a.75.75 0 0 0-.073.976l.073.084 3 3a.75.75 0 0 0 1.133-.976l-.073-.084-3-3a.75.75 0 0 0-1.06 0zm3.042-7.04l-6.35 5.443a.25.25 0 0 1-.325 0L5.488 6.43a.75.75 0 0 0-.976 1.138l6.35 5.443a1.75 1.75 0 0 0 2.277 0l6.35-5.443a.75.75 0 1 0-.977-1.138z"/>
</svg>
