<?xml version="1.0" encoding="UTF-8" standalone="no"?><!DOCTYPE svg PUBLIC "-//W3C//DTD SVG 1.1//EN" "http://www.w3.org/Graphics/SVG/1.1/DTD/svg11.dtd"><svg width="100%" height="100%" viewBox="0 0 1109 217" version="1.1" xmlns="http://www.w3.org/2000/svg" xmlns:xlink="http://www.w3.org/1999/xlink" xml:space="preserve" xmlns:serif="http://www.serif.com/" style="fill-rule:evenodd;clip-rule:evenodd;stroke-linecap:square;stroke-miterlimit:1.5;"><g id="Logo-Tall-Unity"><g><g><path d="M273.506,106.052c-0,-2.162 -1.756,-3.918 -3.918,-3.918l-105.803,0c-2.162,0 -3.918,1.756 -3.918,3.918l0,18.227c0,2.162 1.756,3.917 3.918,3.917l105.803,-0c2.162,-0 3.918,-1.755 3.918,-3.917l-0,-18.227Z" style="fill:#fff;stroke:#000;stroke-width:1.09px;"/><path d="M214.106,108.415l-0,15.212" style="fill:none;stroke:#000;stroke-width:3.09px;stroke-linecap:butt;stroke-linejoin:round;"/><path d="M220.789,108.415l0,15.212" style="fill:none;stroke:#000;stroke-width:3.09px;stroke-linecap:butt;stroke-linejoin:round;"/><path d="M262.761,107.559l-0,15.212" style="fill:none;stroke:#000;stroke-width:3.09px;stroke-linecap:butt;stroke-linejoin:round;"/><path d="M198.367,102.134l0,26.062" style="fill:none;stroke:#000;stroke-width:0.83px;"/><path d="M237.629,102.134l-0,26.062" style="fill:none;stroke:#000;stroke-width:0.83px;"/><path d="M248.161,108.527l-0,13.258l12.615,-6.436l-12.615,-6.822" style="stroke:#000;stroke-width:1.09px;stroke-linecap:round;stroke-linejoin:round;"/><path d="M173.811,108.536l-0,13.258l12.614,-6.436l-12.614,-6.822" style="stroke:#000;stroke-width:1.09px;stroke-linecap:round;stroke-linejoin:round;"/></g><text id="The" x="155.564px" y="91.182px" style="font-family:'Cambria-Bold', 'Cambria', serif;font-weight:700;font-size:67.469px;fill:#fff;stroke:#2a2a2a;stroke-width:0.2px;stroke-linecap:butt;stroke-linejoin:round;stroke-miterlimit:2;">The</text></g><g><text id="Expertise" x="372.193px" y="172.194px" style="font-family:'Cambria-Italic', 'Cambria', serif;font-style:italic;font-size:58.333px;fill:#fff;stroke:#2a2a2a;stroke-width:0.2px;stroke-linecap:butt;stroke-linejoin:round;stroke-miterlimit:2;">Unit<tspan x="477.096px 503.927px 516.773px 548.304px 574.964px " y="172.194px 172.194px 172.194px 172.194px 172.194px ">y Per</tspan>fo<tspan x="645.346px " y="172.194px ">r</tspan>manc<tspan x="802.572px 829.232px " y="172.194px 172.194px ">e </tspan>Expertise</text><text id="GamedevGuru" x="286.614px" y="112.676px" style="font-family:'Cambria-Bold', 'Cambria', serif;font-weight:700;font-size:114.177px;fill:#fff;stroke:#2a2a2a;stroke-width:0.2px;stroke-linecap:butt;stroke-linejoin:round;stroke-miterlimit:2;">GameDe<tspan x="722.861px 783.462px " y="112.676px 112.676px ">v </tspan>Guru</text></g><g><clipPath id="_clip1"><rect id="ruben-bw.svg" x="0" y="0" width="149.523" height="216.667"/></clipPath><g clip-path="url(#_clip1)"><g id="Layer_2"><path d="M52.678,12.613c-0.32,8.526 -2.371,17.108 -0.883,25.511c0.889,5.026 3.01,9.741 5.114,14.393c2.021,4.476 4.041,8.951 6.059,13.423c0.629,1.391 1.382,2.906 2.799,3.477c2.066,0.832 4.259,-0.776 5.838,-2.348c5.534,-5.512 10.241,-12.587 10.203,-20.407c-0.023,-4.403 -1.555,-8.657 -3.301,-12.696c-1.768,-4.103 -3.773,-8.1 -6.005,-11.97c-0.534,-0.929 -1.108,-1.881 -1.979,-2.504c-0.976,-0.698 -2.211,-0.909 -3.4,-1.059c-5.897,-0.734 -11.876,-0.441 -17.673,0.866" style="fill:#fff;fill-rule:nonzero;"/><path d="M52.263,12.725c-0.196,5.004 -0.967,9.958 -1.284,14.953c-0.179,2.463 -0.179,4.936 -0,7.399c0.204,2.44 0.665,4.853 1.376,7.196c1.403,4.657 3.555,9.061 5.555,13.484l3.174,7.038c0.514,1.134 1.022,2.268 1.538,3.402c0.353,0.857 0.829,1.657 1.414,2.375c0.603,0.711 1.466,1.152 2.395,1.226c0.992,0.033 1.974,-0.204 2.842,-0.686c1.882,-0.976 3.359,-2.67 4.75,-4.228c2.79,-3.125 5.231,-6.636 6.729,-10.572c0.743,-1.924 1.215,-3.942 1.402,-5.996c0.167,-2.29 -0.028,-4.591 -0.577,-6.819c-0.583,-2.339 -1.361,-4.626 -2.326,-6.836c-0.94,-2.242 -1.962,-4.452 -3.047,-6.637c-1.085,-2.184 -2.222,-4.308 -3.462,-6.4c-0.523,-0.894 -1.117,-1.797 -2.003,-2.372c-0.886,-0.574 -1.965,-0.796 -3.004,-0.937c-4.855,-0.642 -9.777,-0.591 -14.618,0.152c-1.212,0.193 -2.417,0.42 -3.616,0.681c-0.086,0.021 -0.49,0.096 -0.493,0.223c-0.003,0.127 0.248,0.086 0.332,0.069c4.731,-1.062 9.589,-1.443 14.428,-1.131c1.191,0.078 2.386,0.184 3.566,0.363c1.045,0.159 2.104,0.427 2.94,1.103c0.837,0.675 1.38,1.647 1.908,2.571c0.588,1.027 1.166,2.064 1.731,3.11c2.205,4.135 4.282,8.423 5.817,12.858c0.785,2.175 1.304,4.436 1.547,6.735c0.188,2.111 0.043,4.239 -0.43,6.305c-0.915,3.999 -2.937,7.67 -5.402,10.919c-1.264,1.658 -2.64,3.228 -4.117,4.7c-1.354,1.357 -3.376,3.215 -5.425,2.188c-0.828,-0.416 -1.408,-1.172 -1.856,-1.963c-0.525,-0.92 -0.926,-1.913 -1.359,-2.885l-3.064,-6.778c-1.962,-4.343 -4.074,-8.657 -5.687,-13.15c-0.805,-2.186 -1.412,-4.44 -1.813,-6.734c-0.362,-2.365 -0.509,-4.757 -0.438,-7.148c0.084,-4.839 0.799,-9.638 1.192,-14.454c0.098,-1.183 0.171,-2.366 0.219,-3.549c-0,-0.109 -0.825,0 -0.834,0.225Z" style="fill:#fff;fill-rule:nonzero;"/><path d="M54.17,16.699c3.627,-1.238 6.297,-4.427 9.854,-5.844c2.309,-0.923 4.868,-1.038 7.356,-0.969c4.896,0.13 9.888,0.995 14.119,3.483c4.23,2.487 7.6,6.761 8.047,11.652" style="fill:#fff;fill-rule:nonzero;"/><path d="M54.24,16.961c2.885,-0.998 5.113,-3.073 7.646,-4.674c1.321,-0.858 2.788,-1.466 4.329,-1.795c1.713,-0.308 3.456,-0.414 5.193,-0.315c6.331,0.205 13.058,1.711 17.602,6.441c2.228,2.323 3.795,5.272 4.112,8.501c0.035,0.349 0.866,0.153 0.837,-0.225c-0.603,-6.138 -5.459,-10.882 -10.936,-13.13c-3.174,-1.295 -6.579,-1.887 -9.976,-2.095c-3.396,-0.207 -7.011,-0.181 -10.139,1.38c-3.085,1.541 -5.523,4.241 -8.816,5.387c-0.147,0.052 -0.401,0.173 -0.346,0.375c0.055,0.202 0.343,0.202 0.488,0.15l0.006,0Z" style="fill:#fff;fill-rule:nonzero;"/><path d="M89.458,19.558c0.59,4.392 1.079,8.795 1.465,13.21c0.979,11.182 1.267,22.637 -1.82,33.426c-1.308,4.562 -3.685,9.419 -8.169,10.965c-2.141,0.736 -4.49,0.595 -6.706,0.148c-11.848,-2.384 -20.525,-12.867 -25.24,-23.994c-1.775,-4.19 -3.151,-8.714 -2.635,-13.236c0.517,-4.521 3.316,-9.014 7.653,-10.388" style="fill:#fff;fill-rule:nonzero;"/><path d="M89.039,19.671c0.67,4.978 1.208,9.97 1.616,14.976c0.42,4.816 0.581,9.651 0.482,14.485c-0.099,4.783 -0.671,9.544 -1.705,14.214c-0.866,3.772 -2.02,7.754 -4.597,10.755c-1.144,1.398 -2.673,2.431 -4.398,2.969c-2.196,0.629 -4.55,0.338 -6.74,-0.173c-3.634,-0.888 -7.054,-2.495 -10.056,-4.727c-3.039,-2.264 -5.727,-4.965 -7.976,-8.016c-2.301,-3.08 -4.248,-6.408 -5.806,-9.923c-1.881,-4.201 -3.483,-8.807 -3.154,-13.476c0.257,-3.676 1.919,-7.502 5.001,-9.66c0.723,-0.512 1.519,-0.914 2.36,-1.192c0.127,-0.041 0.407,-0.15 0.358,-0.332c-0.049,-0.182 -0.358,-0.15 -0.476,-0.11c-3.656,1.181 -6.241,4.329 -7.41,7.895c-1.443,4.427 -0.516,9.234 1.024,13.499c1.399,3.866 3.239,7.558 5.483,11.002c2.132,3.325 4.717,6.336 7.681,8.946c2.864,2.52 6.178,4.478 9.768,5.771c3.933,1.379 8.63,2.178 12.408,-0.081c3.234,-1.942 5.067,-5.546 6.218,-9.009c1.518,-4.556 2.274,-9.395 2.643,-14.171c0.345,-4.928 0.354,-9.873 0.026,-14.803c-0.288,-5.116 -0.802,-10.226 -1.42,-15.313c-0.152,-1.252 -0.312,-2.503 -0.481,-3.751c-0.038,-0.289 -0.881,-0.101 -0.834,0.225l-0.015,-0Z" style="fill:#fff;fill-rule:nonzero;"/><path d="M81.88,34.543c1.584,-4.948 1.535,-10.277 -0.138,-15.195c-0.436,-1.273 -1.013,-2.551 -2.02,-3.431c-1.582,-1.371 -3.902,-1.495 -5.968,-1.155c-4.039,0.693 -7.643,2.886 -11.028,5.194c-1.348,0.921 -2.77,1.991 -3.203,3.564" style="fill:#fff;fill-rule:nonzero;"/><path d="M82.299,34.497c0.936,-2.94 1.308,-6.03 1.096,-9.107c-0.104,-1.525 -0.352,-3.038 -0.742,-4.516c-0.369,-1.394 -0.819,-2.839 -1.627,-4.04c-1.538,-2.308 -4.395,-2.689 -6.945,-2.308c-2.912,0.427 -5.665,1.662 -8.193,3.145c-1.416,0.831 -2.804,1.731 -4.135,2.695c-1.154,0.831 -2.247,1.841 -2.654,3.241c-0.084,0.288 0.753,0.167 0.834,-0.11c0.349,-1.198 1.249,-2.072 2.219,-2.808c1.079,-0.813 2.23,-1.549 3.379,-2.259c2.372,-1.466 4.905,-2.747 7.649,-3.324c2.447,-0.514 5.287,-0.375 6.9,1.803c0.81,1.094 1.246,2.45 1.615,3.751c1.301,4.57 1.221,9.425 -0.23,13.949c-0.09,0.289 0.747,0.168 0.834,-0.107l-0,-0.005Z" style="fill:#fff;fill-rule:nonzero;"/><path d="M35.709,32.832c-1.367,2.151 -2.102,4.644 -2.121,7.193" style="fill:#fff;fill-rule:nonzero;"/><path d="M35.313,32.811c-1.371,2.178 -2.114,4.693 -2.147,7.266c0,0.393 0.84,0.24 0.843,-0.086c0.024,-2.522 0.749,-4.989 2.095,-7.122c0.11,-0.176 -0.095,-0.288 -0.242,-0.288c-0.213,-0.021 -0.421,0.071 -0.549,0.242l0,-0.012Z" style="fill:#fff;fill-rule:nonzero;"/><path d="M38.274,44.065l0.029,6.236c-0,1.001 0.017,2.043 0.458,2.94c0.419,0.848 1.172,1.475 1.905,2.072l5.433,4.444c0.745,0.609 1.613,1.255 2.566,1.122c0.678,-0.095 1.238,-0.577 1.702,-1.076c1.433,-1.563 2.341,-3.536 2.597,-5.641" style="fill:#fff;fill-rule:nonzero;"/><path d="M37.844,44.175c-0,2.265 -0.017,4.536 0.035,6.801c0.023,0.993 0.15,1.979 0.715,2.822c0.566,0.843 1.359,1.414 2.112,2.02c1.755,1.443 3.486,2.914 5.275,4.308c0.721,0.563 1.541,1.045 2.487,0.949c0.947,-0.095 1.663,-0.632 2.274,-1.292c1.447,-1.579 2.366,-3.569 2.632,-5.694c0.034,-0.288 -0.799,-0.118 -0.831,0.125c-0.218,1.762 -0.894,3.436 -1.959,4.856c-0.453,0.597 -1.155,1.593 -1.997,1.607c-0.932,0 -1.772,-0.814 -2.441,-1.362l-4.88,-3.991c-0.692,-0.577 -1.443,-1.134 -1.925,-1.901c-0.481,-0.768 -0.597,-1.671 -0.623,-2.557c-0.072,-2.308 -0.029,-4.617 -0.04,-6.925c-0,-0.205 -0.837,-0.063 -0.834,0.222l-0,0.012Z" style="fill:#fff;fill-rule:nonzero;"/><path d="M41.361,55.342c0.905,3.209 3.707,5.542 7.027,5.852" style="fill:#fff;fill-rule:nonzero;"/><path d="M40.943,55.454c0.954,3.316 3.861,5.72 7.297,6.034c0.215,0.029 0.428,-0.069 0.546,-0.251c0.078,-0.185 -0.072,-0.323 -0.251,-0.338c-3.197,-0.319 -5.887,-2.576 -6.755,-5.67c-0.101,-0.372 -0.938,-0.15 -0.837,0.225Z" style="fill:#fff;fill-rule:nonzero;"/><path d="M49.187,67.236c0.866,4.937 -0.052,9.987 -0.289,15.005c-0.623,13.524 3.691,26.72 5.988,40.066c0.791,4.579 1.35,9.233 2.767,13.651c1.417,4.418 3.8,8.697 7.54,11.459c0.413,0.288 0.886,0.597 1.394,0.542c0.402,-0.085 0.772,-0.285 1.062,-0.577c5.583,-4.617 8.503,-11.707 10.278,-18.733c4.591,-18.179 2.43,-38.686 -8.841,-53.671" style="fill:#fff;fill-rule:nonzero;"/><path d="M48.769,67.349c0.516,3.05 0.383,6.149 0.144,9.233c-0.234,2.995 -0.511,5.982 -0.485,8.992c0.052,5.961 0.967,11.874 2.121,17.711c1.154,5.884 2.577,11.715 3.656,17.616c1.044,5.714 1.578,11.612 3.708,17.06c0.887,2.339 2.126,4.529 3.673,6.495c0.778,0.967 1.653,1.852 2.612,2.64c0.49,0.398 1.021,0.866 1.65,1.022c0.574,0.118 1.171,-0.001 1.656,-0.329c1.016,-0.635 1.916,-1.605 2.724,-2.479c0.839,-0.909 1.611,-1.878 2.309,-2.9c1.402,-2.071 2.574,-4.289 3.497,-6.614c1.896,-4.668 3.062,-9.66 3.792,-14.638c0.736,-4.982 0.951,-10.027 0.64,-15.054c-0.299,-5.028 -1.192,-10.004 -2.66,-14.823c-1.457,-4.766 -3.562,-9.31 -6.256,-13.504c-0.652,-1.008 -1.337,-1.991 -2.055,-2.949c-0.144,-0.191 -0.949,0.084 -0.782,0.309c2.935,3.936 5.306,8.263 7.044,12.855c1.729,4.581 2.901,9.353 3.492,14.214c0.611,4.954 0.692,9.959 0.242,14.93c-0.428,4.923 -1.361,9.79 -2.785,14.523c-1.428,4.709 -3.462,9.346 -6.726,13.091c-0.808,0.939 -1.694,1.808 -2.649,2.597c-0.334,0.289 -0.614,0.491 -1.065,0.312c-0.334,-0.158 -0.645,-0.36 -0.926,-0.6c-0.476,-0.365 -0.932,-0.756 -1.365,-1.172c-1.772,-1.739 -3.224,-3.778 -4.288,-6.022c-2.47,-5.05 -3.226,-10.676 -4.123,-16.173c-0.949,-5.792 -2.271,-11.505 -3.483,-17.244c-1.212,-5.74 -2.285,-11.462 -2.672,-17.293c-0.195,-2.954 -0.186,-5.918 0.026,-8.871c0.211,-2.937 0.548,-5.872 0.528,-8.818c-0.002,-1.456 -0.122,-2.909 -0.358,-4.345c-0.037,-0.228 -0.865,-0.038 -0.836,0.225l-0,0.003Z" style="fill:#fff;fill-rule:nonzero;"/><path d="M135.557,180.574c0.219,-3.572 -1.203,-7.147 -3.546,-9.857c-2.343,-2.709 -5.543,-4.588 -8.946,-5.704" style="fill:#fff;fill-rule:nonzero;"/><path d="M135.972,180.519c0.13,-2.852 -0.629,-5.676 -2.172,-8.079c-1.525,-2.354 -3.596,-4.305 -6.037,-5.687c-1.383,-0.801 -2.846,-1.454 -4.366,-1.948c-0.195,-0.055 -0.404,-0.026 -0.577,0.081c-0.089,0.054 -0.271,0.248 -0.075,0.314c5.229,1.731 10.01,5.341 11.773,10.734c0.501,1.508 0.716,3.097 0.635,4.684c-0.02,0.329 0.819,0.161 0.834,-0.11l-0.015,0.011Z" style="fill:#fff;fill-rule:nonzero;"/><path d="M140.211,174.14c-1.739,-2.124 -4.267,-3.456 -7.003,-3.688" style="fill:#fff;fill-rule:nonzero;"/><path d="M140.595,173.955c-1.804,-2.191 -4.416,-3.566 -7.243,-3.812c-0.215,-0.032 -0.43,0.07 -0.542,0.257c-0.078,0.185 0.069,0.335 0.254,0.349c2.648,0.23 5.095,1.52 6.781,3.575c0.239,0.289 1.036,-0.04 0.765,-0.369l-0.015,-0Z" style="fill:#fff;fill-rule:nonzero;"/><path d="M138.728,174.78c-2.115,-3.373 -6.296,-4.752 -9.251,-7.419c-1.887,-1.702 -3.237,-3.898 -4.617,-6.033c-4.38,-6.825 -9.955,-13.851 -17.89,-15.452" style="fill:#fff;fill-rule:nonzero;"/><path d="M139.147,174.67c-1.489,-2.34 -3.925,-3.751 -6.201,-5.193c-1.195,-0.727 -2.317,-1.567 -3.351,-2.508c-1.169,-1.165 -2.205,-2.457 -3.087,-3.852c-1.619,-2.441 -3.174,-4.906 -4.966,-7.237c-1.72,-2.274 -3.706,-4.335 -5.915,-6.138c-2.422,-1.973 -5.272,-3.351 -8.322,-4.022c-0.199,-0.026 -0.4,0.011 -0.577,0.104c-0.067,0.034 -0.289,0.187 -0.101,0.228c5.58,1.154 10.009,5.012 13.507,9.323c1.804,2.301 3.483,4.697 5.029,7.179c0.829,1.34 1.761,2.614 2.788,3.809c0.968,1.058 2.064,1.992 3.263,2.779c2.516,1.699 5.422,3.119 7.102,5.771c0.135,0.211 0.908,-0.11 0.836,-0.225l-0.005,-0.018Z" style="fill:#fff;fill-rule:nonzero;"/><path d="M138.168,172.723c1.325,3.229 6.735,2.418 8.657,5.341c0.649,0.993 0.75,2.236 0.831,3.422l0.398,5.8c0.093,1.336 0.179,2.71 -0.239,3.979c-0.423,1.138 -1.105,2.161 -1.991,2.99c-1.936,1.895 -4.258,3.35 -6.807,4.267c-2.92,1.094 -6.025,1.602 -9.124,1.925c-30.222,3.154 -59.819,-10.721 -76.727,-35.968c-1.76,-2.629 -3.399,-5.439 -3.947,-8.556c-0.964,-5.445 1.61,-11.034 5.427,-15.034c3.818,-3.999 8.767,-6.697 13.629,-9.331" style="fill:#fff;fill-rule:nonzero;"/><path d="M137.75,172.835c1.645,3.829 7.791,2.202 9.115,6.348c0.453,1.443 0.404,3.05 0.508,4.537c0.113,1.647 0.289,3.303 0.321,4.954c0.043,1.604 -0.289,3.067 -1.244,4.375c-0.91,1.174 -2.004,2.194 -3.241,3.018c-5.13,3.558 -11.735,4.181 -17.8,4.469c-18.086,0.876 -35.958,-4.3 -50.777,-14.704c-4.544,-3.191 -8.755,-6.83 -12.57,-10.864c-1.914,-2.023 -3.724,-4.141 -5.422,-6.348c-1.761,-2.227 -3.363,-4.575 -4.793,-7.027c-1.46,-2.579 -2.496,-5.413 -2.418,-8.414c0.122,-2.794 0.928,-5.515 2.349,-7.924c2.943,-5.142 7.898,-8.564 12.927,-11.45c1.267,-0.724 2.551,-1.419 3.832,-2.115c0.15,-0.08 0.208,-0.233 0.067,-0.346c-0.142,-0.112 -0.453,0 -0.592,0.072c-5.237,2.837 -10.676,5.771 -14.598,10.388c-3.633,4.271 -5.878,10.076 -4.285,15.657c0.831,2.912 2.493,5.512 4.193,7.987c1.612,2.339 3.346,4.592 5.194,6.75c15.735,18.427 38.812,29.019 63.043,28.936c3.141,-0.009 6.278,-0.202 9.396,-0.577c3.202,-0.387 6.414,-1.025 9.378,-2.329c2.568,-1.128 5.087,-2.776 6.812,-5.021c0.916,-1.188 1.409,-2.649 1.403,-4.149c0.02,-1.628 -0.171,-3.27 -0.289,-4.891c-0.118,-1.622 -0.078,-3.27 -0.447,-4.825c-0.241,-1.069 -0.88,-2.009 -1.786,-2.626c-1.654,-1.154 -3.751,-1.339 -5.512,-2.227c-0.848,-0.377 -1.532,-1.049 -1.924,-1.89c-0.133,-0.303 -0.958,-0.052 -0.837,0.225l-0.003,0.011Z" style="fill:#fff;fill-rule:nonzero;"/><path d="M136.094,171.289c-0.367,-5.442 -5.165,-9.43 -7.358,-14.428c-1.521,-3.463 -1.766,-7.41 -3.463,-10.786c-1.281,-2.522 -3.307,-4.58 -5.367,-6.519c-8.377,-7.869 -17.865,-14.465 -28.16,-19.575c-3.538,-1.755 -7.214,-3.347 -11.118,-3.953c-3.904,-0.606 -8.08,-0.156 -11.43,1.942" style="fill:#fff;fill-rule:nonzero;"/><path d="M136.501,171.176c-0.41,-5.635 -5.235,-9.522 -7.382,-14.482c-1.272,-2.926 -1.636,-6.138 -2.752,-9.116c-1.117,-2.978 -3.175,-5.37 -5.457,-7.557c-4.634,-4.436 -9.632,-8.475 -14.941,-12.076c-5.325,-3.678 -10.972,-6.865 -16.872,-9.522c-2.998,-1.322 -6.146,-2.392 -9.424,-2.71c-2.995,-0.325 -6.024,0.093 -8.819,1.218c-0.69,0.292 -1.357,0.637 -1.993,1.033c-0.145,0.089 -0.096,0.153 0.046,0.173c0.208,0.008 0.415,-0.047 0.591,-0.159c5.535,-3.434 12.451,-1.973 18.081,0.407c2.942,1.274 5.814,2.706 8.602,4.288c2.751,1.529 5.435,3.165 8.053,4.905c5.201,3.466 10.117,7.342 14.699,11.592c2.268,2.103 4.565,4.328 5.956,7.124c1.391,2.796 1.795,5.953 2.756,8.905c0.865,2.689 2.421,4.995 4.011,7.309c1.492,2.17 3.041,4.412 3.705,6.997c0.16,0.619 0.264,1.25 0.309,1.888c-0,0.141 0.865,-0 0.836,-0.226l-0.005,0.009Z" style="fill:#fff;fill-rule:nonzero;"/><path d="M137.306,175.845c-1.841,-2.675 -1.599,-6.291 -3.024,-9.205c-1.227,-2.51 -3.561,-4.268 -5.826,-5.904c-15.864,-11.455 -32.461,-21.859 -49.684,-31.146c-1.59,-0.866 -3.477,-1.732 -5.13,-0.993c-0.952,0.418 -1.613,1.293 -2.196,2.156c-3.287,4.873 -5.402,11.152 -3.264,16.629c1.299,3.33 3.988,5.91 6.77,8.154c8.242,6.643 17.888,11.324 28.206,13.689c3.59,0.82 7.465,1.331 10.861,-0.095c2.687,-1.131 5.102,-3.462 8.008,-3.191" style="fill:#fff;fill-rule:nonzero;"/><path d="M137.687,175.646c-1.42,-2.098 -1.582,-4.704 -2.24,-7.087c-0.312,-1.197 -0.826,-2.333 -1.517,-3.359c-0.731,-1.012 -1.588,-1.927 -2.551,-2.721c-2.107,-1.795 -4.453,-3.338 -6.715,-4.931c-2.416,-1.707 -4.849,-3.387 -7.297,-5.041c-4.9,-3.311 -9.864,-6.525 -14.893,-9.641c-5.028,-3.116 -10.115,-6.131 -15.259,-9.043c-2.573,-1.456 -5.161,-2.889 -7.762,-4.297c-1.154,-0.626 -2.357,-1.281 -3.679,-1.477c-1.282,-0.212 -2.591,0.203 -3.517,1.114c-0.892,0.865 -1.55,1.988 -2.173,3.05c-0.679,1.148 -1.269,2.347 -1.763,3.586c-0.932,2.355 -1.515,4.906 -1.414,7.439c0.1,2.526 0.914,4.972 2.349,7.053c1.443,2.109 3.356,3.852 5.329,5.447c8.388,6.77 18.225,11.515 28.743,13.865c2.704,0.601 5.523,0.999 8.276,0.529c1.303,-0.227 2.561,-0.663 3.725,-1.29c1.082,-0.577 2.107,-1.244 3.203,-1.786c1.045,-0.517 2.17,-0.904 3.353,-0.808c0.217,0.032 0.434,-0.072 0.543,-0.263c0.008,-0.027 0.012,-0.056 0.012,-0.084c0,-0.152 -0.12,-0.28 -0.272,-0.288c-2.456,-0.196 -4.522,1.192 -6.562,2.349c-1.102,0.656 -2.298,1.143 -3.546,1.442c-1.328,0.274 -2.688,0.358 -4.04,0.249c-2.689,-0.185 -5.35,-0.846 -7.938,-1.576c-7.609,-2.138 -14.798,-5.559 -21.258,-10.114c-2.119,-1.46 -4.128,-3.072 -6.013,-4.824c-1.806,-1.732 -3.428,-3.737 -4.297,-6.103c-1.78,-4.854 -0.231,-10.201 2.251,-14.509c0.618,-1.07 1.284,-2.268 2.207,-3.11c1.025,-0.932 2.309,-0.909 3.555,-0.474c1.328,0.465 2.554,1.221 3.783,1.893c1.23,0.673 2.514,1.377 3.766,2.075c5.054,2.824 10.043,5.739 14.967,8.746c4.925,3.007 9.799,6.109 14.621,9.306c4.81,3.193 9.559,6.481 14.249,9.863c2.003,1.442 4.086,2.937 5.445,5.046c1.359,2.11 1.561,4.617 2.193,6.972c0.276,1.132 0.739,2.21 1.371,3.188c0.222,0.329 1.016,0 0.765,-0.378l-0,-0.008Z" style="fill:#fff;fill-rule:nonzero;"/><path d="M90.955,145.374c4.335,-2.895 7.033,-7.696 7.249,-12.905c0.052,-1.54 -0.139,-3.139 -0.909,-4.472c-1.114,-1.922 -3.232,-2.998 -5.275,-3.87c-5.804,-2.466 -11.922,-4.116 -18.179,-4.905c-1.264,-0.159 -2.597,-0.289 -3.771,0.193c-1.717,0.684 -2.75,2.441 -3.362,4.181c-1.792,5.234 -0.937,11.024 2.291,15.516" style="fill:#fff;fill-rule:nonzero;"/><path d="M91.273,145.376c3.701,-2.459 6.259,-6.31 7.092,-10.676c0.419,-2.248 0.514,-4.882 -0.71,-6.908c-1.154,-1.913 -3.257,-2.955 -5.24,-3.8c-4.948,-2.108 -10.128,-3.625 -15.432,-4.519c-1.289,-0.219 -2.597,-0.43 -3.898,-0.528c-1.212,-0.136 -2.438,0.054 -3.552,0.548c-1.959,0.952 -2.952,3.056 -3.526,5.05c-1.256,4.449 -0.67,9.222 1.624,13.236c0.289,0.496 0.603,0.978 0.941,1.443c0.141,0.193 0.892,-0.15 0.837,-0.225c-2.574,-3.589 -3.667,-8.035 -3.05,-12.408c0.288,-2.063 0.926,-4.36 2.334,-5.959c0.729,-0.877 1.809,-1.388 2.949,-1.397c1.271,0.028 2.538,0.164 3.786,0.407c5.101,0.791 10.096,2.161 14.887,4.083c2.002,0.803 4.169,1.645 5.693,3.232c1.653,1.732 1.927,4.167 1.731,6.449c-0.406,4.298 -2.501,8.263 -5.823,11.02c-0.408,0.336 -0.834,0.65 -1.275,0.941c-0.139,0.092 -0.101,0.147 0.043,0.167c0.204,0.007 0.405,-0.048 0.577,-0.158l0.012,0.002Z" style="fill:#fff;fill-rule:nonzero;"/><path d="M134.042,164.767c0.322,-0.357 0.474,-0.838 0.416,-1.315c-0.113,-0.901 -0.915,-1.538 -1.68,-2.02c-0.528,-0.375 -1.121,-0.65 -1.748,-0.811c-0.935,-0.191 -1.902,0.081 -2.773,0.467c-0.872,0.387 -1.688,0.895 -2.597,1.215" style="fill:#fff;fill-rule:nonzero;"/><path d="M134.429,164.767c1.52,-1.8 -0.987,-3.578 -2.488,-4.172c-2.328,-0.924 -4.357,0.782 -6.431,1.546c-0.122,0.044 -0.321,0.165 -0.228,0.312c0.092,0.147 0.441,0.038 0.548,0c1.769,-0.649 3.584,-2.268 5.552,-1.422c1.289,0.551 3.63,2.132 2.273,3.751c-0.129,0.153 0.113,0.219 0.22,0.222c0.207,0.008 0.409,-0.073 0.554,-0.222l-0,-0.015Z" style="fill:#fff;fill-rule:nonzero;"/><path d="M130.931,167.947c0.468,0.312 1.155,0.133 1.536,-0.268c0.367,-0.431 0.607,-0.955 0.692,-1.515c0.214,-0.97 0.173,-2.208 -0.701,-2.675" style="fill:#fff;fill-rule:nonzero;"/><path d="M130.611,168.178c0.623,0.329 1.383,0.265 1.942,-0.162c0.519,-0.426 0.869,-1.024 0.987,-1.685c0.257,-1.027 0.312,-2.473 -0.753,-3.073c-0.194,-0.094 -0.425,-0.071 -0.597,0.058c-0.127,0.092 -0.234,0.303 -0.052,0.404c0.79,0.447 0.782,1.526 0.64,2.308c-0.062,0.496 -0.238,0.971 -0.513,1.388c-0.243,0.312 -0.632,0.531 -1.005,0.289c-0.194,-0.094 -0.424,-0.072 -0.597,0.058c-0.133,0.095 -0.228,0.288 -0.052,0.406l0,0.009Z" style="fill:#fff;fill-rule:nonzero;"/><path d="M128.972,154.87c0.762,-1.379 0.834,-3.056 0.522,-4.6c-0.311,-1.543 -0.981,-2.989 -1.644,-4.417c-1.256,-2.701 -2.519,-5.422 -4.277,-7.823" style="fill:#fff;fill-rule:nonzero;"/><path d="M129.362,154.87c1.134,-2.115 0.77,-4.571 -0.044,-6.726c-0.441,-1.169 -0.992,-2.309 -1.523,-3.431c-0.531,-1.123 -1.071,-2.257 -1.662,-3.359c-0.64,-1.217 -1.361,-2.389 -2.159,-3.509c-0.17,-0.236 -0.981,0.049 -0.776,0.332c1.366,1.959 2.546,4.042 3.523,6.221c1.005,2.124 2.205,4.329 2.485,6.689c0.185,1.283 -0.028,2.592 -0.609,3.751c-0.193,0.358 0.644,0.289 0.779,0.029l-0.014,0.003Z" style="fill:#fff;fill-rule:nonzero;"/><path d="M126.635,156.991c0.475,-0.297 0.854,-0.726 1.088,-1.235c1.032,-1.964 1.24,-4.26 0.577,-6.377c-0.785,-2.479 -2.692,-4.456 -3.65,-6.874c-0.37,-0.94 -0.592,-1.927 -0.866,-2.885c-0.817,-2.857 -2.115,-5.555 -3.036,-8.383c-0.808,-2.484 -1.324,-5.072 -2.441,-7.433c-1.604,-3.39 -4.328,-6.094 -7.006,-8.723c-0.39,-0.436 -0.861,-0.792 -1.388,-1.047c-1.105,-0.45 -2.352,0.031 -3.416,0.577c-4.772,2.426 -8.831,6.054 -11.773,10.526" style="fill:#fff;fill-rule:nonzero;"/><path d="M126.886,157.083c0.897,-0.514 1.382,-1.506 1.731,-2.444c0.377,-1.051 0.544,-2.166 0.491,-3.281c-0.101,-2.262 -1.238,-4.138 -2.413,-6.005c-0.612,-0.919 -1.141,-1.892 -1.581,-2.905c-0.47,-1.155 -0.715,-2.404 -1.088,-3.602c-0.744,-2.389 -1.783,-4.671 -2.597,-7.032c-0.802,-2.308 -1.298,-4.706 -2.184,-6.98c-0.865,-2.119 -2.077,-4.079 -3.587,-5.8c-0.736,-0.865 -1.518,-1.693 -2.308,-2.504c-0.407,-0.413 -0.82,-0.82 -1.232,-1.227c-0.368,-0.391 -0.763,-0.756 -1.183,-1.09c-1.89,-1.394 -4.329,0.049 -6.06,1.038c-3.745,2.151 -7.005,5.053 -9.574,8.524c-0.327,0.441 -0.64,0.891 -0.938,1.351c-0.188,0.288 0.638,0.182 0.768,-0.018c2.275,-3.455 5.226,-6.415 8.673,-8.702c0.873,-0.577 1.775,-1.107 2.704,-1.587c0.967,-0.502 2.121,-1.074 3.197,-0.578c0.462,0.254 0.877,0.582 1.23,0.973l1.154,1.131c0.776,0.776 1.541,1.564 2.271,2.383c1.49,1.607 2.728,3.429 3.673,5.405c0.961,2.121 1.466,4.406 2.15,6.622c0.695,2.26 1.65,4.427 2.458,6.637c0.41,1.131 0.751,2.277 1.065,3.437c0.278,1.076 0.679,2.117 1.195,3.102c0.995,1.829 2.351,3.486 3.001,5.482c0.664,2.078 0.478,4.336 -0.517,6.276c-0.206,0.481 -0.545,0.893 -0.978,1.186c-0.118,0.07 -0.24,0.182 -0.087,0.289c0.153,0.107 0.459,-0.017 0.577,-0.09l-0.011,0.009Z" style="fill:#fff;fill-rule:nonzero;"/><path d="M116.654,125.091c0.782,-0.984 0.952,-2.36 0.663,-3.584c-0.335,-1.218 -0.953,-2.34 -1.803,-3.275c-1.443,-1.717 -3.287,-3.073 -5.102,-4.415c-0.917,-0.678 -1.849,-1.365 -2.911,-1.78c-1.394,-0.543 -2.929,-0.577 -4.424,-0.519c-4.027,0.195 -7.977,1.175 -11.628,2.885c-3.622,1.7 -7.05,4.285 -8.605,7.97" style="fill:#fff;fill-rule:nonzero;"/><path d="M117.049,125.1c0.883,-1.154 1.013,-2.695 0.597,-4.057c-0.447,-1.475 -1.442,-2.736 -2.51,-3.821c-1.156,-1.131 -2.397,-2.171 -3.714,-3.11c-1.255,-0.938 -2.516,-1.951 -4.039,-2.433c-1.582,-0.502 -3.276,-0.464 -4.906,-0.352c-1.67,0.117 -3.327,0.367 -4.957,0.747c-3.102,0.695 -6.071,1.885 -8.792,3.527c-2.675,1.647 -5.047,3.889 -6.3,6.818c-0.075,0.179 0.289,0.188 0.361,0.179c0.198,-0.008 0.378,-0.117 0.476,-0.289c2.216,-5.194 7.927,-8.079 13.083,-9.499c1.514,-0.419 3.057,-0.72 4.617,-0.9c1.558,-0.179 3.192,-0.315 4.75,-0.058c1.558,0.257 2.885,1.071 4.149,2.02c1.215,0.895 2.436,1.792 3.561,2.802c1.229,1.105 2.447,2.381 3.119,3.916c0.632,1.442 0.71,3.194 -0.288,4.495c-0.124,0.162 0.103,0.24 0.225,0.246c0.208,0.012 0.412,-0.072 0.551,-0.228l0.017,-0.003Z" style="fill:#fff;fill-rule:nonzero;"/><path d="M108.848,113.37c-0.709,-1.509 -1.468,-3.079 -2.787,-4.097c-0.845,-0.655 -1.867,-1.039 -2.886,-1.397c-5.173,-1.841 -10.468,-3.319 -15.847,-4.424c-0.866,-0.178 -1.829,-0.343 -2.649,0.032c-0.61,0.332 -1.117,0.826 -1.463,1.429c-0.883,1.403 -1.599,2.905 -2.132,4.475c-1.624,4.441 -2.661,9.075 -3.085,13.784" style="fill:#fff;fill-rule:nonzero;"/><path d="M109.258,113.258c-0.606,-1.287 -1.238,-2.612 -2.251,-3.636c-1.093,-1.103 -2.579,-1.599 -4.01,-2.101c-3.221,-1.131 -6.491,-2.12 -9.811,-2.966c-1.676,-0.427 -3.361,-0.819 -5.056,-1.175c-1.443,-0.288 -3.012,-0.594 -4.273,0.375c-0.516,0.439 -0.949,0.966 -1.281,1.556c-0.436,0.706 -0.821,1.442 -1.155,2.201c-0.64,1.518 -1.192,3.071 -1.653,4.652c-1.108,3.62 -1.838,7.345 -2.179,11.115c0,0.141 0.811,0.046 0.834,-0.222c0.298,-3.199 0.877,-6.365 1.732,-9.462c0.417,-1.539 0.898,-3.048 1.442,-4.527c0.506,-1.442 1.17,-2.823 1.98,-4.118c0.358,-0.551 0.834,-1.252 1.5,-1.443c0.736,-0.216 1.61,0.049 2.335,0.202c1.558,0.325 3.108,0.682 4.651,1.071c3.111,0.781 6.189,1.688 9.234,2.721c1.573,0.537 3.333,0.995 4.617,2.101c1.192,1.027 1.878,2.484 2.539,3.881c0.104,0.222 0.915,-0.058 0.834,-0.225l-0.029,-0Z" style="fill:#fff;fill-rule:nonzero;"/><path d="M86.869,104.826c-0.344,-1.226 -0.572,-2.482 -0.681,-3.751c0.006,-0.513 -0.051,-1.025 -0.17,-1.524c-0.129,-0.506 -0.512,-0.909 -1.01,-1.065c-0.47,-0.073 -0.946,0.09 -1.272,0.436c-0.32,0.345 -0.58,0.739 -0.771,1.169c-0.978,1.916 -1.962,3.846 -2.556,5.912" style="fill:#fff;fill-rule:nonzero;"/><path d="M87.288,104.713c-0.337,-1.196 -0.563,-2.421 -0.676,-3.658c-0.054,-0.973 -0.043,-2.147 -1.001,-2.707c-0.886,-0.514 -1.939,-0 -2.496,0.75c-0.304,0.449 -0.571,0.923 -0.796,1.417c-0.274,0.542 -0.549,1.082 -0.808,1.63c-0.605,1.226 -1.109,2.499 -1.506,3.806c-0.139,0.479 0.692,0.502 0.805,0.119c0.39,-1.288 0.884,-2.543 1.477,-3.752c0.268,-0.577 0.551,-1.128 0.837,-1.688c0.285,-0.559 0.513,-1.154 0.972,-1.569c0.459,-0.416 0.99,-0.289 1.322,0.216c0.332,0.505 0.311,1.125 0.34,1.7c0.104,1.344 0.34,2.675 0.704,3.973c0.101,0.41 0.938,0.19 0.837,-0.225l-0.011,-0.012Z" style="fill:#fff;fill-rule:nonzero;"/><path d="M79.214,96.536c0.228,-1.283 0.282,-2.59 0.161,-3.887c-0.104,-0.686 -0.143,-1.381 -0.115,-2.075c0.113,-1.174 0.742,-2.334 0.456,-3.477c-0.239,-0.795 -0.803,-1.454 -1.552,-1.812c-0.746,-0.348 -1.547,-0.561 -2.367,-0.629c-1.326,-0.164 -2.665,-0.205 -3.999,-0.124" style="fill:#fff;fill-rule:nonzero;"/><path d="M79.629,96.472c0.226,-1.276 0.283,-2.576 0.171,-3.866c-0.106,-0.693 -0.148,-1.395 -0.124,-2.095c0.085,-0.592 0.211,-1.177 0.375,-1.752c0.257,-1.096 0.199,-2.158 -0.632,-2.995c-0.831,-0.837 -1.942,-1.105 -3.036,-1.264c-1.461,-0.202 -2.939,-0.259 -4.412,-0.17c-0.159,-0 -0.47,0.055 -0.557,0.213c-0.086,0.159 0.072,0.197 0.214,0.188c1.234,-0.073 2.473,-0.04 3.702,0.098c1.128,0.127 2.323,0.338 3.188,1.128c0.866,0.791 0.958,1.833 0.705,2.929c-0.157,0.555 -0.282,1.119 -0.373,1.688c-0.042,0.568 -0.024,1.139 0.055,1.703c0.17,1.44 0.134,2.898 -0.107,4.328c-0.043,0.257 0.791,0.113 0.831,-0.13l0,-0.003Z" style="fill:#fff;fill-rule:nonzero;"/><path d="M48.63,65.802c-0.449,1.044 -0.636,2.182 -0.545,3.315c0.158,1.862 1.004,3.954 -0.124,5.44c-0.837,1.105 -2.424,1.321 -3.463,2.233c-1.394,1.212 -1.492,3.419 -0.791,5.128c0.701,1.708 2.02,3.067 3.229,4.472c1.808,2.121 3.376,4.434 4.675,6.9" style="fill:#fff;fill-rule:nonzero;"/><path d="M48.229,65.744c-0.465,1.1 -0.655,2.296 -0.554,3.486c0.095,1.062 0.398,2.101 0.441,3.174c0.044,1.073 -0.233,1.982 -1.116,2.597c-0.768,0.537 -1.688,0.805 -2.459,1.342c-1.604,1.116 -1.959,3.229 -1.474,5.021c0.577,2.129 2.242,3.751 3.621,5.372c1.752,2.081 3.276,4.344 4.545,6.75c0.187,0.355 0.978,0.029 0.764,-0.378c-1.106,-2.097 -2.407,-4.086 -3.883,-5.942c-1.368,-1.716 -3.14,-3.283 -3.983,-5.352c-0.663,-1.628 -0.655,-3.864 0.889,-4.998c0.756,-0.554 1.682,-0.825 2.462,-1.342c0.783,-0.507 1.309,-1.33 1.442,-2.253c0.168,-1.137 -0.141,-2.309 -0.314,-3.414c-0.234,-1.326 -0.088,-2.692 0.421,-3.939c0.191,-0.456 -0.652,-0.485 -0.805,-0.115l0.003,-0.009Z" style="fill:#fff;fill-rule:nonzero;"/><path d="M44.677,82.85c-0.799,0.71 -1.778,1.212 -2.505,1.999c-0.727,0.788 -1.154,2.02 -0.551,2.926c0.208,0.282 0.459,0.53 0.745,0.733l3.569,2.84" style="fill:#fff;fill-rule:nonzero;"/><path d="M44.4,82.656c-1.365,1.186 -3.624,2.196 -3.463,4.355c0.075,1.082 1.013,1.656 1.789,2.273l2.9,2.309c0.289,0.234 1.022,-0.185 0.644,-0.485l-2.577,-2.028c-0.413,-0.327 -0.831,-0.647 -1.232,-0.984c-0.355,-0.266 -0.598,-0.655 -0.678,-1.091c-0.133,-0.866 0.392,-1.717 1.007,-2.28c0.672,-0.617 1.477,-1.07 2.167,-1.668c0.427,-0.372 -0.237,-0.666 -0.557,-0.386l-0,-0.015Z" style="fill:#fff;fill-rule:nonzero;"/><path d="M39.243,88.791c-2.02,-0.66 -4.246,-0.189 -5.826,1.232c-0.409,0.378 -0.787,0.906 -0.66,1.443c0.109,0.459 0.545,0.759 0.969,0.967c1.691,0.822 3.656,0.865 5.532,0.686c1.875,-0.179 3.751,-0.542 5.621,-0.464" style="fill:#fff;fill-rule:nonzero;"/><path d="M39.483,88.502c-1.257,-0.411 -2.61,-0.43 -3.878,-0.054c-1.155,0.346 -2.597,1.087 -3.146,2.236c-0.689,1.443 1.111,2.19 2.193,2.493c1.453,0.363 2.96,0.46 4.447,0.289c1.916,-0.168 3.815,-0.543 5.748,-0.477c0.491,0.018 0.626,-0.629 0.064,-0.646c-2.776,-0.098 -5.509,0.756 -8.285,0.505c-0.651,-0.053 -1.293,-0.184 -1.913,-0.389c-0.496,-0.174 -1.192,-0.404 -1.463,-0.898c-0.577,-1.021 1.29,-2.02 2.02,-2.323c1.192,-0.495 2.524,-0.547 3.751,-0.147c0.21,0.071 0.444,0.01 0.592,-0.156c0.043,-0.049 0.068,-0.112 0.068,-0.178c-0,-0.115 -0.075,-0.218 -0.184,-0.255l-0.014,0Z" style="fill:#fff;fill-rule:nonzero;"/><path d="M10.936,99.038l-1.443,2.816c0.707,-0.587 1.538,-1.005 2.43,-1.224" style="fill:#fff;fill-rule:nonzero;"/><path d="M10.541,99.012l-1.443,2.813c-0.081,0.159 0.043,0.263 0.193,0.289c0.197,0.027 0.395,-0.034 0.543,-0.165c0.308,-0.253 0.644,-0.471 1.001,-0.649c0.366,-0.188 0.754,-0.33 1.154,-0.424c0.142,-0.035 0.402,-0.171 0.352,-0.355c-0.049,-0.185 -0.346,-0.168 -0.481,-0.133c-0.995,0.25 -1.92,0.719 -2.71,1.374l0.736,0.121l1.443,-2.817c0.092,-0.176 -0.078,-0.288 -0.237,-0.288c-0.213,-0.022 -0.422,0.069 -0.551,0.239l-0,-0.005Z" style="fill:#fff;fill-rule:nonzero;"/><path d="M8.53,100.567c-1.697,0.767 -3.463,1.573 -4.678,2.975c-1.275,1.46 -1.849,3.448 -1.815,5.387c0.035,1.939 0.635,3.832 1.478,5.578" style="fill:#fff;fill-rule:nonzero;"/><path d="M8.374,100.42c-2.003,0.906 -4.129,1.89 -5.402,3.771c-1.272,1.882 -1.567,4.178 -1.215,6.348c0.25,1.413 0.701,2.784 1.339,4.069c0.124,0.26 0.938,-0 0.837,-0.225c-0.99,-2.069 -1.679,-4.375 -1.425,-6.689c0.187,-2.112 1.279,-4.043 2.992,-5.292c1.004,-0.671 2.072,-1.241 3.188,-1.702c0.113,-0.052 0.326,-0.153 0.234,-0.303c-0.092,-0.15 -0.453,-0.032 -0.548,-0l-0,0.023Z" style="fill:#fff;fill-rule:nonzero;"/><path d="M6.622,117.724c0.476,0 0.644,-0.606 0.078,-0.606c-0.476,0 -0.646,0.606 -0.078,0.606Z" style="fill:#fff;fill-rule:nonzero;"/><path d="M2.782,113.722c-0.681,1.645 -1.368,3.318 -1.527,5.09c-0.158,1.772 0.289,3.685 1.593,4.906" style="fill:#fff;fill-rule:nonzero;"/><path d="M2.355,113.78c-0.748,1.806 -1.521,3.676 -1.556,5.661c-0.029,1.622 0.453,3.284 1.651,4.43c0.202,0.193 0.99,-0.119 0.779,-0.321c-2.802,-2.678 -1.29,-6.859 -0.04,-9.883c0.103,-0.245 -0.725,-0.153 -0.834,0.113Z" style="fill:#fff;fill-rule:nonzero;"/><path d="M1.411,125.504c-0.123,2.275 -0.172,4.557 -0.147,6.844c-0.018,0.287 0.028,0.574 0.135,0.84c0.136,0.226 0.315,0.422 0.529,0.577l2.597,2.202" style="fill:#fff;fill-rule:nonzero;"/><path d="M0.993,125.613c-0.114,2.066 -0.165,4.134 -0.153,6.204c-0,0.439 -0.058,0.953 0.095,1.371c0.153,0.418 0.508,0.652 0.817,0.915l2.38,2.02c0.167,0.141 0.906,-0.182 0.788,-0.289l-2.274,-1.925c-0.355,-0.303 -0.785,-0.577 -0.909,-1.064c-0.078,-0.462 -0.098,-0.931 -0.061,-1.397c0,-2.02 0.051,-4.04 0.151,-6.06c-0,-0.112 -0.823,-0.017 -0.834,0.223l-0,0.002Z" style="fill:#fff;fill-rule:nonzero;"/><path d="M2.389,140.887c0.332,2.597 0.289,5.243 0.531,7.857c0.243,2.614 0.805,5.266 2.213,7.482c0.334,0.602 0.835,1.095 1.443,1.417c0.623,0.288 1.443,0.187 1.853,-0.367" style="fill:#fff;fill-rule:nonzero;"/><path d="M1.971,140.999c0.372,2.981 0.262,5.999 0.658,8.977c0.161,1.35 0.47,2.679 0.92,3.962c0.422,1.154 0.999,2.481 1.899,3.362c0.9,0.88 2.473,1.154 3.315,0.072c0.315,-0.404 -0.481,-0.445 -0.683,-0.188c-0.774,0.984 -1.98,-0.265 -2.436,-0.938c-0.667,-1.019 -1.178,-2.133 -1.515,-3.304c-0.738,-2.441 -0.865,-5.006 -0.992,-7.54c-0.07,-1.546 -0.139,-3.093 -0.329,-4.616c-0.041,-0.326 -0.88,-0.13 -0.837,0.225l-0,-0.012Z" style="fill:#fff;fill-rule:nonzero;"/><path d="M17.948,94.562c7.609,-0.528 15.19,1.056 22.796,1.674c2.715,0.222 5.462,0.32 8.108,0.978c2.646,0.658 5.237,1.933 6.926,4.083c1.688,2.15 2.288,5.029 2.822,7.753l3.517,17.992c0.967,4.937 1.936,9.906 2.02,14.935c0.043,2.416 -0.165,4.975 -1.544,6.954c-0.941,1.348 -2.346,2.309 -3.835,2.996c-4.752,2.213 -10.261,1.907 -15.345,3.174c-2.213,0.557 -4.36,1.419 -6.637,1.699c-6.414,0.794 -12.367,-3.125 -17.602,-6.925c-1.615,-1.18 -3.26,-2.404 -4.363,-4.074c-0.891,-1.359 -1.376,-2.941 -1.82,-4.505c-2.352,-8.254 -3.951,-16.705 -4.776,-25.248c-0.222,-2.309 -0.389,-4.631 -0.04,-6.925c0.745,-4.666 3.547,-8.76 7.626,-11.144c1.209,-0.696 2.661,-1.409 2.952,-2.773" style="fill:#fff;fill-rule:nonzero;"/><path d="M17.89,94.799c6.943,-0.471 13.837,0.808 20.719,1.5c5.849,0.577 13.501,0.179 17.186,5.754c1.682,2.545 2.101,5.734 2.675,8.657l2.02,10.388c0.663,3.399 1.359,6.795 1.976,10.206c0.669,3.395 1.082,6.835 1.235,10.292c0.084,2.926 -0.127,6.17 -2.36,8.328c-2.161,2.089 -5.318,2.926 -8.195,3.425c-3.093,0.534 -6.239,0.727 -9.3,1.443c-1.564,0.364 -3.079,0.897 -4.617,1.31c-1.527,0.441 -3.115,0.636 -4.703,0.577c-3.025,-0.159 -5.907,-1.304 -8.536,-2.747c-2.691,-1.516 -5.259,-3.24 -7.681,-5.156c-1.211,-0.875 -2.265,-1.948 -3.117,-3.174c-0.865,-1.336 -1.327,-2.886 -1.76,-4.401c-0.944,-3.305 -1.768,-6.636 -2.47,-9.993c-0.687,-3.312 -1.256,-6.647 -1.708,-10.004c-0.231,-1.7 -0.429,-3.405 -0.594,-5.113c-0.205,-1.738 -0.28,-3.488 -0.226,-5.237c0.179,-4.205 2.054,-8.163 5.194,-10.965c1.003,-0.844 2.086,-1.586 3.235,-2.216c0.99,-0.577 2.02,-1.31 2.309,-2.493c0.075,-0.306 -0.768,-0.179 -0.834,0.106c-0.312,1.308 -1.639,1.934 -2.71,2.545c-1.178,0.673 -2.265,1.494 -3.235,2.442c-1.942,1.899 -3.376,4.257 -4.169,6.856c-0.97,3.214 -0.684,6.59 -0.346,9.88c0.355,3.462 0.836,6.905 1.442,10.327c0.606,3.422 1.339,6.821 2.199,10.195c0.421,1.656 0.866,3.312 1.359,4.946c0.462,1.497 1.056,2.96 2.046,4.195c0.99,1.235 2.216,2.179 3.463,3.093c1.246,0.915 2.464,1.792 3.734,2.632c2.597,1.731 5.344,3.264 8.347,4.123c1.439,0.419 2.929,0.638 4.427,0.65c1.635,-0.028 3.257,-0.284 4.822,-0.759c1.578,-0.442 3.13,-0.97 4.735,-1.313c1.604,-0.344 3.194,-0.54 4.798,-0.745c5.52,-0.704 13.335,-1.685 14.924,-8.145c0.319,-1.47 0.444,-2.974 0.373,-4.476c-0.043,-1.737 -0.173,-3.47 -0.39,-5.194c-0.427,-3.535 -1.131,-7.023 -1.815,-10.515l-2.075,-10.61l-1.018,-5.194c-0.306,-1.573 -0.577,-3.174 -1.025,-4.703c-0.365,-1.419 -0.964,-2.766 -1.771,-3.988c-0.842,-1.176 -1.924,-2.159 -3.174,-2.886c-2.727,-1.624 -5.916,-2.112 -9.029,-2.383c-1.763,-0.15 -3.529,-0.257 -5.292,-0.436c-1.763,-0.179 -3.503,-0.389 -5.252,-0.6c-3.515,-0.427 -7.035,-0.866 -10.573,-0.967c-1.702,-0.059 -3.407,-0.032 -5.107,0.081c-0.141,0 -0.45,0.11 -0.473,0.289c-0.023,0.178 0.239,0.187 0.36,0.178l-0.023,-0.005Z" style="fill:#fff;fill-rule:nonzero;"/><path d="M9.978,143.437c3.244,14.31 7.795,28.291 13.594,41.769c1.524,3.54 3.174,7.104 5.748,9.975c3.402,3.789 8.14,6.06 12.806,8.105c7.808,3.405 16.214,6.467 24.654,5.339c10.515,-1.406 19.333,-9.286 24.308,-18.647c1.573,-2.946 2.854,-6.198 2.632,-9.522c-0.171,-2.557 -1.224,-4.983 -2.572,-7.165c-3.277,-5.306 -8.258,-9.317 -13.319,-12.965c-8.54,-6.151 -17.586,-11.568 -27.041,-16.193c-6.654,-3.255 -13.654,-6.149 -21.041,-6.726c-7.387,-0.577 -15.293,1.465 -20.369,6.85" style="fill:#fff;fill-rule:nonzero;"/><path d="M9.56,143.547c1.907,8.426 4.268,16.743 7.072,24.914c1.403,4.084 2.916,8.124 4.539,12.119c1.524,3.751 3.021,7.615 5.105,11.107c0.997,1.715 2.218,3.291 3.63,4.686c1.342,1.28 2.819,2.413 4.403,3.379c3.336,2.066 7.003,3.612 10.628,5.095c7.614,3.114 15.965,5.483 24.201,3.622c6.662,-1.515 12.526,-5.572 16.975,-10.677c2.298,-2.628 4.252,-5.536 5.817,-8.656c0.946,-1.8 1.627,-3.727 2.02,-5.722c0.352,-1.964 0.229,-3.983 -0.357,-5.89c-1.132,-3.69 -3.59,-6.96 -6.23,-9.718c-2.641,-2.759 -5.705,-5.162 -8.816,-7.416c-6.852,-4.969 -14.036,-9.462 -21.503,-13.45c-3.693,-1.97 -7.444,-3.855 -11.291,-5.508c-3.846,-1.653 -7.753,-3.01 -11.842,-3.774c-7.096,-1.322 -14.809,-0.632 -21.01,3.309c-1.413,0.898 -2.713,1.964 -3.869,3.174c-0.352,0.373 0.456,0.456 0.689,0.208c4.837,-5.081 12.12,-7.064 18.961,-6.732c8.161,0.396 15.839,3.751 23.047,7.358c7.403,3.69 14.552,7.869 21.399,12.509c3.249,2.202 6.478,4.47 9.497,6.983c2.885,2.413 5.592,5.116 7.678,8.27c1.116,1.621 1.975,3.404 2.548,5.286c0.542,1.924 0.604,3.951 0.182,5.904c-0.753,3.616 -2.71,7.021 -4.787,10.039c-3.786,5.483 -8.995,10.206 -15.23,12.722c-3.369,1.352 -6.982,1.991 -10.61,1.876c-4.173,-0.124 -8.262,-1.111 -12.198,-2.45c-3.843,-1.318 -7.601,-2.872 -11.253,-4.654c-3.353,-1.625 -6.637,-3.578 -9.159,-6.348c-2.629,-2.886 -4.285,-6.47 -5.811,-10.016c-1.664,-3.871 -3.227,-7.781 -4.689,-11.733c-2.909,-7.879 -5.402,-15.906 -7.468,-24.048c-0.504,-1.991 -0.985,-3.987 -1.443,-5.987c-0.081,-0.352 -0.918,-0.136 -0.837,0.222l0.012,-0.003Z" style="fill:#fff;fill-rule:nonzero;"/><path d="M140.774,197.847c0.332,0.993 -0.346,2.02 -0.609,3.021c-0.142,0.672 -0.193,1.36 -0.153,2.046l0.052,3.394c0.018,1.154 0,2.447 -0.825,3.272c-0.4,0.371 -0.883,0.641 -1.408,0.788c-2.232,0.714 -4.671,0.388 -6.637,-0.886" style="fill:#fff;fill-rule:nonzero;"/><path d="M140.356,197.96c0.19,0.643 -0,1.258 -0.22,1.867c-0.246,0.584 -0.416,1.198 -0.508,1.826c-0.048,0.717 -0.055,1.435 -0.02,2.153l0.032,2.19c0.017,1.131 0.121,2.507 -0.641,3.463c-0.761,0.955 -2.308,1.131 -3.439,1.111c-1.408,-0.033 -2.78,-0.456 -3.962,-1.221c-0.144,-0.095 -0.395,-0.02 -0.542,0.035c-0.05,0.02 -0.378,0.173 -0.243,0.256c2.321,1.475 5.226,1.709 7.754,0.627c0.576,-0.233 1.068,-0.636 1.411,-1.155c0.301,-0.55 0.467,-1.164 0.484,-1.792c0.113,-1.532 -0.014,-3.099 -0.031,-4.634c-0.036,-0.914 0.107,-1.827 0.421,-2.686c0.271,-0.722 0.577,-1.469 0.34,-2.245c-0.063,-0.211 -0.897,0.02 -0.836,0.225l-0,-0.02Z" style="fill:#fff;fill-rule:nonzero;"/><path d="M131.959,210.272c-4.513,-1.198 -9.194,-1.638 -13.851,-1.301" style="fill:#fff;fill-rule:nonzero;"/><path d="M132.302,210.099c-4.569,-1.203 -9.305,-1.645 -14.018,-1.31c-0.147,0 -0.476,0.058 -0.56,0.202c-0.083,0.144 0.075,0.159 0.202,0.15c4.604,-0.323 9.23,0.113 13.692,1.29c0.198,0.031 0.401,-0.004 0.577,-0.101c0.075,-0.04 0.289,-0.182 0.098,-0.231l0.009,0Z" style="fill:#fff;fill-rule:nonzero;"/><path d="M133.843,209.502c-8.743,0.288 -17.657,0.577 -26.065,-1.824c-3.731,-1.067 -7.298,-2.654 -11.014,-3.774c0.21,3.292 -3.281,5.482 -6.331,6.729c-2.765,1.194 -5.634,2.133 -8.57,2.805c-2.926,0.617 -5.921,0.822 -8.905,1.024c-11.744,0.797 -23.612,1.59 -35.232,-0.288c-4.782,-0.774 -9.878,-2.243 -12.76,-6.135c-2.473,-3.333 -2.788,-7.938 -1.533,-11.894c0.696,-2.19 1.873,-4.28 3.639,-5.751c2.77,-2.309 6.637,-2.828 10.227,-2.672c3.589,0.156 7.185,0.897 10.786,0.721" style="fill:#fff;fill-rule:nonzero;"/><path d="M134.025,209.335c-4.906,0.17 -9.811,0.331 -14.717,-0c-4.887,-0.292 -9.711,-1.252 -14.338,-2.851c-2.617,-0.918 -5.194,-1.948 -7.848,-2.756c-0.148,-0.046 -0.771,0.055 -0.762,0.288c0.153,3.264 -3.122,5.246 -5.734,6.383c-3.881,1.694 -7.935,2.946 -12.148,3.446c-4.213,0.499 -8.431,0.678 -12.641,0.92c-4.274,0.248 -8.556,0.421 -12.838,0.393c-4.276,-0.009 -8.548,-0.286 -12.789,-0.832c-3.425,-0.458 -6.925,-1.064 -10.068,-2.596c-3.035,-1.492 -5.445,-3.919 -6.437,-7.214c-1.019,-3.356 -0.612,-7.105 0.865,-10.264c0.746,-1.691 1.912,-3.162 3.388,-4.274c1.485,-1.018 3.19,-1.67 4.975,-1.904c3.99,-0.612 8.001,0.288 11.983,0.508c1,0.061 2.003,0.071 3.004,0.029c0.225,-0 0.912,-0.361 0.364,-0.338c-4.378,0.19 -8.694,-0.932 -13.075,-0.721c-3.462,0.17 -7.115,1.183 -9.522,3.852c-2.406,2.669 -3.52,6.51 -3.37,10.067c0.153,3.61 1.763,6.926 4.671,9.104c2.768,2.066 6.233,3.019 9.583,3.619c4.325,0.735 8.698,1.152 13.083,1.246c4.444,0.13 8.894,0 13.337,-0.21c4.508,-0.225 9.029,-0.474 13.525,-0.889c2.16,-0.181 4.304,-0.52 6.414,-1.013c2.108,-0.534 4.178,-1.209 6.196,-2.02c2.802,-1.096 6.414,-2.49 7.704,-5.482c0.277,-0.646 0.401,-1.347 0.361,-2.049l-0.762,0.289c4.781,1.442 9.329,3.549 14.24,4.567c4.816,1.002 9.753,1.253 14.659,1.235c2.781,0 5.563,-0.104 8.342,-0.199c0.225,0 0.912,-0.355 0.363,-0.334l-0.008,-0Z" style="fill:#fff;fill-rule:nonzero;"/><path d="M83.79,190.05c-1.067,2.514 -1.477,5.258 -1.191,7.973c0.043,0.823 0.288,1.623 0.712,2.329c0.647,0.941 1.766,1.42 2.831,1.829c5.406,2.072 11.016,3.563 16.736,4.45c4.011,0.62 8.062,0.94 12.119,1.258l17.048,1.345c1.154,0.092 2.407,0.17 3.428,-0.402c1.504,-0.842 1.971,-2.729 2.502,-4.368c0.503,-1.552 1.18,-3.04 2.02,-4.438c0.655,-1.091 1.443,-2.173 1.587,-3.434c0.265,-2.081 -1.221,-3.999 -2.909,-5.249c-2.213,-1.639 -4.862,-2.582 -7.502,-3.33c-8.68,-2.45 -17.772,-3.041 -26.789,-3.197c-7.636,-0.13 -15.32,0.046 -22.822,1.46c-0.75,0.139 -1.555,0.329 -2.04,0.915c-0.794,0.958 -0.289,2.484 0.655,3.312c0.943,0.829 2.167,1.212 3.232,1.859c1.064,0.646 2.037,1.763 1.849,2.995" style="fill:#fff;fill-rule:nonzero;"/><path d="M83.392,190.007c-1.015,2.4 -1.446,5.007 -1.258,7.606c0.087,1.155 0.268,2.416 1.105,3.301c0.765,0.811 1.83,1.227 2.851,1.616c5.055,1.922 10.287,3.34 15.62,4.233c5.569,0.933 11.221,1.273 16.845,1.717l8.524,0.673l4.297,0.337c1.189,0.096 2.447,0.246 3.604,-0.141c2.147,-0.713 2.747,-2.912 3.376,-4.842c0.401,-1.236 0.912,-2.434 1.529,-3.578c0.595,-1.099 1.382,-2.115 1.824,-3.292c0.837,-2.237 -0.289,-4.366 -1.936,-5.878c-1.838,-1.671 -4.225,-2.698 -6.556,-3.463c-5.122,-1.688 -10.527,-2.577 -15.871,-3.105c-5.482,-0.545 -11.014,-0.695 -16.525,-0.704c-5.572,0 -11.161,0.222 -16.676,1.059c-0.686,0.104 -1.371,0.217 -2.054,0.341c-0.588,0.084 -1.167,0.219 -1.732,0.404c-0.946,0.349 -1.688,1.105 -1.656,2.164c0.071,1.006 0.589,1.929 1.411,2.513c0.961,0.73 2.141,1.082 3.14,1.749c0.888,0.591 1.708,1.543 1.564,2.675c-0.052,0.415 0.802,0.288 0.845,-0.07c0.133,-1.044 -0.43,-1.956 -1.183,-2.631c-0.845,-0.759 -1.93,-1.137 -2.912,-1.68c-0.932,-0.519 -1.765,-1.229 -1.988,-2.308c-0.106,-0.446 -0.029,-0.916 0.214,-1.304c0.306,-0.442 0.842,-0.615 1.339,-0.73c1.258,-0.289 2.556,-0.471 3.838,-0.65c1.281,-0.179 2.646,-0.334 3.973,-0.458c2.683,-0.246 5.376,-0.378 8.079,-0.433c5.301,-0.113 10.622,-0 15.911,0.332c5.29,0.331 10.524,0.981 15.654,2.23c2.421,0.577 4.868,1.258 7.128,2.332c2.002,0.955 4.164,2.343 5.096,4.452c0.467,1.01 0.496,2.17 0.08,3.203c-0.444,1.111 -1.18,2.078 -1.748,3.122c-0.612,1.123 -1.121,2.298 -1.521,3.512c-0.268,0.954 -0.609,1.887 -1.019,2.79c-0.47,0.915 -1.154,1.625 -2.207,1.832c-1.198,0.237 -2.505,0 -3.708,-0.098l-8.235,-0.652c-5.399,-0.424 -10.815,-0.753 -16.191,-1.396c-5.23,-0.612 -10.391,-1.72 -15.412,-3.307c-1.235,-0.395 -2.46,-0.818 -3.676,-1.27c-1.042,-0.389 -2.207,-0.747 -3.033,-1.529c-0.865,-0.831 -1.056,-2.063 -1.154,-3.212c-0.186,-2.515 0.229,-5.038 1.212,-7.361c0.185,-0.433 -0.655,-0.418 -0.796,-0.086l-0.012,-0.015Z" style="fill:#fff;fill-rule:nonzero;"/><path d="M10.639,176.159c0.97,-0.051 1.792,-0.75 2,-1.699c0.072,-0.37 0.052,-0.779 0.271,-1.085c0.41,-0.577 1.293,-0.381 1.951,-0.13c1.073,0.407 2.247,0.912 2.715,1.959c0.193,0.501 0.279,1.037 0.254,1.573c0.004,2.13 -0.412,4.241 -1.227,6.21c-0.109,0.317 -0.285,0.608 -0.516,0.851c-0.368,0.285 -0.807,0.465 -1.27,0.519l-3.283,0.69c-0.462,0.127 -0.944,0.167 -1.42,0.118c-0.716,-0.121 -1.304,-0.635 -1.763,-1.197c-1.351,-1.659 -1.879,-3.821 -2.372,-5.904c-0.118,-0.326 -0.111,-0.684 0.02,-1.004c0.185,-0.25 0.455,-0.424 0.759,-0.491c1.249,-0.405 2.571,-0.538 3.875,-0.389" style="fill:#fff;fill-rule:nonzero;"/><path d="M10.607,176.485c1.043,-0.051 1.964,-0.707 2.352,-1.676c0.078,-0.232 0.13,-0.472 0.153,-0.716c0.032,-0.245 0.052,-0.577 0.303,-0.715c0.381,-0.199 0.995,0.081 1.353,0.219c0.935,0.364 2.046,0.828 2.438,1.832c0.189,0.616 0.254,1.264 0.191,1.905c-0.02,0.664 -0.081,1.326 -0.185,1.982c-0.189,1.322 -0.559,2.611 -1.099,3.832c-0.289,0.6 -0.704,0.771 -1.322,0.903c-0.678,0.148 -1.359,0.289 -2.04,0.43c-0.664,0.174 -1.339,0.305 -2.02,0.393c-0.593,0.025 -1.17,-0.206 -1.581,-0.635c-0.866,-0.805 -1.443,-1.954 -1.844,-3.05c-0.225,-0.618 -0.41,-1.25 -0.577,-1.887c-0.084,-0.329 -0.164,-0.658 -0.242,-0.99c-0.109,-0.303 -0.162,-0.624 -0.156,-0.946c0.055,-0.361 0.407,-0.442 0.71,-0.534c0.372,-0.115 0.752,-0.203 1.137,-0.266c0.768,-0.117 1.549,-0.133 2.322,-0.049c0.219,0.035 0.436,-0.072 0.543,-0.265c0.01,-0.03 0.015,-0.061 0.015,-0.093c0,-0.154 -0.123,-0.282 -0.278,-0.288c-1.46,-0.156 -3.145,-0.066 -4.501,0.557c-0.564,0.225 -0.892,0.823 -0.779,1.419c0.12,0.683 0.282,1.358 0.487,2.02c0.319,1.319 0.848,2.578 1.567,3.728c0.756,1.129 1.801,2.072 3.244,1.914c0.785,-0.09 1.561,-0.289 2.328,-0.462c0.768,-0.173 1.507,-0.274 2.237,-0.479c0.64,-0.147 1.184,-0.57 1.486,-1.154c0.326,-0.677 0.585,-1.385 0.773,-2.113c0.418,-1.454 0.632,-2.959 0.638,-4.472c0.044,-0.685 -0.09,-1.371 -0.39,-1.988c-0.302,-0.495 -0.727,-0.901 -1.235,-1.18c-0.586,-0.344 -1.211,-0.617 -1.861,-0.814c-0.609,-0.182 -1.313,-0.289 -1.876,0.089c-0.66,0.43 -0.505,1.123 -0.738,1.769c-0.222,0.641 -0.807,1.091 -1.483,1.14c-0.488,0.026 -0.632,0.684 -0.064,0.652l-0.006,-0.012Z" style="fill:#fff;fill-rule:nonzero;"/><path d="M24.36,216.147l-2.077,0.077l1.175,-7.201l3.836,1.583l0.061,3.593l-2.995,1.948Z" style="fill:#fff;"/><path d="M91.977,42.311c1.07,-0.892 1.627,-2.289 1.763,-3.676c0.135,-1.388 -0.107,-2.782 -0.41,-4.144c-0.534,-2.407 -1.301,-4.865 -2.992,-6.66c-0.687,-0.733 -1.668,-1.368 -2.644,-1.125c-0.501,0.158 -0.952,0.445 -1.31,0.831c-2.311,2.201 -3.621,5.257 -3.621,8.448c0,4.084 2.144,7.881 5.641,9.99c0.418,0.273 0.878,0.474 1.362,0.595c1.427,0.259 2.842,-0.586 3.29,-1.965" style="fill:#fff;fill-rule:nonzero;"/><path d="M92.251,42.495c2.885,-2.473 1.965,-6.766 1.033,-9.949c-0.465,-1.587 -1.12,-3.174 -2.176,-4.458c-1.056,-1.284 -2.643,-2.309 -4.242,-1.336c-0.705,0.478 -1.325,1.072 -1.832,1.757c-1.516,1.894 -2.438,4.195 -2.649,6.611c-0.287,4.113 1.559,8.097 4.882,10.538c0.728,0.531 1.55,1.065 2.453,1.218c1.637,0.236 3.224,-0.741 3.751,-2.309c0.064,-0.205 -0.251,-0.274 -0.383,-0.265c-0.208,0.002 -0.393,0.135 -0.462,0.332c-0.309,0.987 -1.23,1.663 -2.264,1.663c-0.243,-0 -0.485,-0.037 -0.717,-0.111c-0.695,-0.273 -1.342,-0.654 -1.919,-1.128c-0.558,-0.426 -1.074,-0.904 -1.544,-1.426c-4.032,-4.398 -3.973,-11.254 0.136,-15.582c0.494,-0.519 1.105,-1.191 1.89,-1.093c0.785,0.098 1.408,0.675 1.893,1.22c0.956,1.129 1.672,2.439 2.106,3.853c0.625,1.739 1.008,3.555 1.14,5.398c0.078,1.688 -0.308,3.558 -1.647,4.707c-0.43,0.369 0.239,0.637 0.551,0.369l-0,-0.009Z" style="fill:#fff;fill-rule:nonzero;"/><path d="M89.27,43.456c1.63,-0.865 3.968,0.289 4.248,2.118c-1.106,1.123 -1.132,2.886 -1.215,4.453c-0.09,1.728 -0.332,3.445 -0.725,5.13c-0.314,1.359 -0.784,2.782 -1.884,3.636c-2.04,-2.392 -2.331,-5.791 -2.227,-8.931c0.057,-1.777 0.211,-3.549 0.461,-5.309c0.15,-1.065 0.349,-2.156 0.921,-3.068c0.571,-0.911 1.607,-1.607 2.675,-1.48" style="fill:#fff;fill-rule:nonzero;"/><path d="M89.585,43.456c0.865,-0.441 2.042,0.116 2.683,0.707c0.372,0.34 0.641,0.777 0.776,1.261c0.081,0.289 -0.109,0.401 -0.274,0.635c-0.176,0.258 -0.32,0.537 -0.427,0.831c-0.415,1.123 -0.401,2.352 -0.473,3.529c-0.097,1.576 -0.321,3.141 -0.67,4.68c-0.311,1.365 -0.747,2.825 -1.884,3.734l0.797,-0.153c-1.608,-1.913 -2.127,-4.426 -2.228,-6.864c-0.042,-1.367 -0.007,-2.735 0.107,-4.098c0.081,-1.502 0.268,-2.997 0.56,-4.472c0.137,-0.722 0.419,-1.409 0.828,-2.02c0.412,-0.577 1.05,-1.154 1.797,-1.074c0.199,0.013 0.398,-0.026 0.577,-0.112c0.052,-0.026 0.289,-0.173 0.11,-0.191c-1.275,-0.099 -2.515,0.466 -3.278,1.492c-0.897,1.206 -1.033,2.851 -1.209,4.294c-0.363,2.986 -0.635,6.169 0,9.138c0.283,1.513 0.938,2.932 1.905,4.13c0.138,0.164 0.663,-0.049 0.793,-0.156c1.088,-0.866 1.567,-2.196 1.881,-3.509c0.398,-1.656 0.651,-3.344 0.756,-5.044c0.084,-1.345 0.035,-2.822 0.719,-4.04c0.086,-0.151 0.182,-0.295 0.289,-0.433c0.069,-0.083 0.201,-0.167 0.219,-0.271c0.04,-0.236 -0.176,-0.629 -0.289,-0.828c-0.266,-0.477 -0.653,-0.875 -1.122,-1.154c-1.105,-0.628 -2.46,-0.641 -3.575,-0.032c-0.153,0.078 -0.093,0.139 0.04,0.153c0.208,0.002 0.412,-0.052 0.592,-0.156l-0,0.023Z" style="fill:#fff;fill-rule:nonzero;"/><path d="M69.195,62.189c-1.2,2.479 -1.639,5.405 -0.787,8.025c0.851,2.62 3.119,4.839 5.849,5.228c1.067,0.109 2.144,0.076 3.202,-0.098c2.182,-0.288 4.415,-0.652 6.317,-1.76c2.929,-1.705 4.706,-5.018 5.058,-8.388c0.352,-3.37 -0.594,-6.775 -2.126,-9.811c-0.817,-1.61 -1.833,-3.174 -3.287,-4.245c-2.66,-1.962 -6.319,-1.95 -9.522,-1.154c-3.203,0.797 -6.201,2.309 -9.407,3.117" style="fill:#fff;fill-rule:nonzero;"/><path d="M68.8,62.16c-1.071,2.24 -1.57,4.805 -1.05,7.263c0.439,2.107 1.681,3.963 3.462,5.171c0.867,0.584 1.853,0.966 2.886,1.12c1.347,0.193 2.732,-0.015 4.068,-0.202c2.419,-0.341 4.906,-0.909 6.865,-2.441c1.711,-1.367 2.981,-3.208 3.65,-5.293c0.735,-2.335 0.846,-4.822 0.321,-7.213c-0.503,-2.481 -1.462,-4.847 -2.828,-6.978c-1.278,-1.976 -3.07,-3.436 -5.376,-4.016c-5.027,-1.264 -9.782,1.232 -14.428,2.753c-0.637,0.207 -1.278,0.398 -1.927,0.562c-0.144,0.035 -0.404,0.173 -0.352,0.358c0.052,0.185 0.343,0.173 0.485,0.136c4.616,-1.155 8.974,-3.881 13.867,-3.581c2.179,0.135 4.236,0.935 5.743,2.55c1.581,1.694 2.631,3.942 3.37,6.118c1.443,4.262 1.382,9.277 -1.604,12.89c-1.466,1.768 -3.431,2.764 -5.65,3.266c-1.192,0.26 -2.398,0.446 -3.613,0.557c-3.258,0.538 -6.469,-1.331 -7.609,-4.429c-0.915,-2.165 -0.834,-4.632 -0.142,-6.845c0.184,-0.575 0.408,-1.136 0.67,-1.679c0.19,-0.398 -0.649,-0.349 -0.791,-0.058l-0.017,-0.009Z" style="fill:#fff;fill-rule:nonzero;"/><path d="M55.123,63.808c-4.151,-0.465 -8.171,-1.739 -11.831,-3.751c-0.444,-0.21 -0.838,-0.513 -1.154,-0.889c-0.425,-0.577 -0.468,-1.342 -0.416,-2.054c0.289,-3.467 2.392,-6.534 5.523,-8.051" style="fill:#fff;fill-rule:nonzero;"/><path d="M55.469,63.652c-3.698,-0.419 -7.295,-1.482 -10.628,-3.139c-0.721,-0.358 -1.607,-0.713 -2.164,-1.319c-0.557,-0.606 -0.6,-1.593 -0.519,-2.415c0.155,-1.513 0.668,-2.968 1.494,-4.245c0.932,-1.48 2.259,-2.671 3.83,-3.439c0.101,-0.049 0.254,-0.119 0.109,-0.197c-0.144,-0.078 -0.464,0.058 -0.577,0.116c-2.883,1.373 -4.95,4.036 -5.566,7.17c-0.194,0.79 -0.21,1.613 -0.049,2.41c0.236,0.889 0.975,1.33 1.731,1.731c1.681,0.906 3.44,1.659 5.255,2.251c2.077,0.681 4.219,1.15 6.391,1.399c0.199,0.014 0.398,-0.024 0.577,-0.112c0.055,-0.026 0.289,-0.173 0.11,-0.196l0.006,-0.015Z" style="fill:#fff;fill-rule:nonzero;"/><path d="M35.423,41.139c-0.488,0.225 -1.06,0.177 -1.503,-0.127c-0.433,-0.302 -0.81,-0.678 -1.111,-1.111c-0.277,-0.309 -0.495,-0.666 -0.644,-1.053c-0.136,-0.593 -0.084,-1.213 0.15,-1.775c1.24,-3.515 4.379,-6.032 8.08,-6.478" style="fill:#fff;fill-rule:nonzero;"/><path d="M35.175,41.058c-0.231,0.113 -0.577,-0.043 -0.791,-0.155c-0.269,-0.151 -0.511,-0.346 -0.715,-0.578c-0.416,-0.408 -0.76,-0.883 -1.019,-1.405c-0.427,-1.004 0.141,-2.242 0.606,-3.145c0.9,-1.724 2.304,-3.134 4.025,-4.04c0.945,-0.502 1.976,-0.822 3.039,-0.943c0.106,-0 0.479,-0.101 0.484,-0.251c0.006,-0.15 -0.239,-0.13 -0.346,-0.119c-2.319,0.273 -4.483,1.307 -6.152,2.941c-0.81,0.789 -1.477,1.713 -1.974,2.729c-0.284,0.554 -0.491,1.143 -0.617,1.752c-0.13,0.636 0.016,1.298 0.401,1.821c0.413,0.594 0.906,1.258 1.561,1.595c0.631,0.308 1.372,0.298 1.994,-0.028c0.118,-0.058 0.24,-0.171 0.09,-0.26c-0.151,-0.09 -0.454,0.032 -0.578,0.098l-0.008,-0.012Z" style="fill:#fff;fill-rule:nonzero;"/><path d="M143.455,176.361c-0.543,-0.652 -1.175,-1.356 -2.02,-1.442" style="fill:#fff;fill-rule:nonzero;"/><path d="M143.838,176.177c-0.577,-0.71 -1.284,-1.443 -2.259,-1.547c-0.216,-0.031 -0.431,0.069 -0.545,0.254c-0.075,0.19 0.069,0.335 0.257,0.352l0.15,0.02c-0,0 0.095,0.023 0.043,0l0.037,0c0.099,0.028 0.196,0.064 0.289,0.107c0.029,0 0.026,0.017 -0,0l0.066,0.035l0.13,0.08c0.086,0.057 0.169,0.117 0.248,0.182c0.038,0.029 0.072,0.061 0.107,0.093l0.061,0.052c-0,-0 0.052,0.049 0.02,0.017c0.075,0.075 0.15,0.15 0.222,0.228c0.144,0.153 0.289,0.314 0.413,0.476c0.157,0.146 0.393,0.171 0.577,0.06c0.138,-0.069 0.335,-0.262 0.199,-0.429l-0.015,0.02Z" style="fill:#fff;fill-rule:nonzero;"/><path d="M105.187,206.81c-1.657,-1.625 -3.985,-2.597 -5.194,-4.557" style="fill:#fff;fill-rule:nonzero;"/><path d="M105.576,206.637c-1.653,-1.611 -3.944,-2.557 -5.194,-4.557c-0.135,-0.213 -0.949,0.046 -0.779,0.318c1.261,1.999 3.552,2.946 5.194,4.553c0.193,0.19 0.981,-0.118 0.779,-0.314Z" style="fill:#fff;fill-rule:nonzero;"/></g><g id="Layer_1"><path d="M66.676,0c1.209,0.681 2.519,1.264 2.713,2.998c1.154,-0.464 0.712,-2.28 2.291,-2.112c1.111,0.118 1.665,0.932 2.478,1.373c2.052,1.12 4.04,2.493 5.922,3.723c2.631,1.725 6.224,1.379 8.177,4.218c0.776,1.129 2.081,1.963 1.668,3.622c-0.239,0.972 0.289,1.555 1.097,1.87c1.376,0.542 1.494,1.838 2.138,2.908c3.11,5.165 0.089,10.809 1.428,15.819c1.489,5.563 -0.288,10.281 -1.313,15.368c-1.174,5.815 -1.275,11.788 -2.277,17.657c-0.923,5.401 -3.883,9.522 -7.231,13.452c-3.197,3.766 -3.462,6.977 -0.649,10.824c1.948,2.657 3.91,5.35 4.054,8.856c0.058,1.382 1.114,1.754 2.193,2.109c4.176,1.373 8.337,2.79 12.523,4.129c2.736,0.866 5.085,2.268 6.946,4.493c1.601,1.913 4.144,2.707 5.67,4.787c1.564,2.135 3.979,3.67 4.239,6.677c0.081,0.909 1.004,1.46 1.688,2.04c1.068,0.903 1.78,1.931 1.223,3.391c-0.401,1.053 0.041,1.924 0.422,2.859c2.02,4.966 3.379,10.189 6.711,14.642c1.501,2.019 1.348,4.966 1.608,7.548c0.308,3.05 1.266,5.662 3.5,7.953c1.933,1.985 1.512,5.139 2.836,7.542c0.272,0.494 0.087,1.328 0.404,1.989c0.289,0.594 1.61,0.505 1.134,1.442c-0.548,1.085 -1.552,0.223 -2.343,0.306c-3.061,0.329 -6.166,0.577 -8.798,2.557c-0.6,0.45 -1.604,1.414 -2.308,0.288c-0.52,-0.839 0.17,-1.89 0.972,-2.265c2.289,-1.065 4.003,-3.405 6.957,-3.044c1.296,0.159 2.597,-0.482 2.62,-1.858c0.024,-1.377 -0.698,-2.115 -2.377,-1.264c-0.632,0.32 -1.279,-1.212 -2.476,-1.206c-2.389,-0 -4.519,0.233 -6.123,2.354c-0.866,1.155 -1.882,2.343 -3.44,2.84c1.579,-3.769 5.956,-6.392 9.725,-5.887c1.344,0.179 2.853,0.176 3.237,-1.356c0.384,-1.532 -1.027,-1.804 -2.204,-2.239c-4.975,-1.838 -9.064,-0.768 -12.428,3.385c-0.933,1.154 -1.778,2.392 -3.27,2.931c-0.738,-0.834 -0.36,-1.639 0.133,-2.193c2.73,-3.07 4.415,-7.214 8.89,-8.532c1.094,-0.321 2.343,-1.155 1.81,-2.655c-0.503,-1.408 -1.686,-0.773 -2.791,-0.681c-4.752,0.395 -7.791,3.119 -10.142,6.963c-2.886,4.747 -6.152,9.265 -8.369,14.427c-0.88,2.055 -0.467,2.696 1.674,2.655c6.302,-0.118 12.572,0.058 18.644,2.066c0.447,0.147 1.09,0.205 1.463,0c3.829,-2.21 8.295,-3.021 12.015,-5.338c1.443,-0.897 2.02,-0.626 2.94,0.289c-1.183,-0.018 -2.02,0.747 -2.94,1.321c-0.672,0.424 -2.049,0.217 -1.841,1.501c0.15,0.906 0.978,1.575 1.884,1.731c1.916,0.326 2.779,1.731 3.694,3.174c1.362,2.141 2.02,4.513 2.458,6.977c0.104,0.606 0.309,1.204 0.935,1.411c0.626,0.208 0.866,-0.288 1.013,-0.79c1.099,-3.752 0.488,-7.454 -0.254,-11.19c-0.485,-2.436 -2.764,-2.277 -4.164,-3.374c-0.306,-0.239 -0.577,-0.539 -0.848,-0.811c4.703,0.13 6.844,2.837 7.289,7.249l-0,6.602c-0.534,1.599 -1.556,3.217 -1.483,4.787c0.112,2.384 -0.999,3.751 -2.843,4.386c-3.647,1.287 -4.363,3.945 -4.065,7.312c0.058,0.699 0.021,1.403 -0.11,2.092c-0.655,3.405 -3.976,6.291 -6.296,5.249c-3.319,-1.495 -6.744,-1.688 -10.264,-1.57c-5.425,0.182 -10.824,-0.026 -15.998,-1.861c-1.973,-0.698 -2.126,0.139 -2.147,1.749c-0.026,1.792 0.713,3.656 -0.441,6.01c-0.978,-3.257 -2.813,-2.565 -4.562,-1.601c-1.469,0.811 -2.981,0.992 -4.617,1.021c-3.872,0.072 -7.745,-0.072 -11.623,-0.023c-15.891,0.205 -31.784,0.078 -47.678,0.075l-13.028,0c1.102,-1.497 2.536,-2.366 2.349,-4.233c-0.13,-1.275 -0.866,-2.046 -2.095,-2.158c-1.443,-0.133 -1.108,1.093 -1.241,1.896c-0.236,1.442 0.116,3.024 -1.082,4.576c-0.522,-1.936 -0.101,-3.523 -0.141,-5.096c-0.023,-0.865 0.288,-1.913 -0.681,-2.441c-1.639,-0.886 -1.755,-2.519 -2.265,-4.017c-1.209,-3.54 -1.466,-7.727 -5.165,-9.81c-3.7,-2.084 -5.036,-5.463 -6.277,-9.084c-0.519,-1.512 -1.102,-3.001 -1.714,-4.479c-2.279,-5.514 -2.291,-5.531 3.824,-6.076c0.94,-0.087 1.659,-0.179 1.261,-1.336c-1.209,-3.524 -1.221,-7.636 -4.839,-9.99c-2.208,-1.443 -2.886,-3.624 -3.33,-6.086c-1.267,-6.899 -1.281,-13.934 -2.323,-20.848c-1.506,-10.021 0.04,-19.91 0.949,-29.842c0.147,-1.409 0.75,-2.731 1.717,-3.766c6.242,-6.948 13.288,-11.914 23.356,-9.291c1.07,0.288 2.294,0.516 2.822,-0.866c1.408,-3.699 4.672,-4.643 7.996,-5.563c3.006,-0.834 5.482,-4.303 4.974,-7.43c-0.398,-2.381 0.531,-3.795 2.309,-5.042c2.836,-1.991 3.878,-4.039 2.164,-6.896c-1.278,-2.129 -2.02,-5.151 -5.194,-5.918c-1.374,-0.335 -2.886,-1.059 -0.967,-2.828c1.302,-1.198 0.093,-1.763 -0.811,-2.121c-4.12,-1.627 -4.654,-6.184 -7.363,-8.962c-0.393,-0.404 -0.543,-1.475 0.692,-1.391c3.647,0.245 1.443,-1.607 0.707,-2.358c-1.855,-1.893 -2.634,-3.711 -2.432,-6.608c0.132,-1.887 0.963,-3.751 0.678,-5.543c-0.56,-3.529 1.128,-5.511 3.99,-6.862c1.564,-0.738 2.089,-1.881 1.512,-3.399c-1.027,-2.741 0.543,-3.895 2.687,-4.744c0.834,-0.334 1.699,-0.577 2.553,-0.865c0.808,-0.266 1.394,-0.641 1.443,-1.645c0.199,-3.878 4.21,-5.523 5.321,-8.902c0.11,-0.337 0.825,-0.635 1.287,-0.678c3.065,-0.289 5.604,-2.037 8.443,-2.906c1.512,-0.461 1.89,-1.2 1.807,-2.536l5.404,-0.003Zm-25.185,56.395c0.401,2.404 2.06,3.769 4.04,4.845c0.629,0.34 1.322,0.531 1.951,-0.046c0.629,-0.577 0.715,-1.538 0.265,-1.893c-1.691,-1.322 -1.125,-3.192 -1.472,-4.842c-0.271,-1.284 -0.545,-2.614 -1.826,-3.495c-0.71,1.155 0.017,1.766 0.45,2.332c1.125,1.466 1.425,3.027 0.04,4.305c-1.601,1.48 -2.308,-0.776 -3.5,-1.154c0.323,-0.687 0.736,-0.794 1.423,-0.392c1.359,0.79 1.78,-0.015 1.246,-1.083c-0.721,-1.442 -1.422,-2.744 -1.315,-4.461c0.046,-0.767 -1.155,-1.463 -1.789,-1.217c-2.02,0.782 -1.732,-0.603 -1.876,-1.7c-0.084,-0.652 0.162,-1.391 -0.635,-2.112c-0.182,4.103 -0.15,7.918 2.998,10.913Zm-8.454,62.498l0.04,0.061c0.051,-2.304 -0.207,-4.604 -0.768,-6.839c-0.254,-0.973 -0.577,-1.985 -0.057,-2.926c0.366,-0.667 0.577,-1.714 1.463,-1.731c1.064,-0.029 1.428,0.992 1.61,1.872c0.525,2.54 0.972,5.099 1.443,7.65c0.147,0.773 0.135,1.751 1.093,1.95c2.069,0.433 2.02,2.104 2.482,3.639c0.935,3.197 -0.413,6.441 0.15,9.522c1.414,7.688 3.584,15.147 9.083,21.146c1.989,2.17 4.138,3.99 6.995,4.954c3.05,1.027 3.448,0.75 3.971,-2.507c0.288,-1.792 -0.84,-3.599 0.314,-5.393c-0.104,2.905 1.255,5.378 2.04,8.001c1.022,3.408 4.204,3.013 6.7,3.477c2.165,0.401 4.057,-0.842 5.595,-2.366c0.554,-0.548 0.249,-1.327 0,-1.991c-2.718,-7.401 -5.361,-14.829 -8.209,-22.181c-0.75,-1.942 -1.14,-3.717 -0.765,-5.794c0.704,-3.916 0.615,-7.722 -1.884,-11.196c-1.3,-1.783 -2.227,-3.81 -2.727,-5.959c-0.458,-2.02 -1.95,-3.462 -3.667,-4.571c-0.531,-0.343 -1.284,-0.9 -1.89,-0.201c-0.468,0.533 0.052,1.119 0.343,1.621c0.898,1.544 1.812,3.076 2.721,4.617c-2.227,-1.221 -3.549,-3.099 -4.7,-5.064c-2.289,-3.898 -4.883,-7.462 -8.77,-9.973c-2.18,-1.446 -4.768,-2.154 -7.381,-2.019c-1.347,0.06 -2.308,0.378 -1.229,1.939c1.177,1.744 2.111,3.64 2.779,5.635c0.577,1.622 1.102,1.094 1.997,0.211c1.59,-1.564 -0.399,-3.111 -0.078,-4.773c1.298,0.603 1.382,1.68 1.699,2.597c0.866,2.424 -1.053,3.616 -2.545,4.507c-1.645,0.981 -2.383,-0.831 -3.09,-1.971c-0.843,-1.356 -1.512,-2.816 -2.346,-4.178c-0.632,-1.041 -1.377,-1.601 -2.037,0.041c-0.393,0.972 -0.424,2.47 -1.867,2.337c-1.154,-0.107 -1.103,-1.527 -1.541,-2.384c-1.731,-3.384 -4.129,-6.281 -8.189,-5.99c-3.284,0.234 -5.483,2.788 -7.33,5.483c-2.573,3.751 -3.687,8.174 -5.771,12.133c-0.718,1.362 -0.101,2.225 0.774,3.174c1.304,1.4 1.766,2.886 0.193,4.467c-1.073,1.074 -0.661,2 0.084,3.174c2.923,4.588 7.153,8.045 10.46,12.324c2.79,3.613 6.082,6.842 11.08,7.913c3.197,0.683 3.218,1.362 4.057,3.122c-7.77,-3.174 -7.77,-3.174 -14.237,-2.814c-3.483,0.191 -5.24,1.631 -6.146,5.044c-1.264,4.773 2.282,14.846 6.256,17.891c1.37,1.047 2.666,1.235 4.068,0.083c1.489,-1.223 3.235,-1.973 5.059,-2.55c1.177,-0.373 2.449,-0.866 2.781,-2.078c0.629,-2.283 2.084,-3.766 3.656,-5.439c1.374,-1.46 2.332,-2.02 3.991,-1.08c2.381,1.351 2.516,-0.051 2.259,-1.826c-0.078,-0.793 -0.335,-1.558 -0.753,-2.236c-2.484,-3.463 -3.335,-7.768 -3.97,-11.618c-0.779,-4.752 -1.625,-9.138 -4.487,-13.036c-0.393,-0.534 -0.958,-1.155 -0.551,-1.908c1.416,-2.623 1.396,-3.572 -0.251,-5.993Zm40.397,67.657c8.224,4.305 15.371,9.981 23.113,14.717c5.965,3.65 12.013,7.335 19.253,7.857c3.786,0.288 7.594,0.185 11.389,0.309c2.181,0.072 4.372,-0.098 6.489,0.819c3.408,1.478 6.545,-0.433 6.819,-4.198c0.203,-2.593 0.21,-5.198 0.02,-7.791c-0.456,-5.771 -2.799,-10.593 -7.733,-13.909c-6.06,-4.068 -12.884,-5.176 -20.003,-5.217c-9.672,-0.055 -19.194,-1.194 -28.134,-5.093c-7.568,-3.301 -15.117,-6.227 -23.626,-5.701c-3.535,0.219 -6.779,-1.515 -10.083,-2.647c-0.761,-0.262 -1.921,-1.07 -2.207,0.303c-0.306,1.699 0.056,3.453 1.01,4.891c0.75,1.155 2.21,0.549 3.356,0.326c1.731,-0.334 3.463,-0.773 5.179,-1.154c-1.854,1.234 -3.89,2.169 -6.033,2.773c-1.616,0.471 -1.81,1.258 -1.209,2.646c0.787,1.83 1.835,3.57 2.08,5.604c0.081,0.664 0.407,1.154 1.102,1.215c5.633,0.577 10.934,3.324 16.812,2.429c1.968,-0.288 4.019,-0.049 6.798,-0.049c-1.708,1.383 -3.316,0.503 -4.395,1.87l0.003,0Zm13.15,-121.709c3.892,-2.966 7.04,-15.769 5.156,-19.532c-0.084,-0.165 -0.329,-0.245 -0.424,-0.41c-1.832,-3.174 -4.799,-3.437 -8.019,-3.249c-1.229,0.072 -3.03,0.317 -3.114,-1.443c-0.077,-1.549 1.189,-2.848 2.808,-3.05c2.678,-0.335 5.416,-0.551 7.471,1.896c0.479,0.577 1.215,1.373 1.965,1.082c0.865,-0.338 0.56,-1.443 0.487,-2.167c-0.799,-8.29 -3.886,-15.441 -10.48,-20.828c-1.194,-0.975 -2.49,-1.339 -4.068,-1.523c-2.084,-0.243 -4.283,0.06 -6.222,-0.52c-8.079,-2.418 -13.042,3.593 -19.062,6.744c-0.26,0.159 -0.43,0.432 -0.458,0.735c0.219,2.768 -1.504,5.422 -0.373,8.268c0.471,1.183 0.199,2.49 0.107,3.794c-0.262,3.722 -2.825,7.436 -0.182,11.239c0.502,0.727 -0.155,1.515 -0.66,2.156c-0.433,0.545 -1.002,1.076 -0.814,1.849c0.723,3.014 1.812,5.928 3.243,8.677c0.941,1.804 2.866,1.108 4.207,1.858c1.342,0.751 2.34,0.52 3.35,-0.761c1.042,-1.325 2.693,-1.775 4.349,-2.127c-1.861,1.443 -3.03,3.261 -4.17,5.283c-1.05,1.867 -1.89,4.99 -0.233,5.575c2.444,0.866 3.255,2.785 4.218,4.684c0.615,1.209 1.443,1.489 2.649,1.416c2.037,-0.121 5.324,-3.598 4.732,-6.23c-0.865,-3.811 1.409,-2.019 2.73,-2.005c1.475,0.035 2.946,0.219 4.707,0.364c-1.443,2.242 -1.443,4.443 -0.632,6.636c0.415,1.097 1.442,2.162 2.38,0.826c2.04,-2.949 4.328,-5.838 3.174,-10.01c-0.407,-1.483 -0.926,-3.062 -1.313,-5.056c2.216,1.521 3.036,3.174 2.491,5.829Zm-1.804,141.62c1.936,-1.155 3.939,-2.237 5.786,-3.527c1.639,-1.154 1.979,-2.346 -0.139,-3.618c-3.001,-1.798 -6.028,-3.619 -8.749,-5.797c-7.97,-6.374 -17.602,-7.627 -27.156,-9.191c-1.49,-0.288 -3.034,0.12 -4.187,1.108c-3.751,3.068 -8.036,5.168 -12.517,6.952c-4.213,1.676 -8.146,3.869 -11.187,7.338c-0.967,1.102 -2.063,2.25 -1.775,3.956c0.491,2.926 6.793,9.332 9.745,9.62c11.444,1.125 22.87,2.19 34.369,0.245c9.144,-1.546 17.98,-3.863 26.126,-8.399c0.632,-0.352 2.199,-0.477 1.339,-1.732c-0.528,-0.767 -1.553,-1.682 -2.831,-0.891c-0.488,0.348 -0.997,0.667 -1.523,0.955c-2.37,1.096 -4.372,3.041 -7.301,2.969l0,0.012Zm19.463,-44.498c2.701,0.164 3.526,-0.829 3.174,-3.544c-0.179,-1.347 -1.154,-2.758 -0.098,-4.04c1.189,-1.442 1.068,-3.113 1.371,-4.775c0.692,-3.8 -0.45,-7.589 0.121,-11.349c0.571,-3.76 -0.263,-7.375 -0.263,-11.034c0,-3.111 -1.647,-6.946 2.115,-9.344c0.119,-0.075 0.093,-0.635 -0.054,-0.825c-2.02,-2.632 -2.54,-6.42 -6.187,-7.791c-3.174,-1.192 -6.23,-2.698 -9.537,-3.575c-2.403,-0.641 -4.905,-2.366 -7.087,-1.977c-2.308,0.41 -2.983,3.723 -4.556,5.627c-0.577,0.69 -1.169,1.362 -1.702,2.081c-0.808,1.087 -1.204,2.331 -0.93,3.673c0.658,3.209 -0.063,6.348 -0.415,9.508c-0.136,1.22 -0.257,2.403 0.173,3.543c1.175,3.114 1.022,6.279 0.476,9.47c-0.19,1.081 -0.167,2.189 0.069,3.261c1.207,5.595 3.57,10.815 5.246,16.254c0.433,1.406 1.12,2.136 2.569,0.961c1.448,-1.174 2.484,-0.727 3.24,0.938c0.534,1.175 1.397,2.202 1.93,3.376c0.866,1.905 2.02,2.084 3.855,1.241c2.098,-0.981 4.049,-2.857 6.49,-1.691l0,0.012Zm-56.285,-98.057c0.225,4.617 0.47,9.234 0.66,13.851c0.041,0.961 0.71,1.327 1.311,1.852c3.174,2.747 6.221,5.615 9.455,8.273c2.597,2.135 4.635,4.816 7.033,7.038c2.141,1.982 4.27,3.408 4.097,6.637c-0.038,0.672 0.289,1.359 0.398,2.048c0.13,0.782 0.514,1.296 1.336,1.365c0.97,0.084 1.117,-0.727 1.307,-1.356c0.52,-1.694 0.803,-3.477 2.407,-5.33c-0.245,1.856 -0.447,3.175 -0.577,4.522c-0.055,0.537 -0.445,1.31 0.407,1.498c0.623,0.138 1.154,-0.375 1.379,-0.938c0.525,-1.397 1.004,-2.816 1.399,-4.253c0.99,-3.61 -0.577,-7.503 1.155,-11.04c0.101,-0.211 -0.07,-0.555 -0.113,-0.837c-2.109,1.359 -3.232,-1.968 -5.194,-1.117c-3.287,1.423 -6.207,-0.046 -9.182,-1.091c-0.73,-0.257 -1.466,-0.914 -2.167,-0.075c-1.982,2.372 -2.556,0.289 -3.292,-1.05c-0.343,-0.704 -0.742,-1.379 -1.192,-2.02c-4.288,-5.537 -10.679,-9.854 -10.627,-17.977Zm62.535,49.025c-0.222,2.02 0.606,2.745 0.993,3.622c2.124,4.813 5.719,9.274 3.333,15.111c-0.202,0.488 -0.453,1.688 0.424,1.795c1.812,0.217 1.039,1.276 0.946,2.167c-0.121,1.192 -0.13,2.401 -0.363,3.57c-0.326,1.639 -0.055,2.536 1.895,2.207c0.69,-0.078 1.388,-0.02 2.055,0.17c0.577,0.142 1.154,0.502 1.154,1.201c0,0.753 -0.669,1.044 -1.235,1.064c-3.866,0.13 -4.395,1.674 -3.367,5.385c1.09,3.93 1.774,4.954 5.771,3.382c2.807,-1.108 5.165,-1.4 6.807,1.971c-0.289,-3.489 0.167,-6.975 -1.985,-9.707c-1.645,-2.087 -2.615,-4.441 -3.775,-6.753c-2.507,-4.997 -1.919,-11.155 -5.889,-15.581c-0.099,-0.179 -0.162,-0.375 -0.185,-0.578c-1.085,-3.589 -3.965,-5.782 -6.579,-9.026Zm-36.464,28.769c0.303,-1.301 -0.26,-3.915 2.885,-1.939c0.384,0.243 0.831,0.182 0.944,-0.288c0.744,-3.108 2.262,-5.999 1.604,-9.448c-1.474,-7.713 -5.947,-14.318 -7.759,-21.915c-0.693,-2.9 -3.394,-1.189 -5.148,-1.045c-1.798,0.147 -1.203,1.636 -0.961,2.811c1.111,5.393 3.033,10.567 3.939,16.046c0.646,3.933 1.653,7.791 1.443,11.805c-0.093,1.786 0.502,3.33 1.333,4.827c0.369,0.664 0.652,1.755 1.627,1.36c0.739,-0.298 0.295,-1.233 0.093,-2.214Zm-27.179,-66.159c-4.329,2.374 -3.951,2.423 -1.155,5.667c5.105,5.889 11.254,11.406 10.914,20.3c-0.008,0.096 -0.003,0.193 0.017,0.288c0.234,0.961 0.788,1.731 1.818,1.642c0.935,-0.089 0.825,-1.042 0.767,-1.694c-0.233,-2.597 0.347,-5.012 1.986,-7.032c1.154,-1.417 0.94,-2.308 -0.39,-3.463c-4.366,-3.811 -8.602,-7.77 -12.95,-11.605c-1.284,-1.143 -2.467,-2.159 -1.007,-4.103Zm-6.043,81.888c-0.678,0.237 -0.482,1.155 -0.424,1.856c0.404,4.77 0.834,9.539 1.319,14.303c0.161,1.587 1.024,2.684 2.776,2.398c1.497,-0.248 2.473,0.225 3.26,1.478c0.43,0.686 1.195,1.275 2.02,0.756c0.826,-0.52 0.196,-1.29 -0.06,-1.876c-1.902,-4.305 -2.928,-8.946 -3.016,-13.651c-0.04,-1.723 -4.031,-5.443 -5.875,-5.264Zm39.371,-13.484c-0.782,1.945 -0.422,4.516 -3.798,2.522c-1.731,-1.033 -1.232,0.687 -1.056,1.313c0.782,2.785 2.063,5.483 2.479,8.305c0.539,3.67 1.976,5.702 5.93,5.869c1.748,0.075 2.262,-0.078 1.699,-1.798c-1.76,-5.402 -3.511,-10.805 -5.254,-16.211Zm-50.497,28.183c-0.199,0.11 -0.54,0.188 -0.707,0.401c-1.645,2.101 -3.324,4.182 -4.854,6.349c-0.577,0.831 -0.052,1.31 0.924,1.667c2.908,1.074 6.31,-0.176 7.623,-2.957c0.528,-1.126 -1.809,-5.523 -2.995,-5.46l0.009,0Zm58.086,-3.65c-0.038,2.412 1.35,4.412 3.113,4.357c1.844,-0.055 2.698,-1.238 2.597,-2.934c-0.133,-2.274 -1.772,-3.14 -3.791,-3.405c-1.466,-0.191 -1.914,0.712 -1.928,1.982l0.009,0Zm-9.445,-49.631c0.445,-3.212 -0.259,-6.074 -0.987,-8.931c-0.127,-0.499 -0.38,-0.99 -0.929,-1.033c-0.485,-0.037 -0.597,0.439 -0.632,0.834c-0.308,3.287 -0.277,6.487 2.54,9.136l0.008,-0.006Zm-64.373,64.59c1.89,-3.249 1.01,-6.109 -1.074,-9.234l1.074,9.234Zm-10.189,-28.068l1.177,-0.058c-1.342,-4.616 -0.935,-9.438 -2.308,-14.052l1.131,14.11Zm127.206,4.04c-2.663,-3.096 -2.663,-3.096 -8.469,0.597c2.842,0.09 5.151,-1.714 8.469,-0.623l0,0.026Zm-123.628,-58.499c-1.933,1.7 -3.301,2.984 -4.118,4.698c-0.288,0.597 -1.18,1.506 -0.115,1.985c0.776,0.352 1.394,-0.525 1.731,-1.258c0.765,-1.575 1.48,-3.18 2.502,-5.425Zm1.443,83.808c-0.254,-2.337 -1.331,-4.499 -1.443,-6.85c-0.026,-0.577 0.121,-1.331 -0.831,-1.155c-0.952,0.176 -0.837,0.834 -0.635,1.59c0.632,2.294 1.417,4.499 2.912,6.426l-0.003,-0.011Zm-7.214,-62.937c0.161,-2.559 2.02,-4.891 0.981,-7.603c-1.477,2.375 -1.426,4.972 -0.993,7.615l0.012,-0.012Zm0.681,15.395c-0.476,-3.674 0.718,-7.503 -0.805,-11.069l0.805,11.069Zm41.826,-50.209c-0.41,-0.865 -0.243,-2.164 -1.371,-2.634c-0.577,-0.237 -1.186,0.288 -1.085,0.975c0.114,1.087 0.823,2.025 1.838,2.43c0.436,0.187 0.626,-0.245 0.606,-0.768l0.012,-0.003Zm-6.377,1.997c-1.677,0.736 -3.437,0.407 -5.03,2.107c2.118,-0.145 3.948,0.378 5.03,-2.107Zm48.275,13.23c0.542,-1.408 0.378,-2.473 -0.494,-3.586c-1.324,1.318 -1.235,2.398 0.482,3.586l0.012,0Zm-53.331,-61.514c1.056,-1.711 2.037,-2.926 2.043,-5c-1.913,1.33 -2.155,2.79 -2.043,5Z" style="fill-rule:nonzero;"/><path d="M113.555,170.662c-0.73,1.12 -0.147,2.846 -1.83,3.876c-0.294,-1.939 0.523,-3.021 1.83,-3.876Z" style="fill-rule:nonzero;"/><path d="M33.037,118.893c0.031,0.941 0.767,2.236 -0.393,2.681c-1.16,0.444 -1.572,-0.97 -2.043,-1.758c-1.821,-3.064 -4.775,-5.632 -3.869,-9.894c2.556,2.556 4.302,5.915 6.348,9.032l-0.043,-0.061Z" style="fill-rule:nonzero;"/><path d="M70.482,39.737c-0.938,-0.191 -2.418,-0.43 -3.866,-0.8c-2.574,-0.655 -4.906,0 -7.237,1.054c-1.002,0.459 -2.26,1.705 -3.131,0.288c-0.658,-1.082 0.444,-2.274 1.203,-3.148c2.251,-2.597 9.283,-4.04 12.541,-2.649c0.833,0.328 1.64,0.721 2.412,1.175c0.993,0.556 1.511,1.703 1.27,2.816c-0.298,1.373 -1.509,1.365 -3.192,1.264Z" style="fill-rule:nonzero;"/><path d="M67.455,44.022c-1.829,-0.577 -3.543,0.675 -5.407,0.234c-1.154,-0.275 -2.02,-0.788 -1.83,-1.873c0.197,-1.186 1.186,-0.805 2.133,-0.629c1.598,0.288 3.243,0.903 4.689,-0.846c0.681,-0.819 1.847,0.029 2.571,0.759c0.545,0.551 1.359,1.154 0.825,2.02c-0.788,1.27 -2.046,-0.404 -2.981,0.335Z" style="fill-rule:nonzero;"/><path d="M82.169,42.839c1.269,-0.257 1.385,0.479 1.794,0.865c1.189,1.126 1.443,1.172 3.201,0.618c0.655,-0.205 0.885,0.245 1.154,0.577c0.525,0.632 0.865,1.371 0.577,2.202c-0.069,0.193 -0.577,0.444 -0.704,0.369c-1.85,-1.14 -4.014,-0.69 -5.976,-1.226c-0.993,-0.272 -1.082,-1.036 -1.05,-1.887c0.046,-0.953 0.614,-1.411 1.004,-1.518Z" style="fill-rule:nonzero;"/><path d="M83.17,65.184c-5.506,-2.397 -11.398,-0.932 -17.051,-1.872c5.751,-0.035 11.733,-2.427 17.051,1.872Z" style="fill-rule:nonzero;"/><path d="M70.087,54.609c1.261,0.961 2.438,1.642 4.083,1.004c0.681,-0.265 1.89,-0.228 2.02,0.707c0.173,1.255 -1.102,0.768 -1.763,0.918c-2.164,0.496 -3.876,0.052 -4.34,-2.629Z" style="fill-rule:nonzero;"/><path d="M80.98,56.352c0.577,0.675 2.051,-0.289 2.098,0.978c0.031,0.926 -0.996,1.024 -1.847,1.001c-0.577,-0.017 -1.218,0.251 -1.766,0.121c-0.817,-0.193 -1.896,1.841 -2.309,-0.069c-0.288,-1.31 1.207,-1.261 2.118,-1.515c0.552,-0.158 1.129,-0.34 1.706,-0.516Z" style="fill-rule:nonzero;"/><path d="M71.862,116.781c1.357,1.495 2.345,3.288 2.885,5.234c0.577,2.101 -0.949,2.915 -2.542,3.316c-1.913,0.482 -2.167,-0.84 -2.441,-2.404c-0.436,-2.421 0.782,-4.112 2.098,-6.146Z" style="fill-rule:nonzero;"/></g></g><g id="ruben-bw.svg1" serif:id="ruben-bw.svg"></g></g></g></svg>