<svg class="si-icon js-evernote-checked" aria-label="Search" xmlns="http://www.w3.org/2000/svg" viewBox="0 0 32 32" data-evernote-id="135"><path d="M28.962 26.499l-4.938-4.938c1.602-2.002 2.669-4.671 2.669-7.474 0-6.673-5.339-12.012-12.012-12.012s-12.012 5.339-12.012 12.012c0 6.673 5.339 12.012 12.012 12.012 2.803 0 5.472-0.934 7.474-2.669l4.938 4.938c0.267 0.267 0.667 0.4 0.934 0.4s0.667-0.133 0.934-0.4c0.534-0.534 0.534-1.335 0-1.868zM5.339 14.087c0-5.205 4.137-9.342 9.342-9.342s9.342 4.137 9.342 9.342c0 2.536-1.068 4.938-2.669 6.54 0 0 0 0 0 0s0 0 0 0c-1.735 1.735-4.004 2.669-6.54 2.669-5.339 0.133-9.476-4.004-9.476-9.209z" data-evernote-id="282" class="js-evernote-checked"></path></svg>