<svg viewBox="23 23 64 64" data-evernote-id="114" class="js-evernote-checked" xmlns="http://www.w3.org/2000/svg">
                          <symbol id="url-icon" viewBox="0 0 64 64"><path d="M40.038 24c2.203 0 4.08.801 5.633 2.404C47.224 27.956 48 29.834 48 32.038c0 2.203-.776 4.106-2.329 5.709-1.552 1.552-3.43 2.328-5.633 2.328h-6.46v-3.08h6.46c1.352 0 2.504-.475 3.455-1.427 1.002-1.002 1.502-2.178 1.502-3.53 0-1.353-.5-2.504-1.502-3.456-.952-1.001-2.103-1.502-3.455-1.502h-6.46V24h6.46zm-14.423 9.615V30.46h12.77v3.155h-12.77zm-5.183-5.033c-.952.952-1.427 2.103-1.427 3.456 0 1.352.475 2.529 1.427 3.53 1.002.952 2.178 1.427 3.53 1.427h6.46v3.08h-6.46c-2.203 0-4.08-.776-5.633-2.329C16.776 36.145 16 34.241 16 32.038c0-2.204.776-4.082 2.329-5.634C19.88 24.8 21.759 24 23.962 24h6.46v3.08h-6.46c-1.352 0-2.529.5-3.53 1.502z"></path></symbol>
                        </svg>