<svg rpl="" class="ml-[0.375rem] col-start-2 text-neutral-content-weak js-evernote-checked" xmlns="http://www.w3.org/2000/svg" viewBox="0 0 20 20" icon-name="author-outline" fill="currentColor" data-evernote-id="731"><g clip-path="url(#clip0_483_55)"><path d="M15.126 0a4.78 4.78 0 00-4.774 4.774c.007.214.029.427.065.638l-.137-.138a1.143 1.143 0 00-1.719.126L.46 16.2A2.315 2.315 0 003.7 19.44l10.8-8.1a1.14 1.14 0 00.122-1.718l-.138-.138c.212.036.426.058.64.065a4.774 4.774 0 100-9.547L15.126 0zM2.953 18.445a1.07 1.07 0 01-1.5-1.5L9.485 6.239l4.175 4.176-10.707 8.03zM15.126 8.3a3.53 3.53 0 110-7.06 3.53 3.53 0 010 7.06zM7.94 11.08L10.016 9l.88.88-2.077 2.08-.879-.88z"></path></g><defs><clipPath id="clip0_483_55"><path d="M0 0h20v20H0z"></path></clipPath></defs></svg>