<svg rpl="" class="text-neutral-content-weak text-20 ml-[0.375rem] col-start-2 js-evernote-checked" xmlns="http://www.w3.org/2000/svg" viewBox="0 0 20 20" icon-name="home-outline" fill="currentColor" data-evernote-id="715"><path d="M17.75 8.565L19 9.4v8.551A1.053 1.053 0 0117.943 19h-5.2a.71.71 0 01-.712-.709v-4.522c0-.762-1.147-1.479-2.036-1.479s-2.036.717-2.036 1.479v4.522a.711.711 0 01-.707.709H2.057A1.052 1.052 0 011 17.954V9.4l1.25-.838v9.188h4.464v-3.981c0-1.538 1.766-2.729 3.286-2.729s3.286 1.191 3.286 2.729v3.981h4.464V8.565zm2.05-1.789L10.65.646A1.126 1.126 0 009.362.638L.2 6.776l.7 1.039 9.1-6.1 9.1 6.1.7-1.039z"></path></svg>