<svg rpl="" class="ml-[0.375rem] col-start-2 text-neutral-content-weak js-evernote-checked" xmlns="http://www.w3.org/2000/svg" viewBox="0 0 20 20" icon-name="community-outline" fill="currentColor" data-evernote-id="726"><g clip-path="url(#clip0_473_28)"><path d="M9.875 7.614a2.055 2.055 0 00-.974.222 1.62 1.62 0 00-.879 1.46v4.2H6.409V6.2h1.552v.93H8c.275-.32.616-.575 1-.748.453-.207.947-.31 1.445-.3.243-.003.487.02.725.071.158.03.31.084.451.161l-.649 1.559a1.731 1.731 0 00-.523-.2 2.755 2.755 0 00-.574-.059zM20 10A10 10 0 1110 0a10.011 10.011 0 0110 10zm-1.25 0a8.722 8.722 0 00-2.841-6.435l-4.974 11.986H9.581l5.3-12.809A8.748 8.748 0 1018.75 10z"></path></g><defs><clipPath id="clip0_473_28"><path d="M0 0h20v20H0z"></path></clipPath></defs></svg>