<svg rpl="" class="ml-[0.375rem] col-start-2 text-neutral-content-weak js-evernote-checked" xmlns="http://www.w3.org/2000/svg" viewBox="0 0 20 20" icon-name="topic-outline" fill="currentColor" data-evernote-id="728"><path d="M19.567 18.683l-2.194-2.194a3.508 3.508 0 10-.884.885l2.194 2.193.884-.884zM14.5 16.75a2.25 2.25 0 110-4.5 2.25 2.25 0 010 4.5zM5.5 2a3.5 3.5 0 100 7 3.5 3.5 0 000-7zm0 5.75a2.25 2.25 0 110-4.5 2.25 2.25 0 010 4.5zM12.125 9h4.75A1.127 1.127 0 0018 7.875v-4.75A1.127 1.127 0 0016.875 2h-4.75A1.127 1.127 0 0011 3.125v4.75A1.127 1.127 0 0012.125 9zm.125-5.75h4.5v4.5h-4.5v-4.5zM7.875 11h-4.75A1.127 1.127 0 002 12.125v4.75A1.127 1.127 0 003.125 18h4.75A1.127 1.127 0 009 16.875v-4.75A1.127 1.127 0 007.875 11zm-.125 5.75h-4.5v-4.5h4.5v4.5z"></path></svg>