<svg rpl="" class="ml-[0.375rem] col-start-2 text-neutral-content-weak js-evernote-checked" xmlns="http://www.w3.org/2000/svg" viewBox="0 0 20 20" icon-name="admin-outline" fill="currentColor" data-evernote-id="723"><g clip-path="url(#clip0_474_17)"><path d="M19.94 9.211a3.25 3.25 0 00-3.177-2.642c-.45 0-.895.102-1.3.3a10.814 10.814 0 00-4.839-1.379l.811-3.741 2.444.519a1.492 1.492 0 10.2-1.235L11.573.5a1.13 1.13 0 00-1.333.862L9.344 5.5a10.773 10.773 0 00-4.792 1.357 3.215 3.215 0 00-1.315-.289A3.249 3.249 0 00.064 9.2c-.079.4-.085.812-.018 1.214a3.23 3.23 0 00.912 1.754l.066.071v.127c.076 3.69 4.014 6.582 8.976 6.582 4.962 0 8.892-2.889 8.966-6.567l.006-.138.044-.046a3.252 3.252 0 00.94-1.778c.067-.4.062-.81-.016-1.208zm-1.22 1c-.076.42-.282.805-.59 1.1l-.393.407-.024.625c-.06 3-3.45 5.354-7.717 5.354-4.267 0-7.66-2.353-7.718-5.371l-.024-.6-.4-.433c-.3-.293-.5-.674-.57-1.087a2.138 2.138 0 01.011-.765 2 2 0 011.942-1.623c.353.003.699.102 1 .286l.337.216.335-.22a9.437 9.437 0 014.758-1.381h.72a9.43 9.43 0 014.726 1.4l.347.225.343-.232a1.7 1.7 0 01.96-.3 2 2 0 011.95 1.629c.048.253.05.512.006.766v.004z"></path></g><defs><clipPath id="clip0_474_17"><path d="M0 0h20v20H0z"></path></clipPath></defs></svg>