<svg rpl="" xmlns="http://www.w3.org/2000/svg" viewBox="0 0 20 20" icon-name="topic-television-outline" fill="currentColor"><path d="M10.375 15h-4.75A2.63 2.63 0 013 12.375v-4.75A2.629 2.629 0 015.625 5h4.75A2.63 2.63 0 0113 7.625v4.75A2.63 2.63 0 0110.375 15zm-4.75-8.75A1.377 1.377 0 004.25 7.625v4.75a1.377 1.377 0 001.375 1.375h4.75a1.377 1.377 0 001.375-1.375v-4.75a1.377 1.377 0 00-1.375-1.375h-4.75zM16.29 7.33c.19-.188.297-.443.3-.71a1.224 1.224 0 00-.02-.19.602.602 0 00-.06-.19.557.557 0 00-.09-.17 1.01 1.01 0 00-.13-.16 1.02 1.02 0 00-1.08-.21.933.933 0 00-.33.21.61.61 0 00-.12.16.95.95 0 00-.1.17c-.023.062-.04.125-.05.19a1.007 1.007 0 00.27.9.933.933 0 00.33.21.838.838 0 00.38.08 1.01 1.01 0 00.7-.29zm-.51 3.27c.066-.01.13-.03.19-.06a.557.557 0 00.17-.09 1.017 1.017 0 00.45-.83 1.224 1.224 0 00-.02-.19.602.602 0 00-.06-.19.557.557 0 00-.09-.17 1.01 1.01 0 00-.13-.16 1.02 1.02 0 00-1.08-.21.933.933 0 00-.33.21.61.61 0 00-.12.16.95.95 0 00-.1.17c-.023.062-.04.125-.05.19a1.007 1.007 0 00.27.9c.192.183.445.286.71.29.064-.002.127-.008.19-.02zm2.6 7.4H1.625A1.627 1.627 0 010 16.375V3.625A1.627 1.627 0 011.625 2h16.75A1.627 1.627 0 0120 3.625v12.75A1.627 1.627 0 0118.375 18h.005zM1.625 3.25a.375.375 0 00-.375.375v12.75a.375.375 0 00.375.375h16.75a.375.375 0 00.375-.375V3.625a.375.375 0 00-.375-.375H1.625z"></path></svg>