<svg rpl="" xmlns="http://www.w3.org/2000/svg" viewBox="0 0 20 20" icon-name="topic-celebrity-outline" fill="currentColor"><path d="M10 14a3 3 0 110-6 3 3 0 010 6zm0-4.75a1.75 1.75 0 100 3.5 1.75 1.75 0 000-3.5zm5.5 10.274c-.151 0-.3-.03-.438-.09L10 17.26l-5.062 2.174A1.1 1.1 0 013.4 18.32l.51-5.462-3.634-4.12a1.1 1.1 0 01.588-1.8l5.376-1.2 2.812-4.723a1.141 1.141 0 011.9 0l2.808 4.718 5.377 1.2a1.1 1.1 0 01.587 1.8l-3.64 4.119.512 5.46a1.101 1.101 0 01-1.1 1.206l.004.006zM10 16c.15 0 .298.03.436.088l4.893 2.1-.494-5.278a1.1 1.1 0 01.27-.83l3.514-3.98-5.193-1.161a1.1 1.1 0 01-.71-.515L10 1.864 7.28 6.428a1.1 1.1 0 01-.706.512L1.38 8.099l3.514 3.98a1.1 1.1 0 01.27.834l-.494 5.275 4.893-2.1C9.702 16.03 9.85 16 10 16z"></path></svg>