<svg rpl="" class="ml-[0.375rem] col-start-2 text-neutral-content-weak js-evernote-checked" xmlns="http://www.w3.org/2000/svg" viewBox="0 0 20 20" icon-name="topic-law-outline" fill="currentColor" data-evernote-id="733"><path d="M2.3 8.625L3.621 5.31l1.324 3.315h1.346L4.256 3.53a1.37 1.37 0 011.362-1.28h8.764a1.37 1.37 0 011.362 1.28l-2.035 5.1h1.346l1.324-3.32L17.7 8.625h1.346l-2.061-5.16A2.62 2.62 0 0014.382 1H5.618a2.62 2.62 0 00-2.606 2.465L.951 8.625H2.3zM6.617 10H.625a.625.625 0 00-.625.625 3.62 3.62 0 107.242 0A.625.625 0 006.617 10zm-3 3a2.376 2.376 0 01-2.288-1.75h4.58A2.376 2.376 0 013.621 13h-.004zM19.375 10h-5.992a.624.624 0 00-.625.625 3.622 3.622 0 006.966 1.386c.182-.44.276-.91.276-1.386a.624.624 0 00-.625-.625zm-3 3a2.376 2.376 0 01-2.288-1.75h4.576A2.375 2.375 0 0116.379 13h-.004z"></path><path d="M10.625 5h-1.25v12.7H6.479v1.25h7.042V17.7h-2.896V5z"></path></svg>