<svg rpl="" class="ml-[0.375rem] col-start-2 text-neutral-content-weak js-evernote-checked" xmlns="http://www.w3.org/2000/svg" viewBox="0 0 20 20" icon-name="rules-outline" fill="currentColor" data-evernote-id="734"><g clip-path="url(#clip0_797_61)"><path d="M7.35 7.333H5.733V6.77h.48V5.23a1.232 1.232 0 01-.47.111v-.507c.178.01.353-.05.487-.167h.7v2.1h.419l.003.566zm-.767 1.92c.164 0 .258.082.258.23 0 .22-.115.276-.516.522-.7.422-.768.806-.768 1.185v.143h1.975v-.564H6.374c.039-.106.149-.236.483-.424.538-.29.659-.581.659-.878 0-.488-.3-.8-.916-.8a1.171 1.171 0 00-1.05.633l.479.345a.708.708 0 01.554-.392zm.536 4.66a.544.544 0 00.383-.545c0-.438-.313-.7-.9-.7a1.435 1.435 0 00-1.01.4l.369.427a.824.824 0 01.588-.26c.178 0 .275.081.275.211 0 .156-.1.253-.448.253h-.218v.482h.205c.356 0 .507.086.507.307 0 .162-.1.28-.383.28a.7.7 0 01-.566-.334L5.5 14.8a1.22 1.22 0 001.047.529c.626 0 1.036-.286 1.036-.826a.581.581 0 00-.464-.59zm1.88-3.288h6v-1.25H9v1.25zm0 4h6v-1.25H9v1.25zm0-8h6v-1.25H9v1.25zm9-5.014v17.271A1.123 1.123 0 0116.876 20h-12.7a1.123 1.123 0 01-1.125-1.118V4.25h-.875A1.127 1.127 0 011.05 3.125v-1.5A1.627 1.627 0 012.675 0h13.7A1.62 1.62 0 0118 1.611zM2.3 3h.75V1.625a.375.375 0 10-.75 0V3zm14.45-1.389a.369.369 0 00-.374-.361H4.252a1.6 1.6 0 01.048.375V18.75h12.45V1.611z"></path></g><defs><clipPath id="clip0_797_61"><path d="M0 0h20v20H0z"></path></clipPath></defs></svg>