<svg rpl="" class="ml-[0.375rem] col-start-2 text-neutral-content-weak js-evernote-checked" xmlns="http://www.w3.org/2000/svg" viewBox="0 0 20 20" icon-name="topic-history-outline" fill="currentColor" data-evernote-id="727"><path d="M17.625 19H2.375v-1.25h15.25V19zM17 4.684V3.625h-1.25v1.059a4.6 4.6 0 01-2.8 4.215l-1.062.442a.626.626 0 000 1.155l1.055.438a4.609 4.609 0 012.81 4.219v1.222H17v-1.222a5.853 5.853 0 00-3.28-5.235A5.85 5.85 0 0017 4.684zm-7 9.253l2.475 2.438h1.783l-3.82-3.761a.625.625 0 00-.876 0l-3.8 3.761h1.763L10 13.937zM3 3.625v1.059a5.85 5.85 0 003.28 5.234A5.852 5.852 0 003 15.153v1.222h1.25v-1.222a4.6 4.6 0 012.8-4.215l1.065-.438a.626.626 0 000-1.155L7.06 8.9a4.609 4.609 0 01-2.81-4.216V3.625H3zM17.625 1H2.375v1.25h15.25V1z"></path></svg>