<svg xmlns="http://www.w3.org/2000/svg" fill="none" viewBox="0 0 25 25" class="dt lr js-evernote-checked" aria-label="Add to list bookmark button" data-evernote-id="239"><path fill="currentColor" d="M18 2.5a.5.5 0 0 1 1 0V5h2.5a.5.5 0 0 1 0 1H19v2.5a.5.5 0 1 1-1 0V6h-2.5a.5.5 0 0 1 0-1H18zM7 7a1 1 0 0 1 1-1h3.5a.5.5 0 0 0 0-1H8a2 2 0 0 0-2 2v14a.5.5 0 0 0 .805.396L12.5 17l5.695 4.396A.5.5 0 0 0 19 21v-8.5a.5.5 0 0 0-1 0v7.485l-5.195-4.012a.5.5 0 0 0-.61 0L7 19.985z" data-evernote-id="240" class="js-evernote-checked"></path></svg>