<svg viewBox="0 0 10.5 12" xmlns="http://www.w3.org/2000/svg"><g fill="#fff"><path d="m4.76 4.96v-1.16c0-.19-.09-.27-.27-.27h-.29v1.7h.29c.18 0 .27-.09.27-.27z"/><path d="m9.7 0h-8.9c-.44 0-.8.36-.8.8v8.56c0 .35.23.65.54.75 0 0 4.43 1.83 4.43 1.83.09.03.18.05.28.05s.19-.02.28-.05c0 0 4.43-1.83 4.43-1.83.31-.11.54-.4.54-.75 0-.01 0-8.56 0-8.56 0-.44-.36-.8-.8-.8zm-3.91 2.92h.71v4.6h-.71zm-2.3 0h1.12c.58 0 .86.28.86.85v1.22c0 .57-.29.85-.86.85h-.41v1.67h-.71zm-.34 4.6h-1.59v-4.6h1.58v.64h-.87v1.3h.84v.64h-.84v1.39h.88v.64zm2.08 3.68-2-.85h4.07zm3.73-4.49c0 .57-.29.85-.86.85h-.35c-.58 0-.86-.28-.86-.85v-2.97c0-.57.29-.85.86-.85h.35c.58 0 .86.28.86.85v.94h-.7v-.9c0-.18-.09-.27-.27-.27h-.12c-.19 0-.27.09-.27.27v2.91c0 .18.09.27.27.27h.13c.18 0 .27-.09.27-.27v-1.04h.7v1.07z"/></g></svg>