<svg class="style-1t9pz9x js-evernote-checked" viewBox="0 0 20 20" fill="none" aria-hidden="true" data-evernote-id="419" xmlns="http://www.w3.org/2000/svg"><g data-evernote-id="420" class="js-evernote-checked"><path d="M9.27965 7.40752L2.84145 14.6741C2.38405 15.1903 2.75065 16.0047 3.44025 16.0047H16.5599C17.2495 16.0047 17.6161 15.1903 17.1587 14.6741L10.7205 7.40752C10.3375 6.97532 9.66265 6.97532 9.27965 7.40752Z" fill="var(--color-gray0)" stroke="var(--color-gray0)" data-evernote-id="421" class="js-evernote-checked"></path><path d="M8.56648 15.5H11.4335C11.4387 15.5 11.4508 15.5013 11.4671 15.5189C11.484 15.5371 11.5 15.5689 11.5 15.6123V19.3877C11.5 19.4311 11.484 19.4629 11.4671 19.4811C11.4508 19.4987 11.4387 19.5 11.4335 19.5H8.56648C8.5613 19.5 8.5492 19.4987 8.53293 19.4811C8.51605 19.4629 8.5 19.4311 8.5 19.3877V15.6123C8.5 15.5689 8.51605 15.5371 8.53293 15.5189C8.5492 15.5013 8.5613 15.5 8.56648 15.5Z" fill="var(--color-gray0)" stroke="var(--color-gray0)" data-evernote-id="422" class="js-evernote-checked"></path><path d="M15.702 9.53557L11.6256 4.23197L11.6136 4.16317L12.6024 3.24257C12.845 3.01677 12.71 2.62777 12.3724 2.57957L10.9962 2.38277L10.3698 1.21477C10.2162 0.928372 9.7806 0.928572 9.6276 1.21537L9.0032 2.38417L7.6272 2.58297C7.2898 2.63177 7.1554 3.02097 7.3984 3.24637L8.3888 4.16557L8.378 4.22757L4.2984 9.53557C3.9916 9.93477 4.2952 10.4924 4.8192 10.4924H15.1814C15.7054 10.4924 16.0088 9.93457 15.702 9.53557Z" fill="var(--color-gray0)" stroke="var(--color-gray0)" data-evernote-id="423" class="js-evernote-checked"></path><path d="M11.1324 9.36595C11.7736 9.36595 12.2934 8.84615 12.2934 8.20495C12.2934 7.56374 11.7736 7.04395 11.1324 7.04395C10.4912 7.04395 9.97144 7.56374 9.97144 8.20495C9.97144 8.84615 10.4912 9.36595 11.1324 9.36595Z" fill="var(--color-red80)" data-evernote-id="424" class="js-evernote-checked"></path><path d="M8.64391 13.907C9.28511 13.907 9.80491 13.3872 9.80491 12.746C9.80491 12.1048 9.28511 11.585 8.64391 11.585C8.00271 11.585 7.48291 12.1048 7.48291 12.746C7.48291 13.3872 8.00271 13.907 8.64391 13.907Z" fill="var(--color-red80)" data-evernote-id="425" class="js-evernote-checked"></path></g><defs data-evernote-id="426" class="js-evernote-checked"><clipPath data-evernote-id="427" class="js-evernote-checked"><rect width="20" height="20" fill="var(--color-gray0)" data-evernote-id="428" class="js-evernote-checked"></rect></clipPath></defs></svg>