<svg xmlns="http://www.w3.org/2000/svg" viewBox="0 0 194.06 104.01"><defs><style>.cls-1{fill:#231f20;}.cls-2{fill:#d55727;}</style></defs><title>Asset 9</title><g id="Layer_2" data-name="Layer 2"><g id="Layer_1-2" data-name="Layer 1"><path class="cls-1" d="M49.24,98.47a110.19,110.19,0,0,1-9.9-6.35,32.42,32.42,0,0,0-4-2.22c-.23-.11-.52-.12-.72-.46.7,0,1.29-.23,1.94-.17.87.09,1-.06.57-1a2.13,2.13,0,0,1-2,.63,4.46,4.46,0,0,0-1.21.08A5.75,5.75,0,0,1,31,88.83a32.19,32.19,0,0,0-4.66-1c-.48-.06-.76-.19-.83-.78a15,15,0,0,0-1.09-2.93c-.29-.87-.3-.89.59-1,1.19-.17,2.16-1,3.35-1.13A1.58,1.58,0,0,0,26.9,82a8.93,8.93,0,0,1-2.27.48c-.54.09-.85-.08-.95-.62s-.2-1-.29-1.5c-.17-1,0-1.13,1-.77.57.21,1.15.41,1.72.64a12.93,12.93,0,0,0,5.48.78,14.48,14.48,0,0,1,6.18,1.44,49.08,49.08,0,0,0,7.33,2.68,36.61,36.61,0,0,0,4.14.73v-8a4.86,4.86,0,0,0-1.52.54c-.24.12-.5.21-.75.31-1.09.43-1.2.42-1.76-.62a11,11,0,0,1-1.12-1.91c-.18-.56-.8-.61-1.34-.19-.88.68-1.06.65-1.32-.41-.43-1.75-1.37-3.32-1.77-5.07a20,20,0,0,0-.73-2.73c-.37-1,0-1.93.09-2.9,0-.54.26-1.13,0-1.6-.9-1.93-.38-3.87-.14-5.81a3.73,3.73,0,0,0-.06-1.79,2.31,2.31,0,0,1,.67-2.49,33,33,0,0,0,2-2.78c.45-.58.76-.79,1.48-.48,2,.85,4.17,1.34,6.23,2.11v-.61L49,51.35c-2-.74-4-1.17-6-1.93-.66-.26-1-.6-1-1.3a4.37,4.37,0,0,0-.6-1.92,17,17,0,0,0-2-2.93c-.18-.23-.51-.44-.43-.77.26-1,.17-2.14.89-3a32.62,32.62,0,0,0,2.8-3.8,12.89,12.89,0,0,0,1.55-5.25c.24-1.56.23-3.17.56-4.72.23-1.06.2-2.13.43-3.19a2.34,2.34,0,0,1,.52-1.38,1.65,1.65,0,0,0,.32-2,5.12,5.12,0,0,1-.48-2.64,5.41,5.41,0,0,0-.15-2.86,1.06,1.06,0,0,1,.16-1.05,1.79,1.79,0,0,0-.12-2.48c-.28-.37-.66-.69-.6-1.24A1.17,1.17,0,0,0,44,7.58c-.32-.12-.7-.26-.69-.76a3.07,3.07,0,0,0-3.54-3c-.25-.49-.48-1-1.16-1.11-1.31-.16-2.12-1.14-3-1.94a1.43,1.43,0,0,0-1.3-.36c-.46.07-.48.39-.38.77a.26.26,0,0,1-.24.36c-.19,0-.37-.05-.35-.26.08-1-.78-1-1.31-1.29H29.76c-.26.3-.21.7-.35,1.07a3.35,3.35,0,0,0-1.16.25,9.6,9.6,0,0,1-3.5,1.25,1.56,1.56,0,0,0-1.44,1.25,2.44,2.44,0,0,1-1,1.48c-.62.51-1.16,1-.89,2,.11.41-.24.56-.59.68A17.93,17.93,0,0,0,19,8.68c-.91.44-1,.8-.84,1.79.29,1.29.27,1.27-.9,2s-2.09,1.63-1.67,3.21a.75.75,0,0,1-.12.76c-.4.44-.8.89-.07,1.41.18.12,0,.39,0,.57a2.26,2.26,0,0,0,.79,2.79c.43.37.95.78.77,1.49-.47.22-.81-.28-1.28-.09-.21.64.17,1.12.56,1.57a5.68,5.68,0,0,1,1.56,2.31c.15.59.73.85,1.28,1.06s.86.26,1,.78a.61.61,0,0,1-.09.18c-.22.26-.8.18-.72.71s.44.7.9.83.74.33,1.12.47c.21.07.4.18.36.41-.12.67.07,1.12.79,1.27a.45.45,0,0,1,.26.28A11.86,11.86,0,0,1,22.94,35c0,.33-.27.44-.5.58s-.69.42-1,.65a2,2,0,0,0-1,2.42A1.13,1.13,0,0,1,20,40.11a.79.79,0,0,0-.38.68c.07.86-.44,1.09-1.14,1.21a14.68,14.68,0,0,0-1.56.47,3.61,3.61,0,0,0-2.62,2.17.91.91,0,0,1-1.31.64C8,43.9,4.47,46.36,1.41,49.89a3.42,3.42,0,0,0-.69,2.18A13.26,13.26,0,0,1,0,56.83c0,2.17,0,4.33,0,6.5a41.15,41.15,0,0,1,.54,4.81c.21,2.73.5,5.45.89,8.16A3.59,3.59,0,0,0,3,78.88C5,80.19,4.69,82.42,5.62,84.42a5.09,5.09,0,0,0-2.95.09c-.58.17-.74.45-.5,1C3,87.62,3.81,89.7,4.61,91.78a1.91,1.91,0,0,0,.84,1,15.25,15.25,0,0,1,2,1.58,2.52,2.52,0,0,1,.83,1.25c.35,1.19.88,2.34,1.12,3.57a1.3,1.3,0,0,0,.71,1,1,1,0,0,1,.55,1.25,6.81,6.81,0,0,0,0,2.55c.53-.27.38-.69.43-1s.09-.94.14-1.41-.09-.85.5-.77,1,0,1.07.7a1.58,1.58,0,0,1-.81,1.89c-.15.1-.41.1-.42.56H36c1.76,0,3.52,0,5.28,0a2.07,2.07,0,0,0,1.37-.26.58.58,0,0,1,.58-.06c1.31.55,2.68.21,4,.3a2.1,2.1,0,0,0,1.07-.27c.32-.15.63-.31,1-.44ZM43.93,80.23a2.06,2.06,0,0,1,1.12,1.82c0,.64-.44.94-1,1.12a1.1,1.1,0,0,1-1.39-.53,4.1,4.1,0,0,1-.49-1.74C42.12,80,42.93,79.68,43.93,80.23ZM41,46.82a3.6,3.6,0,0,1,.5,2.72,5.56,5.56,0,0,0-1.08-1.25A2.22,2.22,0,0,0,41,46.82ZM16.46,20.43c-1.12-.55-1-2.22.27-3.39a2,2,0,0,1-.38,1.54C15.91,19.25,15.7,19.82,16.46,20.43ZM2,75.07a7.16,7.16,0,0,1-.44-2.67C1.27,68.56.87,64.73.62,60.89a18.63,18.63,0,0,1,.23-5.53c.08-.32.18-.64.28-1a2.54,2.54,0,0,1,.17,2C.94,57.74.37,59.14.93,60.66A3.2,3.2,0,0,1,1,62c-.18,1.73.46,3.41.22,5.14,1,2.16.31,4.55.93,6.76A1.19,1.19,0,0,1,2,75.07Zm-.61-23.3c.08-1.51,1.19-2.3,2.17-3.19C2.57,49.5,2.86,51.22,1.36,51.77Zm3,37.78A22.31,22.31,0,0,1,2.7,85.48.4.4,0,0,1,3,85c.29-.08.58-.12.87-.18A1.13,1.13,0,0,0,3.55,86a19.06,19.06,0,0,0,.62,2.33A1.47,1.47,0,0,1,4.33,89.55ZM24.06,85c.11.22.29.52,0,.73a.71.71,0,0,1-.85-.1,1.13,1.13,0,0,1-.39-.45c-.29-.64-.78-.61-1.37-.52-.9.14-1.24-.06-1.35-.88-.33-2.58-.6-5.16-.72-7.75a.58.58,0,0,1,.12-.47,3.73,3.73,0,0,1,3.06,3.07A16.69,16.69,0,0,0,24.06,85ZM39.72,72.38c.58,1.58,1,3.22,1.54,4.83.08.25.26.53,0,.76s-.59.08-.84,0a2.24,2.24,0,0,0-1.66-.22.6.6,0,0,1-.82-.53c-.37-2.57-1.8-4.87-1.95-7.5.39.68,1.17.83,1.72,1.31.63-.51.25-1.32.72-1.94A23.85,23.85,0,0,1,39.72,72.38ZM32.81,56.9a.63.63,0,0,1-.14-.82.36.36,0,0,0-.1-.46c-1-.9-.66-2.29-1.18-3.37-.19-.38.12-.63.45-.79a1.59,1.59,0,0,1,.39-.06c2.23-.24,2.28-.25,2.77,2a23,23,0,0,0,1.64,4.12c1.06,2.51,2.1,5,1.57,7.89-.05.29,0,.55-.47.57s-.26.51-.24.82l.06.77c-.26.09-.35-.08-.47-.18-.34-.25-.65-.77-1.11-.39a1.13,1.13,0,0,0-.3,1.31A7.19,7.19,0,0,1,36,69.63a2.55,2.55,0,0,1-1.73-2.69,32.06,32.06,0,0,0-1.15-7.69,3.68,3.68,0,0,1-.08-1.4A1.15,1.15,0,0,0,32.81,56.9Zm3.8-4.69a.41.41,0,0,1,.53.34,12.11,12.11,0,0,1,.59,4.92A5.25,5.25,0,0,1,36.61,52.21ZM25,21.71a3.47,3.47,0,0,1-.24-2.92A7.5,7.5,0,0,0,25,14.2a2.56,2.56,0,0,1,.11-1.7,1.8,1.8,0,0,0,.19-1.18c-.19-.71.22-1,.8-1.16A2.42,2.42,0,0,0,28,8.8a.79.79,0,0,1,.35-.35c2-.85,3.86-1.86,6.17-1.22a32.34,32.34,0,0,0,3.6.31,2.73,2.73,0,0,1,1.19.38,11.67,11.67,0,0,1,4.2,5.23,12.41,12.41,0,0,1,1.27,6c-.07.74-.25,1.46-.38,2.19h0c-.09,1.86-.19,3.71-.29,5.57A7.25,7.25,0,0,1,43,30.14a3.76,3.76,0,0,1-1.36,1.23.85.85,0,0,0-.38.85c0,.58.08,1.37-.34,1.63-.76.48-.91,1.23-1.3,1.89-.22.37-.86.23-1.1-.29a1.93,1.93,0,0,1-.3-1.45,1.29,1.29,0,0,0,.06-.4c.05-1,.05-1,.8-1.64a16.69,16.69,0,0,1-4.23-.36c-.18.41,0,.5.19.62.4.28.35.61.12,1a3.91,3.91,0,0,0-.69,1.56c-.12.89-.82,1-1.56,1.14s-1.06-.21-1.36-.87a3.4,3.4,0,0,0-1-1.58c-.11-.07-.19-.27-.29-.28-1.51-.13-1.21-1.38-1.24-2.24-.06-1.52.06-1.7-1.4-1.88A2.63,2.63,0,0,1,25.35,27c-.26-.69-.53-1.38-.74-2.1a1.71,1.71,0,0,1,.32-1.95A.9.9,0,0,0,25,21.71Zm-1.57,9.52c-.11,2.21,1.09,3.88,2.45,5.36a23,23,0,0,0,2.6,3,.34.34,0,0,1,.14.25c-.05.94.66,1.31,1.26,1.8.27-1,.61-1.22,1.53-.74,1.66.88,3.42.62,5.17.47.2,0,.4-.06.63-.09.23.32-.21.57,0,.88.58.4.88-.27,1.33-.5.06,1.32-.73,2.31-1.09,3.45.41,0,.37-.37.71-.59-.17,2.26.14,4.5-1.72,6.07l-.27-.07c.15-1,.31-2,.47-3A2.8,2.8,0,0,0,35.72,49a4.88,4.88,0,0,1-.61,1.7c-.8,0-1.12-.38-1.09-1.2,0-.63-.22-1.26-.19-1.91,0-.42-.29-.67-.59-.9A8.94,8.94,0,0,0,32,45.84c-.45-.23-.79-.47-.8-1.05,0-.4-.31-.64-.62-.87-2.38-1.83-4.53-4-6.86-5.85a.64.64,0,0,1-.26-.52c0-2.36-.27-4.7-.45-7.13A.71.71,0,0,1,23.41,31.23ZM22.3,29.59a2,2,0,0,1-1.15-.6c-1.85-2-3-4.31-2.53-7.27.57.83,0,1.84.59,2.57.35-.15.08-.54.39-.74.63.22,1.42.3,1.13,1.39-.11.41.21.76.43,1.1s.48.76.08,1.19c-.48.1-.61-.52-1.13-.51a1.28,1.28,0,0,0,.9,1.17.56.56,0,0,0,.72-.19A1.48,1.48,0,0,0,22,26.18a5.59,5.59,0,0,0-.55-.85c-.18-.29-.35-.6.16-.93.42.93,1.21,1.71.75,2.88-.13.3,0,.51.3.66a1,1,0,0,1,.5.84C23.22,29.37,22.89,29.69,22.3,29.59ZM21.37,37a3.58,3.58,0,0,1,1.54-.89c-.93,1.3-.91,1.29.26,2.28,2.39,2,4.72,4.14,7.08,6.37a5.77,5.77,0,0,0-1.73,5.18c-1.2-.32-1.37-.54-1.2-1.53a3.71,3.71,0,0,0-.77-3.07c-.81-1.12-1.44-2.42-2.23-3.59a12.39,12.39,0,0,0-2.94-3.31C20.66,37.89,20.69,37.58,21.37,37Zm-.63,3.45a9.07,9.07,0,0,1,.58,2A1.78,1.78,0,0,1,20,41C19.94,40.58,20.33,40.46,20.74,40.43Zm-2.27,2.23c-.67,1.28-1.8,1.06-3,1.2C16.39,43,17.48,43.06,18.47,42.66ZM7.23,88.06a.33.33,0,0,1-.3.35c-.26,0-.36-.17-.38-.39,0-.4-.09-.8-.1-1.2a29.61,29.61,0,0,0-.67-4.27,26.49,26.49,0,0,1,1.5,3.59A7,7,0,0,1,7.23,88.06Zm2.19-8.72a24.36,24.36,0,0,1-2.31-4.73,5.4,5.4,0,0,1,.64-4.39A2.37,2.37,0,0,1,9.37,69.1a8.66,8.66,0,0,1,7.35,1.29.63.63,0,0,0,.55.17c0-.5-.42-.71-.76-.91a8.48,8.48,0,0,0-2.59-1.15,4.43,4.43,0,0,1-2.82-1.91,37.82,37.82,0,0,0-3.26-3.67c-1.26-1.29-2.3-2.75-3.46-4.11-.31-.35-.21-.65.06-1,1-1.28,1-1.35-.06-2.59a.92.92,0,0,1-.21-1.19C5,52.73,5.24,51.14,6,49.79a12.13,12.13,0,0,0,1.3-2.27c.1-.34.51-.52.83-.72a3.39,3.39,0,0,0,.66-.46,3,3,0,0,1,4.51.35,6.75,6.75,0,0,1,1.48,2.52c.05.22.14.48.44.47a.65.65,0,0,0,.55-.41c.21-.49.38-1,.6-1.58A4.62,4.62,0,0,1,18,49.89a11.53,11.53,0,0,0,.74,1.33c.33.46.7.53,1.1.12s.71-.81,1.06-1.23a.79.79,0,0,0,.06-.86,2.43,2.43,0,0,0-1-1.56c.32,1.14,1.22,2.33-.52,3.21a12.27,12.27,0,0,0-2-4.2,5.25,5.25,0,0,1,3.36.12,9.67,9.67,0,0,1,2.92,2c1.82,1.53,2.52,3.86,4.12,5.54a3.12,3.12,0,0,0,.73.72c.2-.28,0-.45-.12-.62L27,52.29c-.12-.19-.29-.41-.11-.65s.43-.12.65,0a3.37,3.37,0,0,1,2.2,2.48,7.58,7.58,0,0,0,1.2,2.64c1.36,1.82,1.12,3.83.89,5.84a3.47,3.47,0,0,0,.29,2.16,11.11,11.11,0,0,1,1.33,3.49,11.84,11.84,0,0,0,.9,2c.67,2,1.25,4,2.07,5.93.18.42,0,.59-.36.86a4.89,4.89,0,0,1-4.74.35c-.37-.13-.71-.27-.83-.68-.35-1.22-1-2.34-1-3.68,0-.31.1-.67-.22-.93-.33.29-.2.64-.2,1,0,.78,0,1.56,0,2.34,0,1-.24,1.14-1.27.92A7.52,7.52,0,0,1,24,73.81c-1.16-1.22-1.74-2.81-2.79-4.09-.58-.71-.43-1.69-.74-2.51s-.47-1.62-.7-2.44a5.77,5.77,0,0,1-.19-2.89,10.27,10.27,0,0,0-.28-3.82c-.1-.7-.56-1.06-1.42-.74a31.1,31.1,0,0,1-.62-3.94,1.89,1.89,0,0,0-.95-1.83c-1.49,1.3-.46,2.78-.33,4.16a30.94,30.94,0,0,0,1.08,5c-.5-.24-.54-.8-1-1-.33.18-.13.41,0,.59a7.87,7.87,0,0,0,.71,1.23,7.76,7.76,0,0,1,1.6,5.59c-.05.66.42,1.2.65,1.8.31.83,1,1.57.55,2.57-.1.25.15.43.33.59a3.29,3.29,0,0,1,1,3.2,3.24,3.24,0,0,1-1.36-.57c-.89-.43-1.21-.35-1.58.55-.14.34-.25.61-.67.63-.65,0-.86.51-.9,1A2.18,2.18,0,0,1,14.52,79a7,7,0,0,0-1.92.91C11.19,80.84,10.29,80.77,9.42,79.34Zm2.19,7.42a.38.38,0,0,1-.16-.44,2,2,0,0,1,.28-.64,24.19,24.19,0,0,0,1.86-2.5,1.63,1.63,0,0,1,1-.69c.34.75.44,1.62,1.28,2.09.27.14.12.56-.09.81a7.5,7.5,0,0,1-1.37,1.33A3.26,3.26,0,0,1,11.61,86.76ZM44,99.67a41.89,41.89,0,0,1-13.11,3.41,53.6,53.6,0,0,1-11-.08,22.2,22.2,0,0,1-3.72-.43,3,3,0,0,1-2.16-1.5c-.45-.83-1.21-1.44-1.71-2.26a1.86,1.86,0,0,1,.1-2.33A12.31,12.31,0,0,1,16.94,93c1.4-.67,2.87-1.18,4.25-1.92a13.68,13.68,0,0,0,3.28-2.18,1.62,1.62,0,0,1,1.32-.37,23.1,23.1,0,0,1,4.68.85,13.24,13.24,0,0,0,2.5.45,7.15,7.15,0,0,1,2.64,1,57.15,57.15,0,0,1,6.17,3.89c.64.39,1.25.81,1.88,1.22.81.52.87,1,.11,1.61A12.41,12.41,0,0,1,41.42,99a1.3,1.3,0,0,0-.9.75,15.53,15.53,0,0,0,4.84-2.6,5,5,0,0,1,1.56,1.06C45.91,98.69,45,99.21,44,99.67Z"/><path d="M13.72,54.74c-.55-1.06-1.39-1.82-2.05-2.92a1.83,1.83,0,0,1,1.08.78,33,33,0,0,1,2.86,4.16A2.32,2.32,0,0,1,16,58.2c0,.35-.34.68-.59.32-.93-1.29-1.76-2.66-2.64-4C13.29,54.23,13.36,54.76,13.72,54.74Z"/><path d="M31.84,16.18a6.14,6.14,0,0,1,3.17,1,1.16,1.16,0,0,1,.47,1.44c-.21.55-.73.53-1.21.46a13.29,13.29,0,0,1-1.8-.33,4.94,4.94,0,0,0-3.64.36l-.37.17c-.43.14-.95.58-1.31.24s.19-.89.33-1.34a1.27,1.27,0,0,1,.45-.53A10.41,10.41,0,0,1,31.84,16.18Z"/><path d="M44.39,21.33c-.21.16-.4.41-.65,0A3.29,3.29,0,0,0,40.51,20a1.83,1.83,0,0,1-.4.05c-.58-.06-1.3.12-1.52-.67-.12-.46.87-1.42,1.45-1.52a4.29,4.29,0,0,1,4.17,1.46c.5.59.26,1.35.18,2.05Z"/><path d="M32.91,20.26,32,19.85a1.64,1.64,0,0,1,2.11.89c.08.33-.14.64-.39.55-1.07-.38-2.1.23-3.14.05-.56-.1-1.22,0-1.53-.7a.41.41,0,0,1,.27-.63c.19-.08.51-.37.55.15s.29.17.42.15A12.31,12.31,0,0,1,32.91,20.26Z"/><path d="M40.29,20.48c.11.48-.24.5-.22.75.71,0,1.27.49,2,.64.09-.41-.28-.5-.33-.76.05,0,.11-.09.15-.08A1.92,1.92,0,0,1,43,22.82c-.13,0-.3.14-.36.1-.79-.59-1.74-.38-2.61-.53s-.88-.59-.83-1.18S39.84,20.64,40.29,20.48Z"/><path d="M31.71,30.39c.06-.1.08-.15.09-.15,2.16.41,4.35-.48,6.5.16a12.59,12.59,0,0,1,2,.73.46.46,0,0,1-.75.29c-1.83-1-3.81-.68-5.76-.65C33.07,30.77,32.32,30.94,31.71,30.39Z"/><path d="M37.08,27.46c-.75,0-1.34.1-1.93.15a1.18,1.18,0,0,1-1.31-1.46c.29-.09.33.17.43.32a.9.9,0,0,0,1.12.39C36.31,26.63,36.4,26.69,37.08,27.46Z"/><path d="M37.33,28.77c-.3-.81-.18-1.08.57-1.27a10.71,10.71,0,0,1,2.29-.3c0,.59-.3.9-.9.84A2,2,0,0,0,37.33,28.77Z"/><path d="M29.85,30.45c-.69-.66-.65-1.28-.17-1.76A4.67,4.67,0,0,1,32,27.47C31.15,28.35,29.71,28.76,29.85,30.45Z"/><path d="M34.44,56.1A6.33,6.33,0,0,1,36,58.82,1,1,0,0,1,35.44,60a1.59,1.59,0,0,1-1.53.19.48.48,0,0,1-.16-.12,3.57,3.57,0,0,1,.27-3C34.32,56.87,34.34,56.59,34.44,56.1Z"/><path class="cls-1" d="M53.27,49.49h5a4.81,4.81,0,1,1,0,9.62H56.14v4.63H53.27Zm7.16,4.79a2.07,2.07,0,0,0-2.15-2H56.14v4h2.14A2.08,2.08,0,0,0,60.43,54.28Z"/><path class="cls-1" d="M67.77,52.31v2.78h4.91V58H67.77v2.94H73.5v2.85H64.9V49.49h8.6v2.82Z"/><path class="cls-1" d="M83,63.74,78.48,57v6.74H75.61V49.49h4.65A4.73,4.73,0,0,1,85.1,54.1a4.18,4.18,0,0,1-2.64,4l4.05,5.67Zm-4.54-7.83h1.84a1.82,1.82,0,0,0,1.84-1.79,1.84,1.84,0,0,0-1.84-1.8H78.47Z"/><path class="cls-1" d="M90.74,52.31v2.87h4.92V58H90.74v5.72H87.88V49.45h8.59v2.86Z"/><path class="cls-1" d="M97.16,56.63a7.42,7.42,0,1,1,7.4,7.38A7.45,7.45,0,0,1,97.16,56.63Zm11.93,0a4.52,4.52,0,1,0-4.53,4.5A4.53,4.53,0,0,0,109.09,56.61Z"/><path class="cls-1" d="M121.26,63.74,116.73,57v6.74h-2.87V49.49h4.65a4.74,4.74,0,0,1,4.85,4.61,4.18,4.18,0,0,1-2.64,4l4.05,5.67Zm-4.54-7.83h1.84a1.81,1.81,0,0,0,1.83-1.79,1.83,1.83,0,0,0-1.83-1.8h-1.84Z"/><path class="cls-1" d="M140.09,49.13V63.74h-2.87V57.53l-4.1,6h0l-4.11-6v6.21h-2.86V49.13h.16l6.82,9.42,6.82-9.42Z"/><path class="cls-1" d="M151.22,61.75h-5.7l-.91,2h-3.1l6.81-14.61h.09l6.82,14.61h-3.1Zm-1.11-2.44-1.73-3.81-1.75,3.81Z"/><path class="cls-1" d="M168.11,49.45V64H168l-8.46-8.24v8h-2.87V49.22h.15l8.44,8.22v-8Z"/><path class="cls-1" d="M170,56.62a7.52,7.52,0,0,1,7.4-7.43,7.14,7.14,0,0,1,5,2.21l-1.65,2.25a4.9,4.9,0,0,0-3.37-1.54,4.52,4.52,0,0,0,0,9,4.93,4.93,0,0,0,3.39-1.63l1.64,2.32A6.74,6.74,0,0,1,177.43,64,7.48,7.48,0,0,1,170,56.62Z"/><path class="cls-1" d="M186.85,52.31v2.78h4.91V58h-4.91v2.94h5.73v2.85H184V49.49h8.6v2.82Z"/><path class="cls-2" d="M66.26,73.47h-4.6v15H57.88v-15H53.27V69.74h13Z"/><path class="cls-2" d="M77.43,85.85h-7.5l-1.19,2.62H64.67l9-19.2h.11l9,19.2H78.61ZM76,82.65l-2.27-5-2.29,5Z"/><path class="cls-2" d="M83,85.24l3-2.12a3.94,3.94,0,0,0,3.63,1.93c1.77,0,2.95-.72,2.95-1.72,0-1.37-2.24-2.45-4.2-3.43-2.11-1-4.42-2.19-4.42-5.18,0-3.24,2.74-5.38,6.18-5.38,2.56,0,4.67,1.06,5.52,3.33L92.9,74.61A2.86,2.86,0,0,0,90.22,73c-1.4,0-2.45.81-2.45,1.77,0,1.12,1.42,1.5,3.57,2.51,3.1,1.47,5,3.05,5,5.93,0,3.42-2.79,5.59-6.8,5.59A7,7,0,0,1,83,85.24Z"/><path class="cls-2" d="M108.11,88.47l-5.69-8.21v8.21H98.67V69.74h3.75v8.1l5.26-8.1H112l-6,9.16,6.67,9.57Z"/><path class="cls-2" d="M118.25,73.44v3.78h6.46V81h-6.46v7.52h-3.77V69.69h11.3v3.75Z"/><path class="cls-2" d="M126.68,79.13a9.75,9.75,0,1,1,9.73,9.7A9.79,9.79,0,0,1,126.68,79.13Zm15.68,0a5.94,5.94,0,1,0-6,5.92A6,6,0,0,0,142.36,79.1Z"/><path class="cls-2" d="M158.34,88.47l-6-8.86v8.86h-3.76V69.74h6.11a6.22,6.22,0,0,1,6.37,6.06A5.49,5.49,0,0,1,157.62,81L163,88.47Zm-6-10.3h2.42a2.36,2.36,0,1,0,0-4.71h-2.42Z"/><path class="cls-2" d="M163.92,79.11a9.88,9.88,0,0,1,9.73-9.76,9.39,9.39,0,0,1,6.56,2.9l-2.17,3a6.37,6.37,0,0,0-4.43-2,5.93,5.93,0,0,0,0,11.86,6.46,6.46,0,0,0,4.45-2.14l2.16,3a8.88,8.88,0,0,1-6.49,2.87A9.83,9.83,0,0,1,163.92,79.11Z"/><path class="cls-2" d="M186.09,73.44V77.1h6.46v3.76h-6.46v3.86h7.53v3.75H182.33V69.74h11.29v3.7Z"/><path class="cls-1" d="M58.11,96.16v.61h-2v6.75h-.74V96.77H53.27v-.61Z"/><path class="cls-1" d="M67.91,96.16v7.36h-.74v-3.44h-4v3.44h-.74V96.16h.74v3.3h4v-3.3Z"/><path class="cls-1" d="M73.5,96.76v2.75h2.79v.61H73.5v2.79h3.11v.61H72.76V96.14h3.85v.62Z"/><path class="cls-1" d="M87,98.31a2.52,2.52,0,0,0-1-1.15,2.76,2.76,0,0,0-1.53-.42,2.9,2.9,0,0,0-1.47.38,2.84,2.84,0,0,0-1,1.08,3.8,3.8,0,0,0,0,3.27,2.71,2.71,0,0,0,1,1.08,2.8,2.8,0,0,0,1.47.38,2.88,2.88,0,0,0,1.39-.33,2.58,2.58,0,0,0,1-.95,3.16,3.16,0,0,0,.43-1.44h-3.1v-.6h3.88v.54a3.7,3.7,0,0,1-.53,1.75,3.43,3.43,0,0,1-1.27,1.24,3.76,3.76,0,0,1-3.64,0,3.44,3.44,0,0,1-1.31-1.34,4.18,4.18,0,0,1,0-3.89,3.44,3.44,0,0,1,1.31-1.34,3.62,3.62,0,0,1,1.85-.48,3.67,3.67,0,0,1,2.07.59,3.34,3.34,0,0,1,1.29,1.65Z"/><path class="cls-1" d="M96.9,101.77H93.55l-.65,1.75h-.78l2.69-7.27h.83l2.68,7.27h-.78Zm-.22-.61-1.46-4-1.45,4Z"/><path class="cls-1" d="M109.86,96.25v7.27h-.74V97.71l-2.59,5.81H106l-2.59-5.78v5.78h-.74V96.25h.78l2.82,6.3,2.81-6.3Z"/><path class="cls-1" d="M115.44,96.76v2.75h2.79v.61h-2.79v2.79h3.11v.61H114.7V96.14h3.85v.62Z"/><path class="cls-1" d="M127.44,96.6a3.1,3.1,0,0,1,1.34,1.27,4,4,0,0,1,.46,2,4,4,0,0,1-.46,2,3.08,3.08,0,0,1-1.34,1.26,4.52,4.52,0,0,1-2.1.44h-2.18V96.16h2.18A4.52,4.52,0,0,1,127.44,96.6Zm.25,5.5a3,3,0,0,0,.81-2.25,3.09,3.09,0,0,0-.81-2.27,3.18,3.18,0,0,0-2.35-.81H123.9v6.14h1.44A3.18,3.18,0,0,0,127.69,102.1Z"/><path class="cls-1" d="M134.5,96.76v2.75h2.8v.61h-2.8v2.79h3.11v.61h-3.84V96.14h3.84v.62Z"/><path class="cls-1" d="M148.07,96.16l-2.8,7.36h-.84l-2.79-7.36h.8l2.41,6.56,2.44-6.56Z"/><path class="cls-1" d="M152.08,103.42a.57.57,0,0,1-.16-.39.53.53,0,0,1,.16-.39.52.52,0,0,1,.38-.15.54.54,0,0,1,.38.15.53.53,0,0,1,.15.39.56.56,0,0,1-.15.39.54.54,0,0,1-.38.15A.52.52,0,0,1,152.08,103.42Z"/><path class="cls-1" d="M163.21,98.31a2.52,2.52,0,0,0-1-1.15,2.73,2.73,0,0,0-1.52-.42,2.94,2.94,0,0,0-1.48.38,2.75,2.75,0,0,0-1,1.08,3.71,3.71,0,0,0,0,3.27,2.62,2.62,0,0,0,1,1.08,2.84,2.84,0,0,0,1.48.38,2.87,2.87,0,0,0,1.38-.33,2.58,2.58,0,0,0,1-.95,3.16,3.16,0,0,0,.43-1.44h-3.1v-.6h3.88v.54a3.7,3.7,0,0,1-.53,1.75,3.36,3.36,0,0,1-1.27,1.24,3.55,3.55,0,0,1-1.78.46,3.66,3.66,0,0,1-1.86-.48,3.51,3.51,0,0,1-1.31-1.34,4.18,4.18,0,0,1,0-3.89,3.51,3.51,0,0,1,1.31-1.34,3.87,3.87,0,0,1,3.92.11,3.34,3.34,0,0,1,1.29,1.65Z"/><path class="cls-1" d="M169.53,96.16v4.63a2.25,2.25,0,0,0,.52,1.63,1.92,1.92,0,0,0,1.43.52,1.87,1.87,0,0,0,1.41-.52,2.26,2.26,0,0,0,.52-1.63V96.16h.73v4.62a2.75,2.75,0,0,1-.74,2.11,3,3,0,0,1-3.87,0,2.79,2.79,0,0,1-.74-2.11V96.16Z"/><path class="cls-1" d="M182.87,103.52l-1.82-3.08h-1.36v3.08H179V96.16h2.21a2.67,2.67,0,0,1,1.87.58,2,2,0,0,1,.64,1.55,2.08,2.08,0,0,1-.46,1.37,2.13,2.13,0,0,1-1.35.73l1.9,3.13Zm-3.18-3.68h1.48a1.84,1.84,0,0,0,1.31-.42,1.7,1.7,0,0,0,0-2.25,1.9,1.9,0,0,0-1.33-.39h-1.47Z"/><path class="cls-1" d="M189,96.16v4.63a2.25,2.25,0,0,0,.53,1.63,2.2,2.2,0,0,0,2.84,0,2.26,2.26,0,0,0,.51-1.63V96.16h.74v4.62a2.79,2.79,0,0,1-.74,2.11,3,3,0,0,1-3.87,0,2.75,2.75,0,0,1-.74-2.11V96.16Z"/><path class="cls-1" d="M68.82,44.17H53.61V6.24h7.51v23.4a6.88,6.88,0,0,0,6.8,7,5.46,5.46,0,0,0,.9-.07,6.94,6.94,0,0,0,5.94-6.93V6.24h7.52V29.66A14.19,14.19,0,0,1,69,44.16"/><path class="cls-1" d="M110.79,6.15V27l-22-21.41h-.37V43.44h7.47V22.63l22.05,21.46h.35V6.15Z"/><path class="cls-1" d="M124.73,6.24V43.4h7.47V6.24Z"/><path class="cls-1" d="M136.4,6.24v7.4h9.15V43.4H153V13.64h9.12V6.24Z"/><path class="cls-1" d="M185.6,6.24l-6.77,12.91L172.05,6.24h-8.43l11.5,21.21v16h7.42V27.45L194.06,6.24Z"/><path class="cls-1" d="M67,44.17h0Z"/></g></g></svg>