<svg class="optout__icon js-evernote-checked" xmlns="http://www.w3.org/2000/svg" data-evernote-id="34">
			<path d="M0 4h8v2H0zm0-4h8v2H0zm14.419 5.85l-1.402-2.239c.692-.111 1.36-.667 1.36-1.675 0-1.06-.744-1.786-1.873-1.786H10v5.7h1V3.722h1l1.256 2.128zm-2.043-3.008H11V1.03h1.376c.564 0 .974.35.974.897 0 .555-.41.915-.974.915zM17.38 5.85V1.03h1.727V.15h-4.453v.88h1.726v4.82zm5.174 0c1.077 0 1.658-.658 1.658-1.546 0-.693-.487-1.3-1.102-1.394.53-.111.991-.598.991-1.308C24.1.8 23.528.15 22.477.15h-2.804v5.7zM22.28 2.5h-1.607V1.03h1.607c.504 0 .795.317.795.735 0 .436-.29.735-.795.735zm.043 2.47h-1.65V3.38h1.65c.564 0 .863.368.863.795 0 .496-.325.795-.863.795zm8.09.876V.145h-.71v2.453H26.37V.145h-.71v5.7h.71V3.23h3.332v2.615zm3.685.103c1.684 0 2.829-1.265 2.829-2.949 0-1.683-1.145-2.948-2.829-2.948-1.693 0-2.83 1.265-2.83 2.948 0 1.684 1.137 2.949 2.83 2.949zm0-.633c-1.282 0-2.094-.991-2.094-2.316 0-1.333.812-2.316 2.094-2.316 1.273 0 2.094.983 2.094 2.316 0 1.325-.82 2.316-2.094 2.316zm6.016.633c1.547 0 2.325-.906 2.325-2.325V.146h-.71v3.47c0 1.042-.564 1.7-1.615 1.7-1.052 0-1.615-.658-1.615-1.7V.145h-.71v3.487c0 1.401.778 2.316 2.325 2.316zm5.243 0c1.538 0 2.103-.846 2.103-1.675 0-2.128-3.376-1.393-3.376-2.675 0-.539.487-.906 1.17-.906.624 0 1.223.213 1.65.683l.427-.521C46.853.35 46.178.06 45.306.06c-1.12 0-1.957.641-1.957 1.581 0 2.034 3.376 1.222 3.376 2.692 0 .436-.325.983-1.342.983a2.41 2.41 0 01-1.795-.812l-.419.538c.47.53 1.197.906 2.188.906zM52 5.846v-.633h-3.026V3.248h2.965v-.633h-2.965V.778H52V.145h-3.735v5.7z" data-evernote-id="35" class="js-evernote-checked"></path>
		</svg>