<svg width="24" height="24" viewBox="0 0 24 24" fill="none" xmlns="http://www.w3.org/2000/svg">
<path d="M3.74574 13.2402C4.7265 12.6478 4.89587 11.2932 4.07111 10.4837L4.07101 10.4836C3.82084 10.2379 3.8782 9.82095 4.21444 9.65593L4.61129 9.46126L4.61142 9.4612C5.69663 8.92867 6.0281 7.54262 5.29298 6.58038L5.29286 6.58022C5.03367 6.24109 5.06718 5.76934 5.37047 5.47165L6.15504 4.70172L6.1554 4.70137C6.60756 4.2572 6.75218 3.58316 6.51038 2.98995C6.32705 2.54014 6.65464 1.99988 7.21752 1.99988L8.08731 1.99988C10.4188 1.99988 12.7107 2.85228 14.8089 4.11191L14.809 4.11195L15.9175 4.77731C15.9175 4.77733 15.9176 4.77735 15.9176 4.77737C16.5801 5.17505 17.3402 5.38449 18.1141 5.38449H20.0129C20.1219 5.38449 20.2032 5.44883 20.2328 5.52137L20.2329 5.52149C20.7723 6.83989 21.0182 8.14693 20.9995 9.44704C20.9808 10.7486 20.6965 12.0657 20.1501 13.4014C20.1204 13.474 20.039 13.5383 19.9301 13.5383H18.2957C17.3853 13.5383 16.5016 13.8566 15.8049 14.4405C13.7074 16.1983 12.2815 18.5769 11.5042 21.1101L11.3229 21.7009L12.2688 21.9911L11.3229 21.7009C11.2723 21.8658 11.1073 21.9999 10.8965 21.9999C10.2317 21.9999 9.73151 21.4788 9.73151 20.8832V20.5415C9.73151 19.1878 10.0005 17.8763 10.5276 16.6166L11.1075 15.2306H9.60512H4.03472C3.38574 15.2306 2.99162 14.7357 3.00063 14.1986C3.00556 13.9049 3.13794 13.6073 3.48738 13.3962C3.48739 13.3962 3.48741 13.3962 3.48742 13.3962L3.74562 13.2403L3.74574 13.2402Z" stroke="#465A69" style="stroke:#465A69;stroke:color(display-p3 0.2745 0.3529 0.4118);stroke-opacity:1;" stroke-width="2"/>
</svg>
