<svg width="25" height="24" viewBox="0 0 25 24" fill="none" xmlns="http://www.w3.org/2000/svg">
<path d="M20.7547 10.7597C19.774 11.3521 19.6046 12.7067 20.4294 13.5162L20.4295 13.5163C20.6796 13.762 20.6223 14.1789 20.286 14.3439L19.8892 14.5386L19.8891 14.5387C18.8039 15.0712 18.4724 16.4573 19.2075 17.4195L19.2076 17.4197C19.4668 17.7588 19.4333 18.2305 19.13 18.5282L18.3454 19.2982L18.3451 19.2985C17.8929 19.7427 17.7483 20.4167 17.9901 21.0099C18.1734 21.4597 17.8458 22 17.283 22H16.4132C14.0817 22 11.7898 21.1476 9.6916 19.888L9.69152 19.8879L8.58297 19.2226C8.58294 19.2225 8.58291 19.2225 8.58288 19.2225C7.92043 18.8248 7.16024 18.6154 6.3864 18.6154H4.48757C4.3786 18.6154 4.29733 18.551 4.26766 18.4785L4.26761 18.4784C3.7282 17.16 3.4823 15.8529 3.50099 14.5528C3.51969 13.2513 3.80397 11.9342 4.35043 10.5984C4.38011 10.5259 4.46148 10.4615 4.57038 10.4615H6.20474C7.11523 10.4615 7.99888 10.1433 8.69558 9.5594C10.7931 7.80159 12.219 5.42298 12.9963 2.88981L13.1776 2.299L12.2317 2.00875L13.1776 2.299C13.2282 2.1341 13.3932 2 13.604 2C14.2688 2 14.769 2.52109 14.769 3.11672V3.45838C14.769 4.81209 14.4999 6.12353 13.9729 7.38325L13.393 8.76923H14.8954H20.4658C21.1147 8.76923 21.5089 9.2642 21.4999 9.80131C21.4949 10.095 21.3625 10.3926 21.0131 10.6036C21.0131 10.6036 21.0131 10.6037 21.0131 10.6037L20.7549 10.7596L20.7547 10.7597Z" stroke="#465A69" style="stroke:#465A69;stroke:color(display-p3 0.2745 0.3529 0.4118);stroke-opacity:1;" stroke-width="2"/>
</svg>
