<svg viewBox="0 0 24 24" fill="currentColor" aria-hidden="true" class="x1lliihq x174y0p0 xxk0z11 xvy4d1p js-evernote-checked" role="img" data-evernote-id="3451" xmlns="http://www.w3.org/2000/svg"><g clip-path="url(#a)"><path d="M14.928 7.371a1 1 0 1 0-1.857-.742l-4 10a1 1 0 0 0 1.857.742l4-10zM3.293 12.707a1 1 0 0 1 0-1.414l3-3a1 1 0 1 1 1.414 1.414L5.414 12l2.293 2.293a1 1 0 1 1-1.414 1.414l-3-3zM20.707 11.293l-3-3a1 1 0 1 0-1.414 1.414L18.586 12l-2.293 2.293a1 1 0 0 0 1.414 1.414l3-3a1 1 0 0 0 0-1.414z"></path></g><defs><clipPath><path d="M0 0H24V24H0z"></path></clipPath></defs></svg>