<svg xmlns="http://www.w3.org/2000/svg" data-evernote-id="117" class="js-evernote-checked"><defs><linearGradient x1="90.769%" y1="4.84%" x2="-38.331%" y2="71.968%" id="gradientA"><stop stop-color="#00A0FF" offset="0%"></stop><stop stop-color="#00A1FF" offset=".7%"></stop><stop stop-color="#00BEFF" offset="26%"></stop><stop stop-color="#00D2FF" offset="51.2%"></stop><stop stop-color="#00DFFF" offset="76%"></stop><stop stop-color="#00E3FF" offset="100%"></stop></linearGradient><linearGradient x1="107.724%" y1="49.424%" x2="-130.67%" y2="49.424%" id="gradientB"><stop stop-color="#FFE000" offset="0%"></stop><stop stop-color="#FFBD00" offset="40.9%"></stop><stop stop-color="orange" offset="77.5%"></stop><stop stop-color="#FF9C00" offset="100%"></stop></linearGradient><linearGradient x1="86.389%" y1="17.814%" x2="-49.886%" y2="194.39%" id="gradientC"><stop stop-color="#FF3A44" offset="0%"></stop><stop stop-color="#C31162" offset="100%"></stop></linearGradient><linearGradient x1="-18.581%" y1="-54.528%" x2="42.275%" y2="24.692%" id="gradientD"><stop stop-color="#32A071" offset="0%"></stop><stop stop-color="#2DA771" offset="6.9%"></stop><stop stop-color="#15CF74" offset="47.6%"></stop><stop stop-color="#06E775" offset="80.1%"></stop><stop stop-color="#00F076" offset="100%"></stop></linearGradient></defs><g fill-rule="nonzero" fill="none"><path d="M145.407 45H5.593C2.46 45 0 42.525 0 39.375V5.625C0 2.475 2.46 0 5.593 0h139.814C148.54 0 151 2.475 151 5.625v33.75c0 3.15-2.46 5.625-5.593 5.625z" fill="#000"></path><path d="M145.407.9c2.573 0 4.698 2.138 4.698 4.725v33.75c0 2.587-2.125 4.725-4.698 4.725H5.593C3.02 44.1.895 41.962.895 39.375V5.625C.895 3.038 3.02.9 5.593.9h139.814zm0-.9H5.593C2.46 0 0 2.587 0 5.625v33.75C0 42.525 2.46 45 5.593 45h139.814c3.132 0 5.593-2.475 5.593-5.625V5.625C151 2.587 148.54 0 145.407 0z" fill="#A6A6A6"></path><path d="M52.804 10.726c0 .903-.227 1.693-.794 2.258-.68.677-1.474 1.016-2.495 1.016-1.02 0-1.814-.339-2.494-1.016C46.34 12.306 46 11.516 46 10.5s.34-1.806 1.02-2.484C47.702 7.34 48.496 7 49.516 7c.454 0 .908.113 1.361.339.454.226.794.451 1.02.79l-.566.565c-.454-.565-1.02-.79-1.815-.79-.68 0-1.36.225-1.814.79-.567.451-.794 1.129-.794 1.919s.227 1.468.794 1.92c.567.45 1.134.79 1.814.79.794 0 1.361-.226 1.928-.79.34-.34.567-.791.567-1.356h-2.495v-.903h3.29v.452zm5.217-2.823h-3.062v2.145h2.835v.79h-2.835v2.146h3.062v.903h-3.97V7.113h3.97v.79zm3.742 5.984h-.907V7.903h-1.928v-.79h4.763v.79h-1.928v5.984zm5.216 0V7.113h.908v6.774h-.908zm4.763 0h-.907V7.903h-1.928v-.79h4.65v.79h-1.928v5.984h.113zm10.773-.903c-.68.677-1.474 1.016-2.494 1.016-1.021 0-1.815-.339-2.495-1.016-.68-.678-1.02-1.468-1.02-2.484s.34-1.806 1.02-2.484C78.206 7.34 79 7 80.02 7c1.02 0 1.814.339 2.494 1.016.68.678 1.021 1.468 1.021 2.484s-.34 1.806-1.02 2.484zm-4.309-.565c.454.452 1.134.79 1.815.79.68 0 1.36-.225 1.814-.79a2.718 2.718 0 0 0 .794-1.919c0-.79-.227-1.468-.794-1.92-.454-.451-1.134-.79-1.814-.79-.68 0-1.361.226-1.815.79a2.718 2.718 0 0 0-.794 1.92c0 .79.227 1.468.794 1.92zm6.578 1.468V7.113h1.02l3.289 5.306V7.113H90v6.774h-.907l-3.516-5.532v5.532h-.793z" stroke="#FFF" stroke-width=".2" fill="#FFF"></path><path d="M76.32 24.284c-2.696 0-4.83 2.024-4.83 4.834a4.796 4.796 0 0 0 4.83 4.835c2.694 0 4.828-2.024 4.828-4.835 0-2.923-2.134-4.834-4.829-4.834zm0 7.645c-1.46 0-2.696-1.237-2.696-2.923s1.235-2.923 2.695-2.923c1.46 0 2.695 1.124 2.695 2.923 0 1.686-1.235 2.923-2.695 2.923zm-10.444-7.645c-2.695 0-4.829 2.024-4.829 4.834a4.796 4.796 0 0 0 4.829 4.835c2.695 0 4.828-2.024 4.828-4.835 0-2.923-2.133-4.834-4.828-4.834zm0 7.645c-1.46 0-2.695-1.237-2.695-2.923s1.235-2.923 2.695-2.923c1.46 0 2.695 1.124 2.695 2.923 0 1.686-1.235 2.923-2.695 2.923zM53.41 25.746v2.023h4.829c-.112 1.124-.562 2.024-1.123 2.586-.674.675-1.797 1.462-3.706 1.462-3.032 0-5.277-2.361-5.277-5.397 0-3.035 2.358-5.396 5.277-5.396 1.572 0 2.808.674 3.706 1.461l1.46-1.461C57.342 19.899 55.77 19 53.524 19 49.48 19 46 22.373 46 26.42s3.481 7.42 7.524 7.42c2.246 0 3.818-.674 5.165-2.136 1.348-1.349 1.797-3.26 1.797-4.722 0-.45 0-.9-.112-1.236H53.41zm50.981 1.574c-.449-1.125-1.572-3.036-4.042-3.036-2.47 0-4.492 1.911-4.492 4.834 0 2.699 2.021 4.835 4.716 4.835 2.134 0 3.482-1.35 3.93-2.136l-1.571-1.125c-.562.787-1.236 1.35-2.359 1.35-1.122 0-1.796-.45-2.358-1.462l6.401-2.698-.225-.562zm-6.513 1.573c0-1.798 1.46-2.81 2.47-2.81.787 0 1.573.45 1.798 1.012l-4.268 1.798zm-5.277 4.61h2.133V19.45h-2.133v14.053zm-3.37-8.207c-.56-.562-1.459-1.124-2.582-1.124-2.358 0-4.604 2.136-4.604 4.834 0 2.698 2.134 4.722 4.604 4.722 1.123 0 2.021-.562 2.47-1.124h.113v.674c0 1.799-1.01 2.81-2.583 2.81-1.235 0-2.133-.899-2.358-1.686l-1.797.787c.562 1.237 1.91 2.811 4.267 2.811 2.47 0 4.492-1.462 4.492-4.947V24.51h-2.021v.787zm-2.47 6.633c-1.46 0-2.695-1.237-2.695-2.923s1.236-2.923 2.695-2.923c1.46 0 2.583 1.237 2.583 2.923s-1.123 2.923-2.583 2.923zm27.4-12.48h-5.053v14.054h2.133v-5.284h2.92c2.358 0 4.604-1.686 4.604-4.385 0-2.698-2.246-4.384-4.604-4.384zm.112 6.746h-3.032v-4.834h3.032c1.572 0 2.47 1.35 2.47 2.36-.112 1.238-1.01 2.474-2.47 2.474zm12.914-2.023c-1.572 0-3.144.674-3.706 2.136l1.91.787c.448-.787 1.122-1.012 1.908-1.012 1.123 0 2.134.674 2.246 1.799v.112c-.337-.225-1.235-.562-2.133-.562-2.022 0-4.043 1.124-4.043 3.148 0 1.911 1.684 3.148 3.481 3.148 1.46 0 2.134-.675 2.695-1.35h.112v1.125h2.022v-5.396c-.225-2.474-2.134-3.935-4.492-3.935zm-.225 7.757c-.673 0-1.684-.337-1.684-1.237 0-1.124 1.235-1.461 2.246-1.461.898 0 1.347.225 1.909.45-.225 1.349-1.348 2.248-2.47 2.248zm11.791-7.42l-2.358 6.07h-.112l-2.47-6.07h-2.247l3.706 8.544-2.134 4.722h2.134L141 24.51h-2.246zm-18.865 8.994h2.133V19.45h-2.133v14.053z" fill="#FFF"></path><path d="M.45.558C.114.892 0 1.45 0 2.119v24.65c0 .67.225 1.227.563 1.562l.113.111 13.97-13.83v-.224L.452.558z" fill="url(#gradientA)" transform="translate(11 8)"></path><path d="M19.153 19.296l-4.619-4.573v-.335l4.62-4.573.112.112 5.52 3.123c1.578.892 1.578 2.342 0 3.235l-5.633 3.011z" fill="url(#gradientB)" transform="translate(11 8)"></path><path d="M19.266 19.185L14.534 14.5.451 28.442c.563.558 1.352.558 2.366.112l16.449-9.37" fill="url(#gradientC)" transform="translate(11 8)"></path><path d="M19.266 9.815L2.816.558C1.804 0 1.015.112.452.669L14.534 14.5l4.732-4.685z" fill="url(#gradientD)" transform="translate(11 8)"></path><path d="M30.153 27.073L13.817 36.22c-.902.558-1.69.446-2.254 0l-.112.112.112.111c.564.446 1.352.558 2.254 0l16.336-9.369z" fill="#000" opacity=".2"></path><path d="M11.45 36.22c-.337-.335-.45-.893-.45-1.562v.111c0 .67.225 1.227.563 1.562v-.112h-.112zm24.337-12.27l-5.634 3.123.113.112 5.52-3.123c.79-.447 1.127-1.004 1.127-1.562 0 .558-.45 1.004-1.126 1.45z" fill="#000" opacity=".12"></path><path d="M13.817 8.67l21.97 12.38c.676.446 1.126.892 1.126 1.45 0-.558-.338-1.115-1.126-1.562l-21.97-12.38C12.239 7.665 11 8.335 11 10.119v.112c0-1.673 1.24-2.454 2.817-1.562z" fill="#FFF" opacity=".25"></path></g></svg>