<svg viewBox="0 0 24 24" xmlns="http://www.w3.org/2000/svg" data-evernote-id="114" class="js-evernote-checked"><path fill-rule="evenodd" clip-rule="evenodd" d="M5.866 20.18c.44.094.885.158 1.333.203.041.004.086.004.127.004.605 0 1.21-.004 1.819 0a7.14 7.14 0 0 0 1.057-.102 11.186 11.186 0 0 0 2.55-.689c.89-.357 1.719-.82 2.484-1.4a11.627 11.627 0 0 0 3.242-3.782 12.33 12.33 0 0 0 1.315-3.707c.15-.82.22-1.649.183-2.48-.004-.095.018-.151.097-.211a8.18 8.18 0 0 0 1.886-1.969l.034-.052c.003-.004.003-.012.007-.03l-.004-.004a8.095 8.095 0 0 1-2.304.628 4.242 4.242 0 0 0 1.77-2.27l-.003-.003c-.176.094-.337.185-.501.267a7.99 7.99 0 0 1-2.043.715.108.108 0 0 1-.104-.03 4.116 4.116 0 0 0-2.297-1.215c-.113-.02-.228-.02-.34-.053h-.015c-.03.015-.064.004-.097.008-.03-.004-.064.007-.094-.008h-.224a.143.143 0 0 1-.097 0h-.034c-.03.015-.06.008-.085.008 0 .003-.004.003-.008.007-2.401.188-4.246 2.48-3.682 5.085-3.429-.23-6.245-1.679-8.479-4.325-.526.945-.683 1.946-.448 3 .236 1.058.818 1.886 1.692 2.518a3.285 3.285 0 0 1-.937-.14 4.147 4.147 0 0 1-.878-.36c-.086 1.535.997 3.616 3.275 4.113-.16.049-.306.075-.455.098-.153.026-.306.034-.46.045-.153.007-.306 0-.459-.008a4.737 4.737 0 0 1-.456-.06c.02.478.796 1.577 1.442 2.055.702.52 1.49.79 2.375.824-.134.117-.265.207-.395.298a8.144 8.144 0 0 1-2.973 1.29c-.785.17-1.58.226-2.383.159a4.483 4.483 0 0 0-.228-.02c-.022 0-.052-.018-.071.016.265.154.527.316.796.463.974.512 1.994.888 3.07 1.114z"></path></svg>