<svg fill="none" xmlns="http://www.w3.org/2000/svg" viewBox="0 0 52 52" data-evernote-id="115" class="js-evernote-checked"><path d="M15.8889 27.4444L10.1111 33.2221V24.5555H7.2222C5.62671 24.5555 4.33331 23.2621 4.33331 21.6666V7.22214C4.33331 5.62665 5.62671 4.33325 7.2222 4.33325H27.4444C29.0399 4.33325 30.3333 5.62665 30.3333 7.22214V12.9999" class="messageStroke js-evernote-checked" stroke-linecap="round" stroke-linejoin="round" data-stroke="1" data-evernote-id="356"></path><path fill-rule="evenodd" clip-rule="evenodd" d="M24.5555 38.9998C22.96 38.9998 21.6666 37.7064 21.6666 36.1109V21.6665C21.6666 20.071 22.96 18.7776 24.5555 18.7776H44.7777C46.3732 18.7776 47.6666 20.071 47.6666 21.6665V36.1109C47.6666 37.7064 46.3732 38.9998 44.7777 38.9998H41.8888V47.6665L33.2222 38.9998H24.5555Z" class="messageFill messageStroke js-evernote-checked" stroke-linecap="round" stroke-linejoin="round" data-fill="1" data-stroke="1" data-evernote-id="357"></path></svg>