<svg fill="none" xmlns="http://www.w3.org/2000/svg" viewBox="-1 -2 56 53" data-evernote-id="114" class="js-evernote-checked"><g id="Hearts" data-evernote-id="339" class="js-evernote-checked"><path fill-rule="evenodd" clip-rule="evenodd" d="M52.5793 31.5068C52.0879 30.4248 51.1687 29.5888 50.036 29.1936C48.9032 28.7984 47.6559 28.8786 46.5846 29.4154L43.0765 31.1373L41.4588 27.6205C40.9674 26.5391 40.0486 25.7036 38.9164 25.3085C37.7842 24.9134 36.5375 24.9931 35.4664 25.5291C33.1974 26.6616 32.2315 29.3545 33.2733 31.6436L38.1264 42.1209C38.2759 42.4506 38.5557 42.7054 38.9007 42.8261C39.2456 42.9467 39.6256 42.9227 39.9521 42.7595L50.4 37.6235C52.6632 36.4844 53.6221 33.7929 52.5793 31.5068Z" data-fill="1" data-stroke="1" stroke-linecap="round" stroke-linejoin="round" data-evernote-id="340" class="js-evernote-checked"></path><path fill-rule="evenodd" clip-rule="evenodd" d="M21.0822 30.5331L4.61175 18.904C1.66363 16.9137 0.337803 13.2843 1.3209 9.89543C2.05453 7.3673 3.97464 5.34117 6.48163 4.44976C8.98861 3.55836 11.7769 3.91031 13.9759 5.39571L16.6474 7.1997L18.4731 4.56327C19.9779 2.39201 22.4487 1.06709 25.1135 1.00248C27.7782 0.937861 30.312 2.14143 31.923 4.23714C34.0835 7.04735 34.1766 10.9074 32.1541 13.8159L21.0822 30.5331Z" data-fill="1" data-stroke="1" stroke-linecap="round" stroke-linejoin="round" data-evernote-id="341" class="js-evernote-checked"></path></g><g id="Sparkles" data-evernote-id="342" class="js-evernote-checked"><path d="M50.3997 18.106C50.8783 18.106 51.2663 18.4889 51.2663 18.9612" data-stroke="1" stroke-linecap="round" stroke-linejoin="round" data-evernote-id="343" class="js-evernote-checked"></path><path d="M49.5336 18.9612C49.5336 18.4889 49.9216 18.106 50.4003 18.106" data-stroke="1" stroke-linecap="round" stroke-linejoin="round" data-evernote-id="344" class="js-evernote-checked"></path><path d="M50.4002 19.816C49.9216 19.816 49.5336 19.4331 49.5336 18.9607" data-stroke="1" stroke-linecap="round" stroke-linejoin="round" data-evernote-id="345" class="js-evernote-checked"></path><path d="M51.2662 18.9607C51.2662 19.4331 50.8782 19.816 50.3996 19.816" data-stroke="1" stroke-linecap="round" stroke-linejoin="round" data-evernote-id="346" class="js-evernote-checked"></path><path d="M5.33521 36.9211C5.81383 36.9211 6.20182 37.3041 6.20182 37.7764" data-stroke="1" stroke-linecap="round" stroke-linejoin="round" data-evernote-id="347" class="js-evernote-checked"></path><path d="M4.4682 37.7764C4.4682 37.3041 4.8562 36.9211 5.33482 36.9211" data-stroke="1" stroke-linecap="round" stroke-linejoin="round" data-evernote-id="348" class="js-evernote-checked"></path><path d="M5.33485 38.6317C4.85621 38.6317 4.4682 38.2488 4.4682 37.7764" data-stroke="1" stroke-linecap="round" stroke-linejoin="round" data-evernote-id="349" class="js-evernote-checked"></path><path d="M6.20182 37.7764C6.20182 38.2487 5.81383 38.6317 5.33521 38.6317" data-stroke="1" stroke-linecap="round" stroke-linejoin="round" data-evernote-id="350" class="js-evernote-checked"></path><path d="M23.534 42.0525V48.8946" data-stroke="1" stroke-linecap="round" stroke-linejoin="round" data-evernote-id="351" class="js-evernote-checked"></path><path d="M27.0006 45.4734H20.0677" data-stroke="1" stroke-linecap="round" stroke-linejoin="round" data-evernote-id="352" class="js-evernote-checked"></path><path d="M44.3331 1.00098V7.84284" data-stroke="1" stroke-linecap="round" stroke-linejoin="round" data-evernote-id="353" class="js-evernote-checked"></path><path d="M47.7997 4.42139H40.8667" data-stroke="1" stroke-linecap="round" stroke-linejoin="round" data-evernote-id="354" class="js-evernote-checked"></path></g></svg>