<svg xmlns:xlink="http://www.w3.org/1999/xlink" viewBox="0 -849.8 19672.2 1200.9" role="img" focusable="false" aria-hidden="true" style="vertical-align: -0.815ex;" data-evernote-id="767" class="js-evernote-checked" xmlns="http://www.w3.org/2000/svg"><g stroke="currentColor" fill="currentColor" stroke-width="0" transform="matrix(1 0 0 -1 0 0)" data-evernote-id="804" class="js-evernote-checked"><use xlink:href="#MJMATHI-45" x="0" y="0" data-evernote-id="805" class="js-evernote-checked"></use><use xlink:href="#MJMAIN-28" x="764" y="0" data-evernote-id="806" class="js-evernote-checked"></use><use xlink:href="#MJMATHI-78" x="1154" y="0" data-evernote-id="807" class="js-evernote-checked"></use><use xlink:href="#MJMAIN-2B" x="1948" y="0" data-evernote-id="808" class="js-evernote-checked"></use><path stroke-width="1" id="MJMAIN-31" d="M213 578L200 573Q186 568 160 563T102 556H83V602H102Q149 604 189 617T245 641T273 663Q275 666 285 666Q294 666 302 660V361L303 61Q310 54 315 52T339 48T401 46H427V0H416Q395 3 257 3Q121 3 100 0H88V46H114Q136 46 152 46T177 47T193 50T201 52T207 57T213 61V578Z"></path><use xlink:href="#MJMAIN-2C" x="3449" y="0" data-evernote-id="810" class="js-evernote-checked"></use><use xlink:href="#MJMATHI-79" x="3895" y="0" data-evernote-id="811" class="js-evernote-checked"></use><use xlink:href="#MJMAIN-29" x="4392" y="0" data-evernote-id="812" class="js-evernote-checked"></use><use xlink:href="#MJMAIN-3D" x="5059" y="0" data-evernote-id="813" class="js-evernote-checked"></use><use xlink:href="#MJMATHI-61" x="6116" y="0" data-evernote-id="814" class="js-evernote-checked"></use><use xlink:href="#MJMAIN-28" x="6645" y="0" data-evernote-id="815" class="js-evernote-checked"></use><use xlink:href="#MJMATHI-78" x="7035" y="0" data-evernote-id="816" class="js-evernote-checked"></use><use xlink:href="#MJMAIN-2B" x="7829" y="0" data-evernote-id="817" class="js-evernote-checked"></use><use xlink:href="#MJMAIN-31" x="8830" y="0" data-evernote-id="818" class="js-evernote-checked"></use><use xlink:href="#MJMAIN-29" x="9331" y="0" data-evernote-id="819" class="js-evernote-checked"></use><use xlink:href="#MJMAIN-2B" x="9942" y="0" data-evernote-id="820" class="js-evernote-checked"></use><use xlink:href="#MJMATHI-62" x="10943" y="0" data-evernote-id="821" class="js-evernote-checked"></use><use xlink:href="#MJMATHI-79" x="11373" y="0" data-evernote-id="822" class="js-evernote-checked"></use><use xlink:href="#MJMAIN-2B" x="12092" y="0" data-evernote-id="823" class="js-evernote-checked"></use><use xlink:href="#MJMATHI-63" x="13093" y="0" data-evernote-id="824" class="js-evernote-checked"></use><use xlink:href="#MJMAIN-3D" x="13804" y="0" data-evernote-id="825" class="js-evernote-checked"></use><use xlink:href="#MJMATHI-45" x="14861" y="0" data-evernote-id="826" class="js-evernote-checked"></use><use xlink:href="#MJMAIN-28" x="15625" y="0" data-evernote-id="827" class="js-evernote-checked"></use><use xlink:href="#MJMATHI-78" x="16015" y="0" data-evernote-id="828" class="js-evernote-checked"></use><use xlink:href="#MJMAIN-2C" x="16587" y="0" data-evernote-id="829" class="js-evernote-checked"></use><use xlink:href="#MJMATHI-79" x="17032" y="0" data-evernote-id="830" class="js-evernote-checked"></use><use xlink:href="#MJMAIN-29" x="17530" y="0" data-evernote-id="831" class="js-evernote-checked"></use><use xlink:href="#MJMAIN-2B" x="18141" y="0" data-evernote-id="832" class="js-evernote-checked"></use><use xlink:href="#MJMATHI-61" x="19142" y="0" data-evernote-id="833" class="js-evernote-checked"></use></g></svg>