<svg viewBox="0 0 24 24" fill="#1772F6" class="ZDI ZDI--ColumnFill24 css-1tu59u4 js-evernote-checked" data-evernote-id="541" xmlns="http://www.w3.org/2000/svg"><path fill-rule="evenodd" d="M7.1 2.625A3.475 3.475 0 0 0 3.625 6.1v13.83a1.875 1.875 0 0 0 2.668 1.699l5.22-2.437c.302-.14.65-.14.95 0l5.246 2.44a1.875 1.875 0 0 0 2.666-1.7V6.1A3.475 3.475 0 0 0 16.9 2.625H7.1ZM16.375 9a.875.875 0 0 1-.875.875h-7a.875.875 0 1 1 0-1.75h7c.483 0 .875.392.875.875ZM8.5 13.875h7a.875.875 0 0 0 0-1.75h-7a.875.875 0 0 0 0 1.75Z" clip-rule="evenodd"></path></svg>